<?xml version="1.0" encoding="UTF-8" standalone="no"?>
<!-- Created with Inkscape (http://www.inkscape.org/) -->

<svg
   xmlns:dc="http://purl.org/dc/elements/1.1/"
   xmlns:cc="http://creativecommons.org/ns#"
   xmlns:rdf="http://www.w3.org/1999/02/22-rdf-syntax-ns#"
   xmlns:svg="http://www.w3.org/2000/svg"
   xmlns="http://www.w3.org/2000/svg"
   xmlns:sodipodi="http://sodipodi.sourceforge.net/DTD/sodipodi-0.dtd"
   xmlns:inkscape="http://www.inkscape.org/namespaces/inkscape"
   version="1.1"
   id="svg834"
   xml:space="preserve"
   width="531.00055"
   height="837.65393"
   viewBox="0 0 531.00055 837.65393"
   sodipodi:docname="Fiji_2012-11-1_0.01-1Hz.svg"
   inkscape:version="0.92.4 5da689c313, 2019-01-14"
   inkscape:export-filename="/home/chet/figures/NZ/sources/polarity_check/Fiji_2012-11-1_0.01-1Hz.png"
   inkscape:export-xdpi="299.70001"
   inkscape:export-ydpi="299.70001"><metadata
     id="metadata840"><rdf:RDF><cc:Work
         rdf:about=""><dc:format>image/svg+xml</dc:format><dc:type
           rdf:resource="http://purl.org/dc/dcmitype/StillImage" /><dc:title></dc:title></cc:Work></rdf:RDF></metadata><defs
     id="defs838"><clipPath
       clipPathUnits="userSpaceOnUse"
       id="clipPath1026"><path
         d="M 52.535877,54.640291 H 346.18968 V 540.37468 H 52.535877 Z"
         id="path1024"
         inkscape:connector-curvature="0" /></clipPath><clipPath
       clipPathUnits="userSpaceOnUse"
       id="clipPath1036"><path
         d="M 52.535877,54.640291 H 346.18968 V 540.37468 H 52.535877 Z"
         id="path1034"
         inkscape:connector-curvature="0" /></clipPath><clipPath
       clipPathUnits="userSpaceOnUse"
       id="clipPath1046"><path
         d="M 52.535877,54.640291 H 346.18968 V 540.37468 H 52.535877 Z"
         id="path1044"
         inkscape:connector-curvature="0" /></clipPath><clipPath
       clipPathUnits="userSpaceOnUse"
       id="clipPath1056"><path
         d="M 52.535877,54.640291 H 346.18968 V 540.37468 H 52.535877 Z"
         id="path1054"
         inkscape:connector-curvature="0" /></clipPath><clipPath
       clipPathUnits="userSpaceOnUse"
       id="clipPath1066"><path
         d="M 52.535877,54.640291 H 346.18968 V 540.37468 H 52.535877 Z"
         id="path1064"
         inkscape:connector-curvature="0" /></clipPath><clipPath
       clipPathUnits="userSpaceOnUse"
       id="clipPath1076"><path
         d="M 52.535877,54.640291 H 346.18968 V 540.37468 H 52.535877 Z"
         id="path1074"
         inkscape:connector-curvature="0" /></clipPath><clipPath
       clipPathUnits="userSpaceOnUse"
       id="clipPath1086"><path
         d="M 52.535877,54.640291 H 346.18968 V 540.37468 H 52.535877 Z"
         id="path1084"
         inkscape:connector-curvature="0" /></clipPath><clipPath
       clipPathUnits="userSpaceOnUse"
       id="clipPath1096"><path
         d="M 52.535877,54.640291 H 346.18968 V 540.37468 H 52.535877 Z"
         id="path1094"
         inkscape:connector-curvature="0" /></clipPath><clipPath
       clipPathUnits="userSpaceOnUse"
       id="clipPath1106"><path
         d="M 52.535877,54.640291 H 346.18968 V 540.37468 H 52.535877 Z"
         id="path1104"
         inkscape:connector-curvature="0" /></clipPath><clipPath
       clipPathUnits="userSpaceOnUse"
       id="clipPath1116"><path
         d="M 52.535877,54.640291 H 346.18968 V 540.37468 H 52.535877 Z"
         id="path1114"
         inkscape:connector-curvature="0" /></clipPath><clipPath
       clipPathUnits="userSpaceOnUse"
       id="clipPath1126"><path
         d="M 52.535877,54.640291 H 346.18968 V 540.37468 H 52.535877 Z"
         id="path1124"
         inkscape:connector-curvature="0" /></clipPath><clipPath
       clipPathUnits="userSpaceOnUse"
       id="clipPath1136"><path
         d="M 52.535877,54.640291 H 346.18968 V 540.37468 H 52.535877 Z"
         id="path1134"
         inkscape:connector-curvature="0" /></clipPath><clipPath
       clipPathUnits="userSpaceOnUse"
       id="clipPath1146"><path
         d="M 52.535877,54.640291 H 346.18968 V 540.37468 H 52.535877 Z"
         id="path1144"
         inkscape:connector-curvature="0" /></clipPath><clipPath
       clipPathUnits="userSpaceOnUse"
       id="clipPath1156"><path
         d="M 52.535877,54.640291 H 346.18968 V 540.37468 H 52.535877 Z"
         id="path1154"
         inkscape:connector-curvature="0" /></clipPath><clipPath
       clipPathUnits="userSpaceOnUse"
       id="clipPath1166"><path
         d="M 52.535877,54.640291 H 346.18968 V 540.37468 H 52.535877 Z"
         id="path1164"
         inkscape:connector-curvature="0" /></clipPath><clipPath
       clipPathUnits="userSpaceOnUse"
       id="clipPath1176"><path
         d="M 52.535877,54.640291 H 346.18968 V 540.37468 H 52.535877 Z"
         id="path1174"
         inkscape:connector-curvature="0" /></clipPath><clipPath
       clipPathUnits="userSpaceOnUse"
       id="clipPath1186"><path
         d="M 52.535877,54.640291 H 346.18968 V 540.37468 H 52.535877 Z"
         id="path1184"
         inkscape:connector-curvature="0" /></clipPath><clipPath
       clipPathUnits="userSpaceOnUse"
       id="clipPath1196"><path
         d="M 52.535877,54.640291 H 346.18968 V 540.37468 H 52.535877 Z"
         id="path1194"
         inkscape:connector-curvature="0" /></clipPath><clipPath
       clipPathUnits="userSpaceOnUse"
       id="clipPath1206"><path
         d="M 52.535877,54.640291 H 346.18968 V 540.37468 H 52.535877 Z"
         id="path1204"
         inkscape:connector-curvature="0" /></clipPath><clipPath
       clipPathUnits="userSpaceOnUse"
       id="clipPath1216"><path
         d="M 52.535877,54.640291 H 346.18968 V 540.37468 H 52.535877 Z"
         id="path1214"
         inkscape:connector-curvature="0" /></clipPath><clipPath
       clipPathUnits="userSpaceOnUse"
       id="clipPath1226"><path
         d="M 52.535877,54.640291 H 346.18968 V 540.37468 H 52.535877 Z"
         id="path1224"
         inkscape:connector-curvature="0" /></clipPath><clipPath
       clipPathUnits="userSpaceOnUse"
       id="clipPath1236"><path
         d="M 52.535877,54.640291 H 346.18968 V 540.37468 H 52.535877 Z"
         id="path1234"
         inkscape:connector-curvature="0" /></clipPath><clipPath
       clipPathUnits="userSpaceOnUse"
       id="clipPath1246"><path
         d="M 52.535877,54.640291 H 346.18968 V 540.37468 H 52.535877 Z"
         id="path1244"
         inkscape:connector-curvature="0" /></clipPath><clipPath
       clipPathUnits="userSpaceOnUse"
       id="clipPath1256"><path
         d="M 52.535877,54.640291 H 346.18968 V 540.37468 H 52.535877 Z"
         id="path1254"
         inkscape:connector-curvature="0" /></clipPath><clipPath
       clipPathUnits="userSpaceOnUse"
       id="clipPath1266"><path
         d="M 52.535877,54.640291 H 346.18968 V 540.37468 H 52.535877 Z"
         id="path1264"
         inkscape:connector-curvature="0" /></clipPath></defs><sodipodi:namedview
     pagecolor="#ffffff"
     bordercolor="#666666"
     borderopacity="1"
     objecttolerance="10"
     gridtolerance="10"
     guidetolerance="10"
     inkscape:pageopacity="0"
     inkscape:pageshadow="2"
     inkscape:window-width="3840"
     inkscape:window-height="2032"
     id="namedview836"
     showgrid="false"
     inkscape:zoom="1.639788"
     inkscape:cx="272.96126"
     inkscape:cy="410.96088"
     inkscape:window-x="1920"
     inkscape:window-y="54"
     inkscape:window-maximized="1"
     inkscape:current-layer="g842"
     fit-margin-top="0"
     fit-margin-left="0"
     fit-margin-right="0"
     fit-margin-bottom="0" /><g
     id="g842"
     inkscape:groupmode="layer"
     inkscape:label="Fiji_2012-11-1_0.01-1Hz"
     transform="matrix(1.3333333,0,0,-1.3333333,0,837.65392)"><path
       d="M 0,0 H 392.4 V 576 H 0 Z"
       style="fill:#ffffff;fill-opacity:1;fill-rule:nonzero;stroke:none"
       id="path844"
       inkscape:connector-curvature="0" /><path
       d="M 52.535877,54.640291 H 346.18968 V 540.37468 H 52.535877 Z"
       style="fill:#ffffff;fill-opacity:1;fill-rule:nonzero;stroke:none"
       id="path846"
       inkscape:connector-curvature="0" /><path
       d="m 65.883789,54.640291 v -3.5"
       style="fill:#000000;fill-opacity:1;fill-rule:nonzero;stroke:#000000;stroke-width:0.80000001;stroke-linecap:butt;stroke-linejoin:round;stroke-miterlimit:10;stroke-dasharray:none;stroke-opacity:1"
       id="path848"
       inkscape:connector-curvature="0" /><text
       transform="matrix(0.99997922,-0.00644687,-0.00644687,-0.99997922,0,0)"
       style="font-variant:normal;font-weight:normal;font-size:10px;font-family:'DejaVu Sans';-inkscape-font-specification:DejaVuSans;writing-mode:lr-tb;fill:#000000;fill-opacity:1;fill-rule:nonzero;stroke:none"
       id="text852"
       x="34.362617"
       y="-35.459785"><tspan
         sodipodi:role="line"
         id="tspan850"
         x="34.362617"
         y="-35.459785"
         style="font-size:14px">19:01:15</tspan></text>
<path
       d="m 199.36255,54.640291 v -3.5"
       style="fill:#000000;fill-opacity:1;fill-rule:nonzero;stroke:#000000;stroke-width:0.80000001;stroke-linecap:butt;stroke-linejoin:round;stroke-miterlimit:10;stroke-dasharray:none;stroke-opacity:1"
       id="path854"
       inkscape:connector-curvature="0" /><path
       d="m 332.8418,54.640291 v -3.5"
       style="fill:#000000;fill-opacity:1;fill-rule:nonzero;stroke:#000000;stroke-width:0.80000001;stroke-linecap:butt;stroke-linejoin:round;stroke-miterlimit:10;stroke-dasharray:none;stroke-opacity:1"
       id="path860"
       inkscape:connector-curvature="0" /><text
       transform="scale(1,-1)"
       style="font-variant:normal;font-weight:normal;font-size:10px;font-family:'DejaVu Sans';-inkscape-font-specification:DejaVuSans;writing-mode:lr-tb;fill:#000000;fill-opacity:1;fill-rule:nonzero;stroke:none"
       id="text868"
       x="173.79366"
       y="-8.7192917"><tspan
         sodipodi:role="line"
         id="tspan866"
         x="173.79366"
         y="-8.7192917"
         style="font-weight:normal;font-size:20px">Time</tspan></text>
<path
       d="m 52.535877,91.076999 h -3.5"
       style="fill:#000000;fill-opacity:1;fill-rule:nonzero;stroke:#000000;stroke-width:0.80000001;stroke-linecap:butt;stroke-linejoin:round;stroke-miterlimit:10;stroke-dasharray:none;stroke-opacity:1"
       id="path870"
       inkscape:connector-curvature="0" /><text
       transform="matrix(1,0,0,-1,6.5358766,85.756686)"
       style="font-variant:normal;font-weight:normal;font-size:14px;font-family:'DejaVu Sans';-inkscape-font-specification:DejaVuSans;writing-mode:lr-tb;fill:#0000ff;fill-opacity:1;fill-rule:nonzero;stroke:none"
       id="text874"><tspan
         x="0 8.5539999 19.082001 30.1"
         y="0"
         sodipodi:role="line"
         id="tspan872">THQ2</tspan></text>
<path
       d="m 52.535877,108.19314 h -3.5"
       style="fill:#000000;fill-opacity:1;fill-rule:nonzero;stroke:#000000;stroke-width:0.80000001;stroke-linecap:butt;stroke-linejoin:round;stroke-miterlimit:10;stroke-dasharray:none;stroke-opacity:1"
       id="path876"
       inkscape:connector-curvature="0" /><text
       transform="matrix(1,0,0,-1,9.4577516,102.87283)"
       style="font-variant:normal;font-weight:normal;font-size:14px;font-family:'DejaVu Sans';-inkscape-font-specification:DejaVuSans;writing-mode:lr-tb;fill:#008000;fill-opacity:1;fill-rule:nonzero;stroke:none"
       id="text880"><tspan
         x="0 9.7299995 18.284 27.188"
         y="0"
         sodipodi:role="line"
         id="tspan878">RT05</tspan></text>
<path
       d="m 52.535877,125.30928 h -3.5"
       style="fill:#000000;fill-opacity:1;fill-rule:nonzero;stroke:#000000;stroke-width:0.80000001;stroke-linecap:butt;stroke-linejoin:round;stroke-miterlimit:10;stroke-dasharray:none;stroke-opacity:1"
       id="path882"
       inkscape:connector-curvature="0" /><text
       transform="matrix(1,0,0,-1,9.4577516,119.98897)"
       style="font-variant:normal;font-weight:normal;font-size:14px;font-family:'DejaVu Sans';-inkscape-font-specification:DejaVuSans;writing-mode:lr-tb;fill:#008000;fill-opacity:1;fill-rule:nonzero;stroke:none"
       id="text886"><tspan
         x="0 9.7299995 18.284 27.188"
         y="0"
         sodipodi:role="line"
         id="tspan884">RT21</tspan></text>
<path
       d="m 52.535877,142.42542 h -3.5"
       style="fill:#000000;fill-opacity:1;fill-rule:nonzero;stroke:#000000;stroke-width:0.80000001;stroke-linecap:butt;stroke-linejoin:round;stroke-miterlimit:10;stroke-dasharray:none;stroke-opacity:1"
       id="path888"
       inkscape:connector-curvature="0" /><text
       transform="matrix(1,0,0,-1,7.0515016,137.1051)"
       style="font-variant:normal;font-weight:normal;font-size:14px;font-family:'DejaVu Sans';-inkscape-font-specification:DejaVuSans;writing-mode:lr-tb;fill:#0000ff;fill-opacity:1;fill-rule:nonzero;stroke:none"
       id="text892"><tspan
         x="0 9.5760002 19.306 28.882"
         y="0"
         sodipodi:role="line"
         id="tspan890">ARAZ</tspan></text>
<path
       d="m 52.535877,159.54156 h -3.5"
       style="fill:#000000;fill-opacity:1;fill-rule:nonzero;stroke:#000000;stroke-width:0.80000001;stroke-linecap:butt;stroke-linejoin:round;stroke-miterlimit:10;stroke-dasharray:none;stroke-opacity:1"
       id="path894"
       inkscape:connector-curvature="0" /><text
       transform="matrix(1,0,0,-1,9.4577516,154.22124)"
       style="font-variant:normal;font-weight:normal;font-size:14px;font-family:'DejaVu Sans';-inkscape-font-specification:DejaVuSans;writing-mode:lr-tb;fill:#008000;fill-opacity:1;fill-rule:nonzero;stroke:none"
       id="text898"><tspan
         x="0 9.7299995 18.284 27.188"
         y="0"
         sodipodi:role="line"
         id="tspan896">RT01</tspan></text>
<path
       d="m 52.535877,176.6577 h -3.5"
       style="fill:#000000;fill-opacity:1;fill-rule:nonzero;stroke:#000000;stroke-width:0.80000001;stroke-linecap:butt;stroke-linejoin:round;stroke-miterlimit:10;stroke-dasharray:none;stroke-opacity:1"
       id="path900"
       inkscape:connector-curvature="0" /><text
       transform="matrix(1,0,0,-1,9.4577516,171.33738)"
       style="font-variant:normal;font-weight:normal;font-size:14px;font-family:'DejaVu Sans';-inkscape-font-specification:DejaVuSans;writing-mode:lr-tb;fill:#008000;fill-opacity:1;fill-rule:nonzero;stroke:none"
       id="text904"><tspan
         x="0 9.7299995 18.284 27.188"
         y="0"
         sodipodi:role="line"
         id="tspan902">RT14</tspan></text>
<path
       d="m 52.535877,193.77384 h -3.5"
       style="fill:#000000;fill-opacity:1;fill-rule:nonzero;stroke:#000000;stroke-width:0.80000001;stroke-linecap:butt;stroke-linejoin:round;stroke-miterlimit:10;stroke-dasharray:none;stroke-opacity:1"
       id="path906"
       inkscape:connector-curvature="0" /><text
       transform="matrix(1,0,0,-1,9.4577516,188.45352)"
       style="font-variant:normal;font-weight:normal;font-size:14px;font-family:'DejaVu Sans';-inkscape-font-specification:DejaVuSans;writing-mode:lr-tb;fill:#008000;fill-opacity:1;fill-rule:nonzero;stroke:none"
       id="text910"><tspan
         x="0 9.7299995 18.284 27.188"
         y="0"
         sodipodi:role="line"
         id="tspan908">RT12</tspan></text>
<path
       d="m 52.535877,210.88997 h -3.5"
       style="fill:#000000;fill-opacity:1;fill-rule:nonzero;stroke:#000000;stroke-width:0.80000001;stroke-linecap:butt;stroke-linejoin:round;stroke-miterlimit:10;stroke-dasharray:none;stroke-opacity:1"
       id="path912"
       inkscape:connector-curvature="0" /><text
       transform="matrix(1,0,0,-1,9.4577516,205.56966)"
       style="font-variant:normal;font-weight:normal;font-size:14px;font-family:'DejaVu Sans';-inkscape-font-specification:DejaVuSans;writing-mode:lr-tb;fill:#008000;fill-opacity:1;fill-rule:nonzero;stroke:none"
       id="text916"><tspan
         x="0 9.7299995 18.284 27.188"
         y="0"
         sodipodi:role="line"
         id="tspan914">RT19</tspan></text>
<path
       d="m 52.535877,228.00611 h -3.5"
       style="fill:#000000;fill-opacity:1;fill-rule:nonzero;stroke:#000000;stroke-width:0.80000001;stroke-linecap:butt;stroke-linejoin:round;stroke-miterlimit:10;stroke-dasharray:none;stroke-opacity:1"
       id="path918"
       inkscape:connector-curvature="0" /><text
       transform="matrix(1,0,0,-1,9.4577516,222.6858)"
       style="font-variant:normal;font-weight:normal;font-size:14px;font-family:'DejaVu Sans';-inkscape-font-specification:DejaVuSans;writing-mode:lr-tb;fill:#008000;fill-opacity:1;fill-rule:nonzero;stroke:none"
       id="text922"><tspan
         x="0 9.7299995 18.284 27.188"
         y="0"
         sodipodi:role="line"
         id="tspan920">RT18</tspan></text>
<path
       d="m 52.535877,245.12225 h -3.5"
       style="fill:#000000;fill-opacity:1;fill-rule:nonzero;stroke:#000000;stroke-width:0.80000001;stroke-linecap:butt;stroke-linejoin:round;stroke-miterlimit:10;stroke-dasharray:none;stroke-opacity:1"
       id="path924"
       inkscape:connector-curvature="0" /><text
       transform="matrix(1,0,0,-1,9.4577516,239.80194)"
       style="font-variant:normal;font-weight:normal;font-size:14px;font-family:'DejaVu Sans';-inkscape-font-specification:DejaVuSans;writing-mode:lr-tb;fill:#008000;fill-opacity:1;fill-rule:nonzero;stroke:none"
       id="text928"><tspan
         x="0 9.7299995 18.284 27.188"
         y="0"
         sodipodi:role="line"
         id="tspan926">RT17</tspan></text>
<path
       d="m 52.535877,262.23839 h -3.5"
       style="fill:#000000;fill-opacity:1;fill-rule:nonzero;stroke:#000000;stroke-width:0.80000001;stroke-linecap:butt;stroke-linejoin:round;stroke-miterlimit:10;stroke-dasharray:none;stroke-opacity:1"
       id="path930"
       inkscape:connector-curvature="0" /><text
       transform="matrix(1,0,0,-1,8.3640016,256.91808)"
       style="font-variant:normal;font-weight:normal;font-size:14px;font-family:'DejaVu Sans';-inkscape-font-specification:DejaVuSans;writing-mode:lr-tb;fill:#008000;fill-opacity:1;fill-rule:nonzero;stroke:none"
       id="text934"><tspan
         x="0 10.472 19.362 28.266001"
         y="0"
         sodipodi:role="line"
         id="tspan932">NS09</tspan></text>
<path
       d="m 52.535877,279.35453 h -3.5"
       style="fill:#000000;fill-opacity:1;fill-rule:nonzero;stroke:#000000;stroke-width:0.80000001;stroke-linecap:butt;stroke-linejoin:round;stroke-miterlimit:10;stroke-dasharray:none;stroke-opacity:1"
       id="path936"
       inkscape:connector-curvature="0" /><text
       transform="matrix(1,0,0,-1,8.3640016,274.03422)"
       style="font-variant:normal;font-weight:normal;font-size:14px;font-family:'DejaVu Sans';-inkscape-font-specification:DejaVuSans;writing-mode:lr-tb;fill:#0000ff;fill-opacity:1;fill-rule:nonzero;stroke:none"
       id="text940"><tspan
         x="0 10.472 19.362 28.266001"
         y="0"
         sodipodi:role="line"
         id="tspan938">NS14</tspan></text>
<path
       d="m 52.535877,296.47067 h -3.5"
       style="fill:#000000;fill-opacity:1;fill-rule:nonzero;stroke:#000000;stroke-width:0.80000001;stroke-linecap:butt;stroke-linejoin:round;stroke-miterlimit:10;stroke-dasharray:none;stroke-opacity:1"
       id="path942"
       inkscape:connector-curvature="0" /><text
       transform="matrix(1,0,0,-1,8.3640016,291.15036)"
       style="font-variant:normal;font-weight:normal;font-size:14px;font-family:'DejaVu Sans';-inkscape-font-specification:DejaVuSans;writing-mode:lr-tb;fill:#008000;fill-opacity:1;fill-rule:nonzero;stroke:none"
       id="text946"><tspan
         x="0 10.472 19.362 28.266001"
         y="0"
         sodipodi:role="line"
         id="tspan944">NS11</tspan></text>
<path
       d="m 52.535877,313.58681 h -3.5"
       style="fill:#000000;fill-opacity:1;fill-rule:nonzero;stroke:#000000;stroke-width:0.80000001;stroke-linecap:butt;stroke-linejoin:round;stroke-miterlimit:10;stroke-dasharray:none;stroke-opacity:1"
       id="path948"
       inkscape:connector-curvature="0" /><text
       transform="matrix(1,0,0,-1,8.8327516,308.2665)"
       style="font-variant:normal;font-weight:normal;font-size:14px;font-family:'DejaVu Sans';-inkscape-font-specification:DejaVuSans;writing-mode:lr-tb;fill:#0000ff;fill-opacity:1;fill-rule:nonzero;stroke:none"
       id="text952"><tspan
         x="0 9.5760002 17.374001 27.104"
         y="0"
         sodipodi:role="line"
         id="tspan950">ALRZ</tspan></text>
<path
       d="m 52.535877,330.70295 h -3.5"
       style="fill:#000000;fill-opacity:1;fill-rule:nonzero;stroke:#000000;stroke-width:0.80000001;stroke-linecap:butt;stroke-linejoin:round;stroke-miterlimit:10;stroke-dasharray:none;stroke-opacity:1"
       id="path954"
       inkscape:connector-curvature="0" /><text
       transform="matrix(1,0,0,-1,8.3640016,325.38264)"
       style="font-variant:normal;font-weight:normal;font-size:14px;font-family:'DejaVu Sans';-inkscape-font-specification:DejaVuSans;writing-mode:lr-tb;fill:#008000;fill-opacity:1;fill-rule:nonzero;stroke:none"
       id="text958"><tspan
         x="0 10.472 19.362 28.266001"
         y="0"
         sodipodi:role="line"
         id="tspan956">NS07</tspan></text>
<path
       d="m 52.535877,347.81909 h -3.5"
       style="fill:#000000;fill-opacity:1;fill-rule:nonzero;stroke:#000000;stroke-width:0.80000001;stroke-linecap:butt;stroke-linejoin:round;stroke-miterlimit:10;stroke-dasharray:none;stroke-opacity:1"
       id="path960"
       inkscape:connector-curvature="0" /><text
       transform="matrix(1,0,0,-1,8.3640016,342.49878)"
       style="font-variant:normal;font-weight:normal;font-size:14px;font-family:'DejaVu Sans';-inkscape-font-specification:DejaVuSans;writing-mode:lr-tb;fill:#008000;fill-opacity:1;fill-rule:nonzero;stroke:none"
       id="text964"><tspan
         x="0 10.472 19.362 28.266001"
         y="0"
         sodipodi:role="line"
         id="tspan962">NS02</tspan></text>
<path
       d="m 52.535877,364.93523 h -3.5"
       style="fill:#000000;fill-opacity:1;fill-rule:nonzero;stroke:#000000;stroke-width:0.80000001;stroke-linecap:butt;stroke-linejoin:round;stroke-miterlimit:10;stroke-dasharray:none;stroke-opacity:1"
       id="path966"
       inkscape:connector-curvature="0" /><text
       transform="matrix(1,0,0,-1,8.3640016,359.61492)"
       style="font-variant:normal;font-weight:normal;font-size:14px;font-family:'DejaVu Sans';-inkscape-font-specification:DejaVuSans;writing-mode:lr-tb;fill:#0000ff;fill-opacity:1;fill-rule:nonzero;stroke:none"
       id="text970"><tspan
         x="0 10.472 19.362 28.266001"
         y="0"
         sodipodi:role="line"
         id="tspan968">NS13</tspan></text>
<path
       d="m 52.535877,382.05137 h -3.5"
       style="fill:#000000;fill-opacity:1;fill-rule:nonzero;stroke:#000000;stroke-width:0.80000001;stroke-linecap:butt;stroke-linejoin:round;stroke-miterlimit:10;stroke-dasharray:none;stroke-opacity:1"
       id="path972"
       inkscape:connector-curvature="0" /><text
       transform="matrix(1,0,0,-1,8.3640016,376.73106)"
       style="font-variant:normal;font-weight:normal;font-size:14px;font-family:'DejaVu Sans';-inkscape-font-specification:DejaVuSans;writing-mode:lr-tb;fill:#0000ff;fill-opacity:1;fill-rule:nonzero;stroke:none"
       id="text976"><tspan
         x="0 10.472 19.362 28.266001"
         y="0"
         sodipodi:role="line"
         id="tspan974">NS12</tspan></text>
<path
       d="m 52.535877,399.16751 h -3.5"
       style="fill:#000000;fill-opacity:1;fill-rule:nonzero;stroke:#000000;stroke-width:0.80000001;stroke-linecap:butt;stroke-linejoin:round;stroke-miterlimit:10;stroke-dasharray:none;stroke-opacity:1"
       id="path978"
       inkscape:connector-curvature="0" /><text
       transform="matrix(1,0,0,-1,8.3640016,393.8472)"
       style="font-variant:normal;font-weight:normal;font-size:14px;font-family:'DejaVu Sans';-inkscape-font-specification:DejaVuSans;writing-mode:lr-tb;fill:#008000;fill-opacity:1;fill-rule:nonzero;stroke:none"
       id="text982"><tspan
         x="0 10.472 19.362 28.266001"
         y="0"
         sodipodi:role="line"
         id="tspan980">NS04</tspan></text>
<path
       d="m 52.535877,416.28365 h -3.5"
       style="fill:#000000;fill-opacity:1;fill-rule:nonzero;stroke:#000000;stroke-width:0.80000001;stroke-linecap:butt;stroke-linejoin:round;stroke-miterlimit:10;stroke-dasharray:none;stroke-opacity:1"
       id="path984"
       inkscape:connector-curvature="0" /><text
       transform="matrix(1,0,0,-1,8.3640016,410.96334)"
       style="font-variant:normal;font-weight:normal;font-size:14px;font-family:'DejaVu Sans';-inkscape-font-specification:DejaVuSans;writing-mode:lr-tb;fill:#008000;fill-opacity:1;fill-rule:nonzero;stroke:none"
       id="text988"><tspan
         x="0 10.472 19.362 28.266001"
         y="0"
         sodipodi:role="line"
         id="tspan986">NS08</tspan></text>
<path
       d="m 52.535877,433.39979 h -3.5"
       style="fill:#000000;fill-opacity:1;fill-rule:nonzero;stroke:#000000;stroke-width:0.80000001;stroke-linecap:butt;stroke-linejoin:round;stroke-miterlimit:10;stroke-dasharray:none;stroke-opacity:1"
       id="path990"
       inkscape:connector-curvature="0" /><text
       transform="matrix(1,0,0,-1,8.3640016,428.07948)"
       style="font-variant:normal;font-weight:normal;font-size:14px;font-family:'DejaVu Sans';-inkscape-font-specification:DejaVuSans;writing-mode:lr-tb;fill:#008000;fill-opacity:1;fill-rule:nonzero;stroke:none"
       id="text994"><tspan
         x="0 10.472 19.362 28.266001"
         y="0"
         sodipodi:role="line"
         id="tspan992">NS03</tspan></text>
<path
       d="m 52.535877,450.51593 h -3.5"
       style="fill:#000000;fill-opacity:1;fill-rule:nonzero;stroke:#000000;stroke-width:0.80000001;stroke-linecap:butt;stroke-linejoin:round;stroke-miterlimit:10;stroke-dasharray:none;stroke-opacity:1"
       id="path996"
       inkscape:connector-curvature="0" /><text
       transform="matrix(1,0,0,-1,3.9265016,445.19561)"
       style="font-variant:normal;font-weight:normal;font-size:14px;font-family:'DejaVu Sans';-inkscape-font-specification:DejaVuSans;writing-mode:lr-tb;fill:#0000ff;fill-opacity:1;fill-rule:nonzero;stroke:none"
       id="text1000"><tspan
         x="0 13.846 22.288 32.018002"
         y="0"
         sodipodi:role="line"
         id="tspan998">WPRZ</tspan></text>
<path
       d="m 52.535877,467.63207 h -3.5"
       style="fill:#000000;fill-opacity:1;fill-rule:nonzero;stroke:#000000;stroke-width:0.80000001;stroke-linecap:butt;stroke-linejoin:round;stroke-miterlimit:10;stroke-dasharray:none;stroke-opacity:1"
       id="path1002"
       inkscape:connector-curvature="0" /><text
       transform="matrix(1,0,0,-1,8.3640016,462.31175)"
       style="font-variant:normal;font-weight:normal;font-size:14px;font-family:'DejaVu Sans';-inkscape-font-specification:DejaVuSans;writing-mode:lr-tb;fill:#008000;fill-opacity:1;fill-rule:nonzero;stroke:none"
       id="text1006"><tspan
         x="0 10.472 19.362 28.266001"
         y="0"
         sodipodi:role="line"
         id="tspan1004">NS01</tspan></text>
<path
       d="m 52.535877,484.74821 h -3.5"
       style="fill:#000000;fill-opacity:1;fill-rule:nonzero;stroke:#000000;stroke-width:0.80000001;stroke-linecap:butt;stroke-linejoin:round;stroke-miterlimit:10;stroke-dasharray:none;stroke-opacity:1"
       id="path1008"
       inkscape:connector-curvature="0" /><text
       transform="matrix(1,0,0,-1,8.0358766,479.42789)"
       style="font-variant:normal;font-weight:normal;font-size:14px;font-family:'DejaVu Sans';-inkscape-font-specification:DejaVuSans;writing-mode:lr-tb;fill:#0000ff;fill-opacity:1;fill-rule:nonzero;stroke:none"
       id="text1012"><tspan
         x="0 8.4420004 18.172001 27.902"
         y="0"
         sodipodi:role="line"
         id="tspan1010">PRRZ</tspan></text>
<path
       d="m 52.535877,501.86435 h -3.5"
       style="fill:#000000;fill-opacity:1;fill-rule:nonzero;stroke:#000000;stroke-width:0.80000001;stroke-linecap:butt;stroke-linejoin:round;stroke-miterlimit:10;stroke-dasharray:none;stroke-opacity:1"
       id="path1014"
       inkscape:connector-curvature="0" /><text
       transform="matrix(1,0,0,-1,5.9421266,496.54403)"
       style="font-variant:normal;font-weight:normal;font-size:14px;font-family:'DejaVu Sans';-inkscape-font-specification:DejaVuSans;writing-mode:lr-tb;fill:#0000ff;fill-opacity:1;fill-rule:nonzero;stroke:none"
       id="text1018"><tspan
         x="0 10.528 20.257999 29.988001"
         y="0"
         sodipodi:role="line"
         id="tspan1016">HRRZ</tspan></text>
<g
       id="g1020"><g
         id="g1022"
         clip-path="url(#clipPath1026)"><path
           d="m 65.883789,90.812704 8.542481,0.04982 4.004394,0.07595 7.474854,0.279301 4.53833,-0.221806 4.27124,-0.135637 6.140142,0.117793 8.00878,0.0329 4.80518,-0.205927 4.53833,-0.145668 4.80518,0.143249 4.80517,0.0405 9.87744,-0.05523 9.34351,0.386349 7.20801,0.03302 4.53808,0.264638 8.27588,0.508729 5.87305,0.176354 9.07666,-0.05338 3.7373,-0.158402 4.27124,-0.4175 6.94116,-0.742321 4.53809,-0.428679 2.66968,-0.476456 2.40259,-0.648049 2.40283,-0.894768 6.67383,-2.756018 1.60156,-0.281817 1.33496,-0.02674 1.60156,0.214846 1.60205,0.450344 1.86866,0.763905 1.86865,0.987741 1.86865,1.214589 2.13574,1.644001 6.40698,5.189283 1.86866,1.101637 1.6018,0.704552 1.60181,0.459815 1.60181,0.203512 1.60156,-0.04638 1.60181,-0.271194 1.86889,-0.549273 1.86841,-0.783404 1.60181,-0.931698 1.33472,-1.034384 1.33471,-1.2961 1.60205,-1.861498 2.66968,-3.530729 2.66943,-3.427003 1.33472,-1.40406 1.33496,-1.070655 1.06787,-0.586951 1.06763,-0.343751 1.06787,-0.102618 1.06787,0.139692 1.06787,0.384375 1.06787,0.621957 1.33472,1.064932 2.1355,2.091519 2.66968,2.584684 1.86865,1.520767 2.93652,2.041516 2.40283,1.762778 2.66944,2.281469 3.47046,2.95689 1.6018,1.089271 1.33472,0.657194 1.33496,0.38233 1.06787,0.10121 1.06787,-0.0783 1.06763,-0.26368 1.06787,-0.472647 1.06787,-0.720539 1.06787,-1.010021 1.06787,-1.328399 1.06788,-1.651393 1.33471,-2.476848 1.86865,-4.010895 2.93653,-6.392526 1.33471,-2.396278 1.06788,-1.493899 0.80102,-0.823069 0.80054,-0.5433 0.80102,-0.250132 0.80103,0.04903 0.80078,0.347786 0.80103,0.639788 0.80053,0.917767 1.06787,1.615991 1.33496,2.540741 1.60181,3.588039 2.40235,6.024819 3.73754,9.474695 1.33472,2.68086 1.06787,1.58787 0.80103,0.79705 0.80078,0.42989 0.53393,0.078 0.53394,-0.0865 0.80102,-0.42335 0.5337,-0.46167 v 0"
           style="fill:none;stroke:#0000ff;stroke-width:0.5;stroke-linecap:square;stroke-linejoin:round;stroke-miterlimit:10;stroke-dasharray:none;stroke-opacity:1"
           id="path1028"
           inkscape:connector-curvature="0" /></g></g><g
       id="g1030"><g
         id="g1032"
         clip-path="url(#clipPath1036)"><path
           d="m 65.883789,108.1672 22.958252,0.0423 59.264649,-0.21851 8.80981,-0.30575 11.21192,-0.37007 5.60644,0.0898 14.41577,0.4392 4.53809,0.092 2.66943,0.27174 2.40284,0.46882 2.66943,0.76719 5.87329,1.81735 1.86865,0.31226 1.60157,0.0707 1.60205,-0.14176 1.60156,-0.36137 1.86865,-0.66826 2.40259,-1.11887 4.00439,-1.8715 1.8689,-0.60335 1.60181,-0.27729 1.60156,-0.019 1.60181,0.23118 2.13574,0.57085 2.40259,0.61988 1.33471,0.13313 1.33496,-0.11876 1.33472,-0.39828 1.33472,-0.64249 4.00439,-2.12623 1.06787,-0.18838 0.80103,0.0669 0.80078,0.2697 0.80078,0.48132 1.06787,0.96093 1.06763,1.2796 1.60205,2.32287 2.66943,3.92732 1.06787,1.21739 1.06763,0.86329 0.80103,0.38146 0.80102,0.1436 0.80078,-0.0907 0.80103,-0.31175 1.06787,-0.72302 1.06763,-1.01548 1.33496,-1.5703 2.66943,-3.59162 2.1355,-2.71922 1.60181,-1.68343 1.33471,-1.08447 1.06787,-0.63057 1.06787,-0.4081 1.06788,-0.18455 1.06787,0.0312 1.06787,0.2322 1.33496,0.54262 1.60156,0.95097 4.80542,3.15341 1.06763,0.2802 0.80102,0.0123 0.80078,-0.16913 1.06763,-0.49955 1.06787,-0.76714 1.8689,-1.69278 1.60181,-1.31932 0.80053,-0.43416 0.80103,-0.19928 0.80102,0.0854 0.80079,0.40285 0.80102,0.73376 0.80078,1.05892 1.06763,1.87594 1.33496,2.95449 1.86865,4.80904 2.13575,5.4001 1.06762,2.19076 0.80103,1.25252 0.80102,0.83079 0.53394,0.28657 0.53369,0.0545 0.53418,-0.18857 0.53369,-0.43749 0.53418,-0.68683 0.80054,-1.48484 0.80102,-1.99271 1.06787,-3.33356 1.33472,-4.96155 3.73755,-14.499551 1.06763,-3.176912 0.80102,-1.844569 0.80103,-1.310755 0.53369,-0.55548 0.53369,-0.292926 0.53418,-0.02995 0.53393,0.227639 0.53394,0.474197 0.80078,1.136955 0.80103,1.581855 1.06787,2.646798 1.86841,5.441549 2.13574,6.06946 1.33496,3.04675 1.06787,1.84009 0.80078,1.01268 0.80078,0.71281 0.80103,0.44263 0.80078,0.20892 0.80102,0.01 0.5337,-0.0912 v 0"
           style="fill:none;stroke:#008000;stroke-width:0.5;stroke-linecap:square;stroke-linejoin:round;stroke-miterlimit:10;stroke-dasharray:none;stroke-opacity:1"
           id="path1038"
           inkscape:connector-curvature="0" /></g></g><g
       id="g1040"><g
         id="g1042"
         clip-path="url(#clipPath1046)"><path
           d="m 65.883789,125.22608 13.614746,-0.47746 4.004151,0.23475 6.674072,0.4096 4.271484,0.0379 6.940918,-0.27782 5.87305,-0.10926 5.07226,0.13923 5.33911,0.13179 4.0044,-0.17422 5.60596,-0.23284 5.07226,0.074 7.74195,0.13517 5.8728,-0.19795 6.14013,-0.48897 4.80542,-0.23154 4.27124,0.0122 4.53833,0.26948 9.07666,0.58268 6.1399,0.005 3.20361,0.14235 2.1355,0.30748 1.86889,0.47046 2.13575,0.78295 2.40234,1.14507 4.53833,2.25065 1.60181,0.48208 1.33471,0.16119 1.33472,-0.0899 1.33496,-0.34829 1.33472,-0.59702 1.60156,-1.01091 1.8689,-1.49589 3.20337,-2.9507 2.40283,-2.09952 1.60156,-1.09734 1.06787,-0.50806 1.06787,-0.2851 1.06787,-0.0404 1.06788,0.20431 1.06762,0.42318 1.60205,0.92133 2.40259,1.43274 1.06763,0.39874 1.06787,0.13518 0.80102,-0.0984 1.06788,-0.40008 1.06762,-0.66601 4.00464,-2.83554 0.80078,-0.15343 0.80078,0.11618 0.80078,0.41336 0.80103,0.71696 0.80103,1.0044 1.06762,1.71814 1.60181,3.09285 2.1355,4.14858 1.33471,2.08044 1.06812,1.22632 1.06787,0.82431 1.06787,0.46811 1.06787,0.18481 1.06763,-0.0298 1.33496,-0.28255 1.06763,-0.42446 1.06787,-0.62914 1.06787,-0.8574 1.33472,-1.38585 1.86865,-2.33958 2.13574,-2.63619 1.33472,-1.3283 1.33496,-1.0194 1.60156,-0.92311 7.74195,-3.87912 3.7373,-1.28453 1.06787,-0.68513 1.33472,-1.12994 2.40283,-2.09612 0.80054,-0.43619 0.80102,-0.19302 0.80103,0.0889 0.80078,0.38536 0.80102,0.6737 1.06787,1.29853 1.33472,2.12484 1.86865,3.54513 2.13575,4.53684 2.13574,5.06821 2.66943,6.38596 1.06763,1.96444 0.80102,1.01337 0.53394,0.40497 0.53394,0.16672 0.53393,-0.0804 0.53394,-0.32651 0.53393,-0.56173 0.80078,-1.23764 1.06788,-2.22855 1.86865,-4.68425 1.86865,-4.51078 1.33472,-2.64167 1.06787,-1.68375 1.06787,-1.31951 1.06787,-1.00003 1.06787,-0.72851 1.06787,-0.49842 1.33496,-0.34859 1.33472,-0.0943 2.1355,0.14658 1.60156,0.0323 1.33496,-0.17847 3.47046,-0.62779 0.80102,0.12179 0.80079,0.30134 1.06787,0.65896 3.20361,2.3362 0.80078,0.28191 0.80078,0.0707 0.80103,-0.13764 1.06763,-0.44833 1.06787,-0.61511 v 0"
           style="fill:none;stroke:#008000;stroke-width:0.5;stroke-linecap:square;stroke-linejoin:round;stroke-miterlimit:10;stroke-dasharray:none;stroke-opacity:1"
           id="path1048"
           inkscape:connector-curvature="0" /></g></g><g
       id="g1050"><g
         id="g1052"
         clip-path="url(#clipPath1056)"><path
           d="m 65.883789,142.51133 13.614746,0.29993 4.805176,-0.31485 4.004394,-0.17612 4.271241,0.0791 6.941162,0.13207 23.492192,-0.0287 5.07226,0.15612 5.60596,0.43751 4.00439,0.20568 2.93653,-0.0655 3.20361,-0.30679 7.47485,-0.84974 2.93653,-0.0304 3.20336,0.19093 3.47071,0.43379 8.80957,1.25798 4.53808,0.33394 6.14014,0.21445 4.0044,-0.0676 8.00878,-0.4767 4.27124,-0.41348 3.20362,-0.51881 2.13574,-0.55856 1.86865,-0.71611 1.86841,-0.96385 2.13599,-1.38355 2.93628,-2.21842 3.4707,-2.58634 1.86841,-1.12104 1.60205,-0.68702 1.33472,-0.32381 1.33496,-0.0604 1.06787,0.15895 1.06763,0.353 1.06787,0.55184 1.33471,0.96832 1.33472,1.26273 1.60181,1.85378 2.13574,2.87916 4.53833,6.29274 1.86865,2.17741 1.86865,1.85195 2.93653,2.52651 4.80517,3.90564 1.33472,0.7356 1.06787,0.28793 0.80103,-0.0151 0.80102,-0.24735 0.80078,-0.50249 0.80078,-0.77116 0.80079,-1.04255 1.06787,-1.79604 1.33471,-2.82354 1.60181,-4.03027 6.14014,-16.25445 1.33471,-2.62371 1.06787,-1.67139 1.06788,-1.26357 1.06787,-0.85725 0.80078,-0.39176 0.80102,-0.19812 1.06787,-0.008 1.06787,0.21838 1.60157,0.59784 2.66967,1.30595 2.66944,1.52053 1.6018,1.13369 1.33472,1.18283 1.33496,1.48454 1.33472,1.85026 1.33472,2.25041 1.6018,3.22023 1.86866,4.33936 4.00439,9.54568 1.33496,2.53967 1.06787,1.61281 1.06787,1.19979 0.80054,0.62188 0.80103,0.38528 0.80078,0.15351 0.80102,-0.0716 0.80078,-0.28811 0.80078,-0.4936 1.06788,-0.95239 1.06787,-1.24677 1.6018,-2.28851 3.73731,-5.66718 1.06787,-1.17055 0.80102,-0.61903 0.80079,-0.36745 0.80102,-0.10636 0.80054,0.14864 0.80102,0.38432 1.06788,0.82768 1.33496,1.4191 2.40258,3.05434 1.60157,1.89039 1.06787,0.95929 0.80078,0.47148 0.80102,0.20207 0.80103,-0.11199 0.80054,-0.46049 0.80102,-0.82949 0.80078,-1.2026 0.80103,-1.56241 1.06787,-2.58837 1.33472,-3.88003 4.27124,-13.423 v 0"
           style="fill:none;stroke:#0000ff;stroke-width:0.5;stroke-linecap:square;stroke-linejoin:round;stroke-miterlimit:10;stroke-dasharray:none;stroke-opacity:1"
           id="path1058"
           inkscape:connector-curvature="0" /></g></g><g
       id="g1060"><g
         id="g1062"
         clip-path="url(#clipPath1066)"><path
           d="m 65.883789,159.51687 16.818359,0.0145 8.275635,-0.0749 14.682617,0.11969 20.02197,-0.11319 17.35205,0.0389 8.27588,-0.21215 8.27564,-0.24223 21.0896,-0.30972 10.94555,0.369 4.80518,0.26778 2.93628,0.38364 2.93677,0.60566 3.20337,0.92135 4.00439,1.14408 2.13574,0.3573 1.86865,0.0904 1.8689,-0.13526 1.86841,-0.36711 1.8689,-0.59872 2.13549,-0.92006 6.14014,-2.81287 1.60181,-0.40689 1.60156,-0.16746 1.60205,0.0542 4.80493,0.38745 1.33496,-0.18484 1.33496,-0.39318 1.60157,-0.70726 3.20361,-1.52336 1.06787,-0.25537 1.06787,0.008 0.80054,0.21703 0.80102,0.41602 1.06788,0.87038 1.06787,1.20677 1.33471,1.88094 4.53833,6.84592 1.33472,1.44503 1.06787,0.8549 1.06787,0.57048 1.06787,0.2771 1.06787,-0.0178 1.06763,-0.30264 1.06787,-0.56234 1.33472,-1.00825 1.60181,-1.5444 2.13574,-2.4145 3.20361,-3.6609 1.33472,-1.22765 1.33496,-0.94006 1.33472,-0.66326 1.60156,-0.53631 6.94092,-2.00023 1.06787,-0.60212 1.06787,-0.83303 1.33472,-1.3854 2.40283,-3.01177 1.33471,-1.44227 0.80079,-0.59224 0.80102,-0.29893 0.53369,-0.007 0.53418,0.16258 0.53369,0.34099 0.80103,0.85462 0.80078,1.26145 0.80078,1.64264 1.06787,2.70222 1.60181,4.83214 3.47046,10.87575 1.06787,2.67326 1.06763,2.0789 0.80102,1.11573 0.80103,0.71587 0.53369,0.25314 0.53393,0.0757 0.53394,-0.0978 0.53393,-0.26526 0.80103,-0.69231 0.80078,-1.00862 1.06763,-1.7417 1.60205,-3.13552 2.66968,-5.26383 1.33471,-2.15329 1.06763,-1.37788 1.06787,-1.04677 1.06787,-0.71413 1.06787,-0.39705 1.06787,-0.11536 1.06788,0.10634 2.13549,0.52518 1.33472,0.23867 1.06787,-0.043 0.80103,-0.24738 0.80078,-0.47963 0.80102,-0.73855 0.80079,-1.00129 0.80078,-1.24057 v 0"
           style="fill:none;stroke:#008000;stroke-width:0.5;stroke-linecap:square;stroke-linejoin:round;stroke-miterlimit:10;stroke-dasharray:none;stroke-opacity:1"
           id="path1068"
           inkscape:connector-curvature="0" /></g></g><g
       id="g1070"><g
         id="g1072"
         clip-path="url(#clipPath1076)"><path
           d="m 65.883789,176.65561 5.605957,0.0174 17.085205,0.16651 18.954099,0.10388 7.74195,0.034 15.21631,-0.24237 10.94555,-0.23097 6.14014,-0.0895 7.7417,-0.49524 5.6062,-0.45562 4.27124,-0.12376 2.66943,0.15011 8.27588,0.64647 2.93652,-0.0196 8.80957,-0.31491 2.1355,0.26121 1.8689,0.47012 1.86865,0.71577 2.13574,1.08072 4.0044,2.09854 1.60156,0.58229 1.33496,0.27278 1.33472,0.0252 1.06787,-0.18104 1.33472,-0.47974 1.33496,-0.7397 1.60156,-1.16591 5.6062,-4.42032 1.33496,-0.59898 1.06763,-0.26322 1.06787,-0.0513 1.06787,0.17447 1.06787,0.39547 1.33472,0.77368 1.60181,1.239 2.93627,2.34839 1.06788,0.57668 1.06787,0.29689 0.80102,-5.8e-4 0.80078,-0.21482 0.80103,-0.43743 1.06787,-0.91226 1.33472,-1.55639 2.93652,-3.67455 0.80103,-0.66771 0.80053,-0.37063 0.53418,-0.048 0.53369,0.12933 0.53418,0.31615 0.80078,0.83014 0.80079,1.24252 1.06811,2.22271 1.33472,3.44735 2.93652,7.92026 1.06787,2.10234 0.80054,1.05416 0.53418,0.41392 0.53369,0.1677 0.53418,-0.0836 0.53369,-0.33237 0.53394,-0.57071 0.80102,-1.26163 1.06787,-2.2953 1.60157,-4.20123 2.13574,-5.56822 1.06763,-2.2782 1.06787,-1.77775 0.80102,-0.98575 0.80103,-0.69798 0.80078,-0.43456 0.80078,-0.20365 0.80078,-0.008 1.06787,0.23139 1.33472,0.55629 3.73755,1.75447 1.33471,0.30347 1.33497,0.0585 1.33471,-0.1634 1.60157,-0.44269 1.86889,-0.76081 4.80542,-2.09167 1.06763,-0.23059 1.06787,0.003 0.80102,0.22005 0.80054,0.46156 0.80103,0.74937 0.80102,1.07275 0.80078,1.41198 1.06787,2.38533 1.33472,3.61381 3.20362,9.06166 1.06762,2.25368 0.80103,1.20791 0.80102,0.7308 0.53369,0.20665 0.53394,-0.0211 0.53394,-0.24547 0.53393,-0.46035 0.80078,-1.05777 0.80103,-1.43083 1.33472,-2.9718 2.66967,-6.80111 2.66968,-6.49279 2.66943,-5.93612 1.33472,-2.54773 1.06787,-1.60297 0.80078,-0.84222 0.80103,-0.46633 0.53369,-0.0807 0.53418,0.11122 0.53369,0.30374 0.80103,0.80454 0.80078,1.18845 1.06787,2.08243 1.33471,3.17376 4.0044,10.09097 1.06787,1.98476 0.80103,1.09931 0.80078,0.72054 0.53393,0.26177 0.53394,0.0889 0.53369,-0.0769 0.80103,-0.40107 0.80102,-0.70134 1.06787,-1.31573 1.33472,-2.11586 1.6018,-3.06183 0.5337,-1.1242 v 0"
           style="fill:none;stroke:#008000;stroke-width:0.5;stroke-linecap:square;stroke-linejoin:round;stroke-miterlimit:10;stroke-dasharray:none;stroke-opacity:1"
           id="path1078"
           inkscape:connector-curvature="0" /></g></g><g
       id="g1080"><g
         id="g1082"
         clip-path="url(#clipPath1086)"><path
           d="m 65.883789,193.61687 7.741699,0.0834 12.546875,0.28613 6.674073,-0.0545 17.352294,-0.44775 15.2168,-0.0714 6.67382,0.34134 5.33912,0.2292 3.20337,-0.0654 3.47045,-0.30495 6.67408,-0.87037 4.80517,-0.53744 3.20337,-0.11841 3.4707,0.12641 7.20777,0.53835 4.53833,0.35683 3.20337,-0.002 4.53833,-0.0128 2.13598,0.23938 1.86841,0.4515 1.60181,0.61244 1.60156,0.84591 1.8689,1.27172 5.87304,4.37539 1.33472,0.57241 1.06787,0.22505 1.06787,-0.0119 1.06787,-0.26431 1.06788,-0.51816 1.06787,-0.75703 1.33471,-1.23229 1.86866,-2.09217 4.27124,-4.96588 1.60205,-1.47517 1.33471,-0.90893 1.06763,-0.45705 1.06787,-0.17558 0.80103,0.0683 1.06787,0.3594 1.06763,0.63702 1.33471,1.07592 2.40284,2.00425 1.06787,0.5578 0.80078,0.15952 0.80078,-0.11096 0.80102,-0.40662 0.80103,-0.70639 0.80054,-0.98653 1.06787,-1.6713 3.4707,-5.88442 0.80078,-0.80586 0.53394,-0.30217 0.53393,-0.0858 0.53394,0.1482 0.53393,0.39304 0.53369,0.64105 0.80103,1.41375 0.80103,1.90815 1.06762,3.15288 4.00464,12.74671 1.06738,2.30022 0.80103,1.22676 0.80102,0.79807 0.80079,0.39428 0.53393,0.0582 0.80078,-0.18427 0.80103,-0.46553 1.06787,-0.97782 1.06787,-1.30403 1.33472,-1.99188 1.6018,-2.80006 4.27124,-7.8235 1.06788,-1.34956 0.80078,-0.68798 0.80078,-0.39287 0.80102,-0.11596 0.80078,0.1164 1.06788,0.41245 2.13574,1.18878 2.1355,1.08152 1.60205,0.54687 1.33471,0.21064 1.06787,-0.0556 0.80079,-0.22007 0.80078,-0.41609 0.80078,-0.65022 0.80102,-0.91086 1.06787,-1.62239 1.33472,-2.55121 2.1355,-4.23284 0.80102,-1.19847 0.80103,-0.78016 0.53369,-0.23851 0.53418,0.01 0.53369,0.26697 0.53394,0.52473 0.80102,1.25045 0.80078,1.75243 1.06763,2.9664 1.60205,5.29096 2.66944,8.98603 1.33496,3.74852 1.06787,2.37851 0.80078,1.32856 0.80078,0.86521 0.53394,0.28749 0.53393,0.0372 0.53394,-0.22411 0.53369,-0.48981 0.53418,-0.75223 0.80078,-1.59348 0.80078,-2.08668 1.06787,-3.37215 4.53833,-15.39833 1.06787,-2.49566 0.80103,-1.37238 0.80054,-0.91932 0.53418,-0.36131 0.53369,-0.16616 0.53418,0.0198 0.53369,0.19403 0.80102,0.58771 0.80078,0.89918 1.06788,1.59197 1.60156,2.94492 2.40283,4.50389 1.06787,1.58278 1.06787,1.20174 1.06787,0.88135 3.20337,2.35003 3.20362,2.89753 0.80078,0.2824 0.53393,-0.02 0.53394,-0.21109 0.53369,-0.41481 0.80103,-1.01328 0.80102,-1.46664 1.06787,-2.56487 1.60156,-4.65833 1.60181,-4.59361 0.26685,-0.66761 v 0"
           style="fill:none;stroke:#008000;stroke-width:0.5;stroke-linecap:square;stroke-linejoin:round;stroke-miterlimit:10;stroke-dasharray:none;stroke-opacity:1"
           id="path1088"
           inkscape:connector-curvature="0" /></g></g><g
       id="g1090"><g
         id="g1092"
         clip-path="url(#clipPath1096)"><path
           d="m 65.883789,211.00956 3.470215,0.0145 12.547119,-0.26545 8.275635,0.0385 15.483642,0.32014 6.14014,-0.18393 6.13989,-0.18861 21.62353,-0.0468 5.8733,-0.46065 8.00854,-0.65708 4.00439,-0.0774 3.73755,0.11707 11.7461,0.70761 5.07226,-0.1199 3.47046,0.0113 2.1355,0.24357 1.8689,0.45321 1.6018,0.59734 1.86841,0.94351 2.66992,1.64127 2.66968,1.62052 1.60156,0.71432 1.33472,0.34538 1.06787,0.0728 1.06763,-0.13104 1.06787,-0.34956 1.06787,-0.56605 1.33496,-0.97657 1.60156,-1.47734 5.07227,-5.00958 1.33472,-0.86841 1.06787,-0.43034 1.06787,-0.16522 1.06787,0.11308 1.06787,0.39303 1.06763,0.65829 1.33496,1.13091 4.27148,4.03262 0.80079,0.42076 0.80078,0.19516 0.80102,-0.0634 0.80078,-0.34022 0.80103,-0.61783 0.80053,-0.87784 1.06788,-1.50694 4.00439,-6.20737 0.80103,-0.70258 0.53393,-0.26108 0.53394,-0.0708 0.53393,0.13541 0.53394,0.35191 0.53393,0.5719 0.80078,1.25994 0.80079,1.70156 1.06787,2.82182 2.13574,6.54832 1.60181,4.51714 1.06787,2.29707 0.80053,1.19861 0.53418,0.51832 0.53394,0.28407 0.53393,0.0489 0.53394,-0.18106 0.53369,-0.40005 0.80103,-0.97488 0.80102,-1.36128 1.06763,-2.27064 2.13574,-5.28725 1.86865,-4.38806 1.33496,-2.53517 1.06763,-1.54191 0.80103,-0.83972 0.80078,-0.55618 0.80078,-0.27292 0.80103,-6.2e-4 0.80078,0.25181 0.80078,0.47639 1.06787,0.92154 1.60181,1.78076 2.66943,3.06685 1.33496,1.15817 1.06787,0.61454 0.80103,0.24785 0.80053,0.048 0.80103,-0.16339 0.80102,-0.3792 0.80079,-0.58977 1.06787,-1.08973 1.33471,-1.77427 4.27124,-6.20108 0.80103,-0.63531 0.53369,-0.23183 0.53418,-0.0577 0.53369,0.12932 0.53418,0.32366 0.80078,0.84966 0.80078,1.26184 1.06787,2.22549 1.33497,3.37911 2.93628,7.68646 1.06787,2.25988 1.06762,1.74289 0.80103,0.90298 0.80102,0.51906 0.53394,0.12303 0.53394,-0.0577 0.53393,-0.23702 0.80078,-0.68224 0.80078,-1.05434 0.80103,-1.39952 1.06787,-2.35489 1.33472,-3.63476 1.6018,-5.15691 3.47046,-11.63671 1.06763,-2.66596 0.80102,-1.40678 0.5337,-0.60087 0.53418,-0.30669 0.53369,4.4e-4 0.53418,0.31273 0.53369,0.62214 0.53393,0.92077 0.80103,1.89934 1.06787,3.35459 1.33472,5.12022 3.47046,13.99544 1.06762,3.43803 1.06787,2.66195 0.80103,1.39972 0.53393,0.62676 0.53394,0.37531 0.53394,0.12371 0.53393,-0.12379 0.53394,-0.36359 0.53369,-0.59291 0.80102,-1.29196 0.80103,-1.7328 1.06763,-2.90401 1.33471,-4.38518 1.8689,-7.01357 2.93652,-11.05903 1.06787,-3.32421 1.06787,-2.5949 0.5337,-0.95762 v 0"
           style="fill:none;stroke:#008000;stroke-width:0.5;stroke-linecap:square;stroke-linejoin:round;stroke-miterlimit:10;stroke-dasharray:none;stroke-opacity:1"
           id="path1098"
           inkscape:connector-curvature="0" /></g></g><g
       id="g1100"><g
         id="g1102"
         clip-path="url(#clipPath1106)"><path
           d="m 65.883789,227.97815 12.813965,-0.0479 8.809326,0.24146 5.072266,-0.055 18.420164,-0.49464 24.56006,0.17184 8.54272,-0.16968 19.75489,-0.75783 3.4707,0.1191 9.34351,0.60753 4.00415,-0.001 3.73755,0.0278 2.40258,0.24834 2.1355,0.43987 1.8689,0.60449 2.13574,0.95579 5.6062,2.73707 1.60156,0.48975 1.33472,0.18956 1.06787,-0.0399 1.06787,-0.22926 1.33496,-0.53707 1.60157,-0.93826 2.13574,-1.57402 4.00439,-3.03535 1.33472,-0.74697 1.33496,-0.4911 1.06787,-0.17274 1.06763,0.0314 1.33472,0.30391 1.33471,0.54803 1.60205,0.89435 3.20337,1.8932 1.06787,0.34832 0.80103,0.0683 0.80054,-0.1282 0.80102,-0.33664 0.80078,-0.5405 1.06787,-0.99968 1.60205,-1.90097 2.1355,-2.54358 1.06787,-0.89602 0.80078,-0.36848 0.53394,-0.0664 0.53369,0.0952 0.53418,0.26907 0.53369,0.45193 0.80103,1.0298 0.80102,1.44507 1.06763,2.50648 1.33472,3.80639 2.66967,7.78399 1.06788,2.3387 0.80102,1.23029 0.53369,0.53373 0.53418,0.29151 0.53369,0.0455 0.53394,-0.19778 0.53394,-0.43205 0.80102,-1.05334 0.80078,-1.47364 1.06787,-2.45411 4.0044,-9.92323 1.06787,-1.85317 0.80054,-1.0411 0.80102,-0.74742 0.80103,-0.47503 0.80078,-0.23097 0.80078,-0.0169 1.06787,0.25912 1.06787,0.51442 1.60181,1.05996 1.86865,1.2031 1.06787,0.40485 0.80103,0.0773 0.80053,-0.14755 0.80103,-0.37572 1.06787,-0.81934 1.33472,-1.39368 4.53833,-5.09729 1.33471,-1.12586 1.06787,-0.65595 0.80103,-0.2943 0.80078,-0.0766 0.80078,0.18788 0.80103,0.49725 0.80078,0.84406 0.80102,1.21364 0.80054,1.58325 1.06787,2.63274 1.60181,4.73848 2.66943,8.07415 1.33521,3.24412 1.06763,1.97399 0.80102,1.07571 0.80078,0.71266 0.80078,0.34106 0.53418,0.0186 0.53369,-0.14833 0.80103,-0.53109 0.80078,-0.88807 0.80078,-1.22211 1.06787,-2.10151 1.06788,-2.58555 1.33496,-3.84005 1.60156,-5.34313 3.20337,-10.99557 1.06787,-2.78907 0.80102,-1.52295 0.53394,-0.70022 0.53393,-0.43059 0.53394,-0.15295 0.53369,0.12691 0.53418,0.40374 0.53369,0.67289 0.80103,1.48663 0.80078,2.00647 1.06787,3.34405 1.60156,5.92124 2.13574,7.86574 1.06788,3.12243 0.80102,1.71558 0.53394,0.78181 0.53369,0.46197 0.53418,0.12458 0.53369,-0.22139 0.53418,-0.56586 0.53369,-0.89805 0.80103,-1.91641 1.06762,-3.41961 1.60205,-6.16663 1.86841,-7.02926 1.06787,-3.24676 0.80103,-1.90279 0.80078,-1.40308 0.80102,-0.89306 0.5337,-0.31418 v 0"
           style="fill:none;stroke:#008000;stroke-width:0.5;stroke-linecap:square;stroke-linejoin:round;stroke-miterlimit:10;stroke-dasharray:none;stroke-opacity:1"
           id="path1108"
           inkscape:connector-curvature="0" /></g></g><g
       id="g1110"><g
         id="g1112"
         clip-path="url(#clipPath1116)"><path
           d="m 65.883789,245.14073 10.411377,0.003 16.55127,-0.085 30.967044,-0.0366 7.47485,-0.0648 10.14453,0.0387 5.60596,-0.2905 10.41137,-0.59869 3.73755,0.0563 4.0044,0.28588 7.7417,0.5956 9.3435,0.45881 2.13575,0.41204 2.13574,0.65385 2.1355,0.8977 6.40698,2.93622 1.33496,0.29275 1.33472,0.0642 1.33471,-0.19677 1.33472,-0.46844 1.33496,-0.72799 1.60181,-1.16945 1.86865,-1.66245 5.60596,-5.19621 1.33496,-0.87525 1.06787,-0.48965 1.06787,-0.27101 1.06787,-0.0399 1.06787,0.18295 1.33472,0.49134 2.1355,1.1088 1.60205,0.75248 1.06763,0.3096 1.06787,0.0857 1.06787,-0.16317 1.06787,-0.39701 1.60156,-0.89408 1.86865,-1.03258 1.06787,-0.30523 0.80103,0.0143 0.80102,0.2736 0.80054,0.56146 0.80103,0.85828 1.06787,1.58173 1.33471,2.5438 4.27124,8.73511 1.06788,1.51785 1.06811,1.08443 0.80054,0.52609 0.80102,0.29212 0.80078,0.0772 0.80103,-0.11557 1.06787,-0.41607 1.06787,-0.67556 1.33472,-1.16595 1.33472,-1.50009 1.33471,-1.82278 1.60181,-2.5635 5.33911,-9.03311 1.33472,-1.71285 1.33496,-1.32934 1.06787,-0.74901 1.06787,-0.4462 0.80054,-0.13076 0.80102,0.0409 1.06788,0.30183 1.06787,0.53566 4.00439,2.3415 1.06787,0.2017 1.06763,-0.0862 1.06787,-0.32843 3.20361,-1.22171 0.80078,-0.033 0.80103,0.18036 0.80054,0.42136 0.80102,0.67181 1.06787,1.27057 1.06787,1.64839 1.33496,2.4699 2.1355,4.49404 3.73731,7.90662 1.33471,2.26378 1.06812,1.3349 0.80078,0.63978 0.80078,0.28303 0.53418,-0.0239 0.53369,-0.20017 0.53418,-0.37867 0.80054,-0.90139 0.80103,-1.29021 1.06787,-2.2811 1.06787,-2.83417 1.6018,-4.99393 3.73731,-12.13512 1.06763,-2.77836 1.06787,-2.17318 0.80102,-1.16523 0.80078,-0.73864 0.53394,-0.25392 0.53393,-0.0686 0.53394,0.10745 0.80078,0.4634 0.80103,0.78009 1.06787,1.43663 1.33472,2.25722 1.86865,3.67941 5.6062,11.44937 1.06763,1.496 0.80102,0.78039 0.80103,0.43297 0.53369,0.0779 0.53393,-0.0981 0.53394,-0.27586 0.80078,-0.73903 0.80103,-1.09871 1.06787,-1.9172 3.73754,-7.45545 0.5337,-0.71555 v 0"
           style="fill:none;stroke:#008000;stroke-width:0.5;stroke-linecap:square;stroke-linejoin:round;stroke-miterlimit:10;stroke-dasharray:none;stroke-opacity:1"
           id="path1118"
           inkscape:connector-curvature="0" /></g></g><g
       id="g1120"><g
         id="g1122"
         clip-path="url(#clipPath1126)"><path
           d="m 65.883789,261.97103 5.605957,-0.0464 5.873291,0.21268 8.542481,0.29375 8.008544,0.0672 8.009038,-0.21393 6.13989,-0.15016 22.42432,-0.10683 8.00903,0.0461 15.48364,-0.3177 7.20776,-0.18984 6.14014,0.0453 13.61475,0.38069 3.7373,0.13024 2.40283,0.31862 2.13575,0.53134 2.13549,0.7974 2.66944,1.27591 2.93676,1.37037 1.60181,0.53987 1.33472,0.26144 1.33471,0.0522 1.33472,-0.18056 1.33496,-0.42159 1.33472,-0.6526 1.60156,-1.04935 1.8689,-1.50691 6.13989,-5.25879 1.33472,-0.701 1.06787,-0.31822 1.06787,-0.0763 1.06812,0.1653 1.06787,0.37924 1.60156,0.84756 2.66968,1.47971 1.06787,0.35829 1.06787,0.11561 1.06763,-0.16466 1.06787,-0.44418 1.33471,-0.87521 3.20362,-2.31411 0.80078,-0.28261 0.80102,-0.0445 0.80078,0.23448 0.80079,0.53536 0.80102,0.83616 1.06787,1.53956 1.33472,2.43928 3.73755,7.22011 1.06762,1.5253 1.06788,1.12486 0.80102,0.5645 0.80054,0.32366 0.80102,0.0878 0.80103,-0.13836 0.80078,-0.35036 1.06787,-0.76361 1.06787,-1.04525 1.60157,-1.90763 2.40283,-2.87136 1.06787,-0.97847 1.06787,-0.67977 1.06763,-0.3705 1.06787,-0.11729 3.47046,-0.0901 1.06787,-0.35685 1.06787,-0.5794 1.60181,-1.14821 2.40258,-1.71183 1.33472,-0.69559 1.60181,-0.56598 2.40258,-0.55035 4.0044,-0.7127 1.60156,-0.0124 1.8689,0.25493 2.40234,0.31878 2.40283,0.26678 1.06787,0.40407 0.80079,0.53043 0.80078,0.75499 1.06787,1.34274 1.60181,2.51108 1.86889,2.88322 0.80054,0.90849 0.80102,0.56285 0.53394,0.14427 0.53394,-0.0571 0.53393,-0.26233 0.53394,-0.46135 0.80078,-1.02798 1.06787,-1.85578 2.13574,-4.42953 1.86865,-3.7071 1.33472,-2.24899 1.06787,-1.39172 0.80103,-0.67976 0.53369,-0.22363 0.53393,-0.004 0.53394,0.24199 0.53393,0.50978 0.53394,0.79084 0.80078,1.71706 0.80103,2.31589 1.06787,3.84145 3.47021,13.39506 0.80103,2.091 0.80102,1.40214 0.53369,0.52532 0.53394,0.197 0.53394,-0.119 0.53393,-0.41255 0.53394,-0.67536 0.80078,-1.42426 1.06787,-2.45142 2.66968,-7.07032 1.86889,-4.55385 1.33472,-2.7661 1.33472,-2.26074 1.06787,-1.40066 1.06763,-1.02236 0.80102,-0.51942 0.26685,-0.12655 v 0"
           style="fill:none;stroke:#008000;stroke-width:0.5;stroke-linecap:square;stroke-linejoin:round;stroke-miterlimit:10;stroke-dasharray:none;stroke-opacity:1"
           id="path1128"
           inkscape:connector-curvature="0" /></g></g><g
       id="g1130"><g
         id="g1132"
         clip-path="url(#clipPath1136)"><path
           d="m 65.883789,278.98725 4.538086,0.19732 11.479248,0.64933 8.80957,0.29746 5.873047,-0.0678 9.07666,-0.38935 10.14429,-0.35419 5.87329,0.0609 10.14453,0.14817 7.20776,0.0264 4.27124,0.27204 10.41138,0.79195 3.20361,-0.10713 4.0044,-0.38232 6.67383,-0.6818 4.53833,-0.18098 4.00439,-0.20551 2.1355,-0.33173 1.8689,-0.50505 1.86865,-0.73069 2.13574,-1.0777 6.40698,-3.44879 1.33472,-0.36955 1.33472,-0.11581 1.06811,0.1158 1.06738,0.31169 1.06812,0.50967 1.33472,0.90288 1.33471,1.16904 1.60205,1.69002 2.93628,3.52323 2.1355,2.40646 1.33496,1.2106 1.06787,0.7343 1.06787,0.49448 1.06787,0.24527 1.06788,0.002 1.06787,-0.21897 1.33471,-0.51905 4.27124,-1.92985 1.06788,-0.15428 1.06762,0.0685 1.06787,0.28163 1.60206,0.70751 2.13549,0.98951 1.06787,0.26011 0.80103,0.004 0.80054,-0.19914 0.80102,-0.42576 0.80078,-0.66313 1.06787,-1.24827 1.06787,-1.62857 1.33472,-2.45603 4.80542,-9.3587 1.06787,-1.44284 0.80078,-0.80165 0.80078,-0.54147 0.80103,-0.27612 0.80078,-0.0152 0.80103,0.23355 0.80053,0.46236 1.06812,0.92739 1.33472,1.55477 1.86889,2.62224 5.07202,7.35336 1.60181,1.91715 1.33472,1.25159 1.06787,0.70888 1.06763,0.42963 1.06787,0.1672 1.06787,-0.0481 1.6018,-0.33172 3.47046,-0.83775 1.60181,-0.11346 1.60156,0.13948 1.60205,0.35929 2.40259,0.803 3.47022,1.20966 1.06787,0.12336 0.80102,-0.0888 0.80078,-0.28663 0.80103,-0.51072 0.80054,-0.7459 1.06811,-1.34725 1.33472,-2.15934 4.53833,-7.98265 0.80078,-0.89195 0.80102,-0.58573 0.80079,-0.2423 0.53393,0.0426 0.53369,0.21261 0.53418,0.38654 0.80103,0.91068 0.80078,1.30738 0.80078,1.69114 1.06787,2.79152 1.60181,5.01385 2.40259,7.66198 1.06787,2.6811 0.80078,1.48142 0.80102,0.93841 0.5337,0.29833 0.53418,0.0277 0.53369,-0.24326 0.53393,-0.5083 0.80103,-1.23346 0.80078,-1.74647 1.06763,-2.99569 1.33496,-4.52016 4.53833,-16.25201 1.06787,-2.76204 0.80078,-1.53886 0.80078,-1.02494 0.53394,-0.38559 0.53418,-0.14719 0.53369,0.0856 0.53418,0.30889 0.53369,0.52011 0.80102,1.14616 0.80078,1.54104 1.06788,2.58043 1.33471,3.90024 2.13574,7.15271 2.1355,7.00464 1.33472,3.57042 0.80103,1.65235 0.80102,1.20466 0.53369,0.53046 0.53418,0.3013 0.53369,0.0674 0.53394,-0.16697 0.53393,-0.39718 0.80079,-1.0077 0.80102,-1.46019 0.26685,-0.57685 v 0"
           style="fill:none;stroke:#0000ff;stroke-width:0.5;stroke-linecap:square;stroke-linejoin:round;stroke-miterlimit:10;stroke-dasharray:none;stroke-opacity:1"
           id="path1138"
           inkscape:connector-curvature="0" /></g></g><g
       id="g1140"><g
         id="g1142"
         clip-path="url(#clipPath1146)"><path
           d="m 65.883789,296.50072 6.940674,-0.005 5.339111,-0.084 9.343506,-0.10268 9.610596,0.13235 14.415774,0.0525 27.22973,-0.37162 10.41138,-0.43829 6.14014,-0.10469 7.74194,0.12603 4.53809,0.35901 3.73754,0.18867 7.7417,0.20732 2.40259,0.33371 1.86865,0.47448 1.8689,0.71593 2.40234,1.204 4.27149,2.23781 1.60181,0.59673 1.33471,0.30542 1.33472,0.0761 1.06787,-0.13862 1.06787,-0.33609 1.06763,-0.53832 1.3352,-0.94105 1.60157,-1.4498 2.13549,-2.27903 4.27149,-4.6689 1.33496,-1.08525 1.06787,-0.58595 0.80054,-0.24018 0.80102,-0.0559 0.80078,0.12858 1.06788,0.43474 1.33471,0.86772 3.73755,2.72112 1.06787,0.41736 0.80103,0.11833 0.80054,-0.067 0.80102,-0.25573 1.06787,-0.60978 1.33472,-1.07608 2.1355,-1.77054 0.80102,-0.42852 0.80078,-0.18585 0.80103,0.11139 0.80102,0.44087 0.80054,0.77684 0.80103,1.09262 1.06787,1.8643 1.86865,3.88259 1.8689,3.76927 1.33471,2.17462 1.06787,1.32493 1.06763,0.95455 1.06787,0.61572 1.06787,0.30551 0.80103,0.0319 0.80078,-0.14243 0.80078,-0.3283 0.80078,-0.52601 1.06787,-1.01949 1.06787,-1.37443 1.33472,-2.13122 3.4707,-5.90338 1.06787,-1.31094 1.06763,-0.91534 1.06787,-0.5641 1.33472,-0.38797 2.66968,-0.4539 1.33471,-0.0536 1.06788,0.17756 1.06787,0.41685 1.60156,0.93178 1.60181,0.84945 0.80102,0.21791 0.80103,0.0174 0.80053,-0.19426 1.06787,-0.54893 1.60181,-1.16996 1.60181,-1.06975 1.06763,-0.4031 0.80102,-0.0759 0.80103,0.12407 1.06762,0.43092 4.53833,2.30903 1.60181,0.64155 1.06787,0.71883 0.80103,0.78702 1.06762,1.39073 1.86866,2.97402 1.06787,1.54499 0.80078,0.83089 0.53418,0.32718 0.53369,0.11379 0.53418,-0.11487 0.53369,-0.34616 0.53394,-0.56728 0.80102,-1.21564 1.06787,-2.12757 2.40259,-5.57557 4.27124,-9.70954 1.33472,-2.58985 0.80102,-1.10322 0.53394,-0.44357 0.53369,-0.15214 0.53418,0.18212 0.53369,0.54839 0.53418,0.93201 0.53369,1.31516 0.80103,2.64217 1.06762,4.52007 3.20362,14.73838 1.06787,3.50971 0.80078,1.90789 0.80078,1.31809 0.80103,0.80763 0.80078,0.39364 0.80102,0.0678 0.80054,-0.19719 0.80102,-0.43899 0.80103,-0.69096 0.80078,-0.97178 0.80103,-1.28367 1.06787,-2.22796 1.06787,-2.80095 1.33472,-4.15415 4.00439,-13.10194 1.06787,-2.48446 0.80078,-1.30331 0.53394,-0.56862 0.53393,-0.31764 0.5337,-0.0654 0.53417,0.18114 0.5337,0.4154 v 0"
           style="fill:none;stroke:#008000;stroke-width:0.5;stroke-linecap:square;stroke-linejoin:round;stroke-miterlimit:10;stroke-dasharray:none;stroke-opacity:1"
           id="path1148"
           inkscape:connector-curvature="0" /></g></g><g
       id="g1150"><g
         id="g1152"
         clip-path="url(#clipPath1156)"><path
           d="m 65.883789,313.55179 41.111331,0.14217 11.74609,0.26966 18.9541,0.57816 4.0044,-0.13759 4.27124,-0.38115 7.47485,-0.72831 3.4707,-0.0557 8.27564,0.0604 1.86865,-0.2952 1.86865,-0.5275 1.86866,-0.77071 2.40258,-1.27666 3.73755,-2.0257 1.33472,-0.48438 1.33472,-0.2336 1.06787,0.0374 1.06787,0.26194 1.06811,0.49716 1.06787,0.73011 1.33472,1.21573 1.60156,1.82576 2.40284,3.17126 2.40258,3.08169 1.33472,1.38149 1.06763,0.82037 1.06787,0.50853 0.80102,0.1552 0.80078,-0.0459 0.80103,-0.24463 1.06787,-0.6155 1.06787,-0.90135 1.33472,-1.42196 4.00439,-4.51842 1.06787,-0.82854 1.06763,-0.53671 0.80103,-0.19583 1.06787,0.007 1.06787,0.27102 1.33472,0.58993 2.40258,1.13459 1.06763,0.27087 1.06787,0.01 0.80103,-0.18921 1.06787,-0.52083 1.06763,-0.8056 1.33471,-1.33028 2.13575,-2.55011 2.40283,-2.80943 1.33471,-1.23427 1.06787,-0.70477 0.80079,-0.32429 0.80078,-0.12513 0.80102,0.0912 0.80078,0.31902 0.80103,0.55163 0.80102,0.78091 1.06763,1.37547 1.33472,2.17627 1.86889,3.60461 3.20337,6.26829 1.33472,2.15734 1.06787,1.38457 1.06787,1.01099 0.80103,0.47873 0.80078,0.21837 0.80078,-0.0524 0.80078,-0.32282 0.80103,-0.57979 1.06787,-1.12294 1.33472,-1.81348 3.20337,-4.56636 1.06787,-1.08277 0.80102,-0.56549 0.80078,-0.34023 0.80103,-0.12093 0.80078,0.0775 1.06763,0.35491 1.33496,0.71024 2.93652,1.66307 1.06787,0.34328 0.80078,0.0833 0.80103,-0.0997 0.80078,-0.30821 0.80078,-0.53579 0.80103,-0.77424 1.06762,-1.4034 1.06787,-1.79884 1.33497,-2.69707 4.00415,-8.51272 0.80102,-1.19144 0.80103,-0.83626 0.53369,-0.32831 0.53393,-0.12715 0.53394,0.0851 0.53393,0.30434 0.53418,0.52618 0.80054,1.19979 0.80103,1.66789 1.06787,2.86637 1.33471,4.37034 4.27124,14.8011 1.06788,2.69763 0.80078,1.535 0.80102,1.06733 0.53369,0.43794 0.53418,0.21425 0.53369,-0.01 0.53418,-0.23073 0.53394,-0.44522 0.80078,-1.04774 0.80078,-1.4613 1.06787,-2.48502 1.33472,-3.71669 3.73755,-10.8013 1.06787,-2.38005 1.06787,-1.79821 0.80078,-0.91083 0.80103,-0.50702 0.53369,-0.10697 0.53418,0.0789 0.53369,0.26255 0.80103,0.72643 0.80078,1.09811 1.06787,1.96228 1.33471,3.03848 3.47046,8.27186 1.06788,1.86153 0.80078,1.01282 0.80102,0.64682 0.53369,0.2211 0.53418,0.0537 0.53369,-0.10927 0.80103,-0.45317 0.80078,-0.76974 1.06787,-1.44707 1.33472,-2.33287 1.86889,-3.86138 3.20337,-6.71317 1.33472,-2.26652 1.06787,-1.39297 0.80103,-0.7488 0.80078,-0.47036 0.80102,-0.18049 0.80079,0.11016 0.80078,0.39131 v 0"
           style="fill:none;stroke:#0000ff;stroke-width:0.5;stroke-linecap:square;stroke-linejoin:round;stroke-miterlimit:10;stroke-dasharray:none;stroke-opacity:1"
           id="path1158"
           inkscape:connector-curvature="0" /></g></g><g
       id="g1160"><g
         id="g1162"
         clip-path="url(#clipPath1166)"><path
           d="m 65.883789,330.44655 10.144287,0.0278 15.216553,0.26886 4.53833,-0.0483 15.750491,0.0211 10.14453,0.11086 5.33911,-0.0458 5.07226,-0.25858 14.14893,-0.86332 5.60596,0.012 4.27124,0.22536 5.87329,0.57995 4.27124,0.32422 3.7373,0.0451 5.33912,0.0296 2.40283,0.24479 2.13574,0.43955 1.86841,0.60504 2.13598,0.92478 5.87281,2.74415 1.33471,0.27996 1.06787,0.0326 1.06788,-0.15907 1.06811,-0.35668 1.33472,-0.70995 1.33471,-0.9643 1.86866,-1.65013 4.27124,-3.92999 1.33471,-0.9344 1.33472,-0.65521 1.06787,-0.28397 1.06812,-0.0557 1.06787,0.16663 1.33471,0.48037 1.60157,0.85191 2.66968,1.48196 1.06787,0.38123 1.06787,0.14518 0.80078,-0.0814 0.80078,-0.26161 1.06812,-0.6345 1.06787,-0.93301 1.60156,-1.78232 1.86865,-2.10776 1.06787,-0.88374 0.80103,-0.37791 0.80053,-0.0659 0.53418,0.15249 0.5337,0.32052 0.80102,0.80494 0.80078,1.1895 1.06787,2.13472 1.33472,3.35901 3.73755,10.07019 1.06787,2.05437 0.80103,1.08068 0.80053,0.63225 0.53418,0.15912 0.53369,-0.0531 0.53418,-0.26189 0.53369,-0.46226 0.80103,-1.03978 0.80078,-1.40108 1.06787,-2.29878 4.53809,-10.44681 0.80102,-1.17122 0.80103,-0.8026 0.80078,-0.4133 0.53394,-0.0614 0.53393,0.10042 0.80078,0.42199 0.80079,0.68683 1.33471,1.50329 2.13599,2.45176 1.06787,0.91287 1.06787,0.58852 0.80054,0.20619 0.80102,-0.004 0.80103,-0.21894 0.80078,-0.43531 0.80078,-0.64863 1.06787,-1.17774 1.33496,-1.90111 1.86841,-3.15616 2.13599,-3.54845 1.06762,-1.41 0.80078,-0.77873 0.80103,-0.48074 0.53394,-0.13432 0.53393,0.0245 0.53394,0.18759 0.80078,0.58635 0.80078,0.93688 0.80102,1.25539 1.06788,2.09379 1.33471,3.12863 2.40235,6.38266 2.13598,5.51297 1.06787,2.28732 0.80078,1.35862 0.80079,0.96734 0.53418,0.39364 0.53369,0.17287 0.53393,-0.0609 0.53394,-0.30343 0.53393,-0.55004 0.80079,-1.28301 0.80078,-1.80414 1.06787,-3.1079 1.33471,-4.68977 2.93677,-10.71555 1.06763,-3.12255 0.80102,-1.85309 0.80103,-1.36812 0.53369,-0.62102 0.53394,-0.37639 0.53393,-0.12387 0.53394,0.13448 0.53393,0.39627 0.53394,0.65863 0.80102,1.47232 0.80054,2.02606 1.06787,3.45974 1.33496,5.21635 2.93653,11.89658 1.06787,3.35164 0.80078,1.88944 0.80102,1.2773 0.53394,0.49377 0.53369,0.20402 0.53418,-0.0829 0.53369,-0.36256 0.53418,-0.63091 0.80054,-1.41579 0.80103,-1.92004 1.06787,-3.20255 1.6018,-5.69779 2.66944,-9.58955 1.06787,-3.05834 0.80078,-1.7798 0.80102,-1.26198 0.5337,-0.53256 0.53417,-0.27938 0.5337,-0.0276 0.53418,0.21683 0.53369,0.44847 0.80102,1.06634 0.80078,1.46717 1.06788,2.41616 4.53833,11.02495 0.80078,1.36408 v 0"
           style="fill:none;stroke:#008000;stroke-width:0.5;stroke-linecap:square;stroke-linejoin:round;stroke-miterlimit:10;stroke-dasharray:none;stroke-opacity:1"
           id="path1168"
           inkscape:connector-curvature="0" /></g></g><g
       id="g1170"><g
         id="g1172"
         clip-path="url(#clipPath1176)"><path
           d="m 65.883789,347.81645 3.203369,0.002 4.271485,0.003 5.339111,0.0266 4.538086,-0.0375 2.936523,0.28779 2.669678,0.22957 2.135742,-0.047 13.347657,-0.72344 2.93677,0.0402 5.6062,0.13337 11.74609,-0.036 10.14453,-0.28783 3.73731,-0.22284 8.00879,-0.22808 3.47021,-0.23585 8.80957,-0.18752 2.66968,0.22208 9.34351,1.05196 5.33935,0.0934 3.20337,0.15848 2.13574,0.3417 1.60181,0.46093 1.60156,0.68903 1.8689,1.08611 5.33911,3.36928 1.33472,0.52102 1.06811,0.22554 1.06738,0.0152 1.06812,-0.21899 1.06787,-0.46082 1.06787,-0.69875 1.33472,-1.18874 1.33471,-1.49729 1.86866,-2.47996 5.33911,-7.43392 1.06787,-1.03304 1.06787,-0.68996 0.80103,-0.25767 0.80078,-0.0227 0.80078,0.20744 0.80102,0.41925 1.06763,0.84009 1.33472,1.38759 3.73755,4.2014 1.06787,0.7565 0.80102,0.30568 0.80079,0.0498 0.80078,-0.21325 0.80102,-0.46075 1.06763,-0.92562 2.93677,-2.86039 0.80078,-0.37701 0.53393,-0.0608 0.53394,0.11391 0.53369,0.30061 0.53418,0.49268 0.80102,1.09471 0.80054,1.49201 1.06787,2.50343 1.60181,4.44002 2.13574,5.92397 1.06787,2.44245 1.06787,1.85258 0.80078,0.93096 0.53394,0.38625 0.53394,0.19499 0.53369,0.005 0.53418,-0.1811 0.53369,-0.35991 0.80102,-0.85501 0.80078,-1.20068 1.06788,-2.06453 1.33471,-3.1468 3.73755,-9.25161 1.06787,-1.86238 0.80078,-1.00329 0.80079,-0.6663 0.80102,-0.36766 0.80078,-0.13698 1.33472,0.0452 1.60205,0.0209 1.06763,-0.20011 1.33496,-0.49119 2.66943,-1.05654 1.06763,-0.16922 1.06787,0.055 1.06787,0.27032 1.60181,0.68898 2.66968,1.20488 1.86865,0.52134 2.66967,0.70903 3.47022,1.09004 2.93677,0.68841 1.06787,0.58244 0.80078,0.67768 0.80102,0.91742 1.06788,1.59883 1.33471,2.48269 2.1355,4.08998 0.80103,1.11978 0.53369,0.4994 0.53418,0.25712 0.53369,-0.0137 0.53418,-0.3017 0.53369,-0.59404 0.53394,-0.87767 0.80102,-1.80003 1.06787,-3.12104 1.86841,-6.49003 1.8689,-6.36816 1.33471,-3.77346 0.80078,-1.76575 0.80103,-1.28206 0.53369,-0.5387 0.53418,-0.25272 0.53369,0.0599 0.53418,0.39532 0.53394,0.74711 0.53369,1.10606 0.80102,2.31816 0.80103,3.03718 1.33472,6.22417 2.40258,11.61415 0.80079,3.00853 0.80102,2.24666 0.53369,1.02205 0.53418,0.62569 0.53369,0.23118 0.53394,-0.14951 0.53394,-0.50652 0.53393,-0.83214 0.80103,-1.776 1.06787,-3.12566 1.8684,-6.48717 1.60181,-5.32395 1.06787,-2.92186 1.06787,-2.24272 0.80103,-1.21562 0.80054,-0.83492 0.80102,-0.49031 0.80078,-0.19241 0.80103,0.0536 1.06787,0.36513 1.06787,0.60533 1.33472,1.00209 1.33471,1.28767 1.06788,1.31188 0.80078,1.1822 v 0"
           style="fill:none;stroke:#008000;stroke-width:0.5;stroke-linecap:square;stroke-linejoin:round;stroke-miterlimit:10;stroke-dasharray:none;stroke-opacity:1"
           id="path1178"
           inkscape:connector-curvature="0" /></g></g><g
       id="g1180"><g
         id="g1182"
         clip-path="url(#clipPath1186)"><path
           d="m 65.883789,364.97853 17.886231,-0.0999 11.211914,-0.12592 10.144526,0.20499 8.80982,0.18548 8.54248,0.0471 6.40698,0.0162 4.0044,0.13251 7.7417,0.56036 8.80981,0.68311 3.47046,0.0521 2.93652,-0.16316 3.20337,-0.41475 7.20801,-1.07798 4.00415,-0.24411 4.80542,-0.25864 1.86865,-0.33938 1.60156,-0.51161 1.60206,-0.75846 1.60156,-1.00628 2.13598,-1.64068 4.27124,-3.37865 1.33472,-0.77074 1.06787,-0.4179 1.06787,-0.19396 1.06763,0.0677 1.06787,0.35545 1.06787,0.654 1.06787,0.94876 1.06787,1.22856 1.33472,1.88902 1.60181,2.67801 5.07226,8.89367 1.06787,1.36274 1.06763,1.02137 0.80103,0.5202 0.80078,0.30474 0.80078,0.0954 0.80102,-0.0997 1.06788,-0.40061 1.06787,-0.64844 1.86865,-1.47955 1.86841,-1.45024 1.06787,-0.60536 1.06787,-0.34936 1.06812,-0.0699 1.06787,0.17564 3.47021,0.90294 0.80103,-0.0714 0.80078,-0.2844 0.80078,-0.53346 0.80102,-0.80873 0.80079,-1.09859 1.06787,-1.91685 1.06787,-2.39985 1.33471,-3.55322 4.80542,-13.50103 1.06788,-2.0451 0.80053,-1.07557 0.80103,-0.62696 0.53393,-0.15339 0.53394,0.0624 0.53393,0.27611 0.53394,0.48308 0.80078,1.08665 0.80103,1.4697 1.06787,2.42565 1.86865,4.94967 2.40259,6.32147 1.60156,3.65715 1.60181,3.14617 1.6018,2.63951 1.33496,1.75499 1.06763,1.07352 1.06787,0.79245 1.33472,0.70604 7.47485,3.24828 1.06788,0.0935 1.06787,-0.16892 1.06762,-0.46318 1.06787,-0.75396 1.33497,-1.28343 1.86865,-2.19691 2.1355,-2.86873 1.60205,-2.51235 1.60156,-2.92579 5.33935,-10.33087 1.06787,-1.42485 0.80054,-0.74884 0.80103,-0.43829 0.80102,-0.11892 0.80078,0.18968 0.80079,0.47712 0.80078,0.74638 0.80102,1.01333 0.80103,1.29953 1.06787,2.23828 1.06763,2.87897 1.33471,4.45349 3.47046,12.43651 0.80103,2.0212 0.80078,1.41155 0.53393,0.57137 0.53394,0.26981 0.53394,-0.0252 0.53393,-0.30523 0.53369,-0.56422 0.80103,-1.27838 0.80102,-1.72147 1.06763,-2.84643 1.60205,-5.09047 3.47021,-11.47456 1.06788,-2.71169 0.80102,-1.51585 0.80054,-0.97371 0.53418,-0.31654 0.53369,-0.0391 0.53418,0.23813 0.53369,0.50592 0.80103,1.21852 0.80078,1.68439 1.33471,3.51527 4.0044,11.26194 1.33472,2.98078 1.06787,1.87844 0.80102,1.04426 0.80078,0.68893 0.53394,0.24974 0.53393,0.0794 0.53418,-0.088 0.80054,-0.42837 0.80103,-0.74513 1.06787,-1.39157 1.33471,-2.2039 1.60181,-3.10974 0.26685,-0.55737 v 0"
           style="fill:none;stroke:#0000ff;stroke-width:0.5;stroke-linecap:square;stroke-linejoin:round;stroke-miterlimit:10;stroke-dasharray:none;stroke-opacity:1"
           id="path1188"
           inkscape:connector-curvature="0" /></g></g><g
       id="g1190"><g
         id="g1192"
         clip-path="url(#clipPath1196)"><path
           d="m 65.883789,382.436 10.144287,-0.20382 17.352295,-0.31143 7.207759,-0.13887 10.41138,-0.007 7.20801,0.0675 5.60596,0.34856 26.42895,1.84893 4.0044,0.0662 3.47021,-0.19771 4.27173,-0.48649 5.33911,-0.8237 2.1355,-0.53763 1.86889,-0.70015 1.60157,-0.82328 1.6018,-1.04886 1.86866,-1.50376 2.40283,-2.27527 3.47021,-3.32602 1.60205,-1.20963 1.33472,-0.71483 1.06763,-0.33866 1.06787,-0.11087 1.06787,0.13264 1.06787,0.38479 1.06787,0.63606 1.06787,0.88048 1.33472,1.427 1.33496,1.75654 1.60156,2.46186 5.60596,9.07338 1.33496,1.55118 1.06787,0.95558 1.06787,0.71546 1.33472,0.61942 4.00439,1.57148 1.06788,0.7589 1.33471,1.26473 3.73755,3.888 0.80054,0.35585 0.53418,0.0363 0.53369,-0.15112 0.53394,-0.35696 0.53418,-0.57602 0.80053,-1.28814 0.80103,-1.79056 1.06787,-3.09567 1.33472,-4.72757 3.4707,-12.79323 1.06763,-2.94862 0.80078,-1.70997 0.80102,-1.27275 0.80078,-0.8698 0.80103,-0.52789 0.80102,-0.26535 1.06763,-0.0992 2.40259,-0.0919 1.06787,-0.27324 1.33472,-0.60954 3.47046,-1.89594 0.80078,-0.13969 0.80102,0.11123 0.80103,0.42602 0.80078,0.79214 0.80078,1.19291 0.80078,1.61012 1.06787,2.78292 1.06787,3.4258 1.60181,5.94665 2.66944,9.95268 1.06787,3.22359 1.06787,2.49225 0.80102,1.33904 0.80078,0.891 0.80103,0.4854 0.80054,0.14969 0.80102,-0.0983 1.33472,-0.46194 1.86889,-0.65873 1.06763,-0.15526 1.06787,0.0452 1.60181,0.34263 1.8689,0.40501 1.06787,-0.0328 0.80053,-0.25632 0.80103,-0.51378 0.80102,-0.81525 0.80079,-1.14863 0.80078,-1.50103 1.06787,-2.56114 1.06763,-3.17227 1.33496,-4.66395 3.20361,-11.69688 1.06787,-2.88902 0.80078,-1.50438 0.53394,-0.64071 0.53393,-0.33634 0.53394,-0.0302 0.53393,0.26935 0.5337,0.55534 0.80102,1.32255 0.80103,1.82508 1.06762,3.02099 4.00415,12.23373 0.80103,1.67806 0.80102,1.18791 0.53394,0.49428 0.53394,0.24863 0.53393,0.005 0.53369,-0.22681 0.53418,-0.43973 0.80054,-1.00029 1.06787,-1.79523 2.66968,-4.82072 0.80102,-0.99279 0.80079,-0.59148 0.53393,-0.13963 0.53369,0.075 0.53418,0.28962 0.53369,0.4954 0.80103,1.08735 1.06787,1.93164 2.40259,4.67924 0.80078,1.11787 0.80102,0.70904 0.53394,0.22416 0.53393,0.0261 0.53394,-0.15976 0.80078,-0.53684 1.06763,-1.0817 1.60205,-1.66548 0.80078,-0.50977 0.53394,-0.13051 0.53393,0.067 0.53369,0.27788 0.53418,0.49064 0.80054,1.10874 1.06811,2.02174 2.40259,4.976 0.80103,1.16131 0.53369,0.50902 0.53418,0.2661 0.53369,0.009 0.53394,-0.25017 0.53393,-0.50235 0.80078,-1.1899 0.80103,-1.64005 1.06787,-2.70706 5.07226,-13.88854 0.5337,-1.19035 v 0"
           style="fill:none;stroke:#0000ff;stroke-width:0.5;stroke-linecap:square;stroke-linejoin:round;stroke-miterlimit:10;stroke-dasharray:none;stroke-opacity:1"
           id="path1198"
           inkscape:connector-curvature="0" /></g></g><g
       id="g1200"><g
         id="g1202"
         clip-path="url(#clipPath1206)"><path
           d="m 65.883789,399.20626 3.470215,-0.14901 4.805176,-0.25594 3.203857,0.14028 4.27124,0.17411 5.872803,0.18539 4.271484,0.11752 5.339112,-0.17724 9.877444,-0.2449 4.80542,0.0673 3.20361,-0.0587 5.60596,-0.22396 7.20776,0.23309 5.6062,-0.39437 8.80982,-0.81563 3.47021,-0.13212 2.66968,0.11376 7.47485,0.50565 4.0044,0.30279 4.53833,0.32493 7.47461,0.46572 2.40258,0.36642 1.8689,0.48616 1.86865,0.73019 1.8689,0.99941 2.40234,1.59209 3.20362,2.12311 1.33471,0.64218 1.33496,0.39525 1.06788,0.11138 1.06787,-0.0861 1.06762,-0.29516 1.06787,-0.51023 1.33472,-0.93313 1.33472,-1.22863 1.6018,-1.77951 6.14014,-7.25476 1.33472,-1.05314 1.06787,-0.55137 1.06787,-0.2671 1.06787,0.003 1.06763,0.22201 1.60205,0.58801 2.66943,1.01377 1.06787,0.17453 1.06763,-0.0735 1.06787,-0.35949 1.06787,-0.63327 1.60181,-1.2961 1.60156,-1.28302 0.80103,-0.44345 0.80102,-0.20522 0.80079,0.10135 0.53393,0.26441 0.80078,0.71804 0.80103,1.11492 0.80078,1.49797 1.06762,2.51332 1.60206,4.48473 2.13549,5.98462 1.06787,2.44045 0.80103,1.4392 0.80078,1.05624 0.80078,0.6564 0.53394,0.21757 0.53393,0.049 0.53394,-0.10945 0.80102,-0.4331 0.80054,-0.71156 1.06787,-1.29093 1.33496,-1.99597 2.66944,-4.54074 1.86889,-3.00334 1.33472,-1.71748 1.06787,-0.99338 1.06763,-0.629 1.06787,-0.31284 1.33496,-0.10865 2.66944,-0.12066 1.60204,-0.31611 3.73707,-0.8515 2.13574,-0.13982 1.86889,-0.19253 1.06763,-0.3221 1.06787,-0.54106 1.33472,-0.94506 2.40283,-1.79769 1.06787,-0.47343 0.80078,-0.10197 0.80078,0.16235 0.80103,0.45544 0.80078,0.76424 0.80103,1.07488 1.06787,1.89315 1.06787,2.35455 1.60156,4.1549 3.47022,9.32937 1.06811,2.16896 0.80078,1.13548 0.53394,0.4576 0.53393,0.17929 0.53394,-0.12866 0.53393,-0.46111 0.53394,-0.81125 0.53369,-1.17063 0.80103,-2.4254 0.80102,-3.17996 1.06763,-5.21416 2.13574,-12.05116 1.33472,-7.00343 1.06787,-4.43637 0.80103,-2.37066 0.53393,-1.06072 0.53369,-0.62487 0.53418,-0.18604 0.53369,0.24388 0.53418,0.6541 0.53369,1.03523 0.80103,2.18571 1.06763,3.8665 1.33496,5.84318 3.47021,15.74472 1.06812,3.80556 0.80078,2.27105 0.80078,1.70298 0.80103,1.10196 0.53369,0.39807 0.53418,0.13627 0.53369,-0.11201 0.53393,-0.34084 0.80103,-0.88476 0.80078,-1.24079 1.33496,-2.53995 2.1355,-4.12501 1.06787,-1.672 1.06787,-1.30547 1.06787,-0.97043 1.33472,-0.88634 3.20337,-1.94202 4.27148,-3.06208 0.80078,-0.25806 0.80103,-0.055 0.80054,0.1635 0.80102,0.37664 1.06787,0.7887 1.33496,1.31688 1.60157,1.83895 v 0"
           style="fill:none;stroke:#008000;stroke-width:0.5;stroke-linecap:square;stroke-linejoin:round;stroke-miterlimit:10;stroke-dasharray:none;stroke-opacity:1"
           id="path1208"
           inkscape:connector-curvature="0" /></g></g><g
       id="g1210"><g
         id="g1212"
         clip-path="url(#clipPath1216)"><path
           d="m 65.883789,416.26446 21.623291,0.23445 36.03955,-0.53463 6.14014,-0.0541 6.40698,-0.2666 13.08081,-0.61659 3.47046,0.20141 4.27148,0.50528 5.07227,0.56685 3.7373,0.19538 3.73731,-0.0213 3.7373,0.0106 1.8689,0.22619 1.86865,0.45991 1.8689,0.72348 2.1355,1.11374 5.6062,3.18809 1.33471,0.43563 1.06763,0.16385 1.06787,-0.0331 1.06787,-0.25359 1.06787,-0.48419 1.06788,-0.71164 1.33496,-1.18835 1.60156,-1.79837 2.40283,-3.14778 2.40259,-3.10209 1.33472,-1.43916 1.06787,-0.90339 1.06762,-0.63 1.06788,-0.32259 0.80102,-0.0282 0.80078,0.15531 1.06787,0.47603 1.06787,0.74459 1.33472,1.21069 3.20361,3.06134 1.06763,0.65316 0.80103,0.25922 0.80102,0.0343 0.80054,-0.1961 0.80102,-0.41259 1.06788,-0.82869 2.13549,-2.10264 1.06788,-0.91474 0.80102,-0.46383 0.80078,-0.18728 0.53394,0.0605 0.53393,0.22548 0.80103,0.66658 0.80053,1.06717 0.80103,1.45057 1.06787,2.45415 1.60181,4.44469 2.40259,6.80558 1.06787,2.42704 0.80078,1.3905 0.80102,0.95286 0.53369,0.37245 0.53418,0.15511 0.5337,-0.0631 0.53418,-0.2777 0.53369,-0.48406 0.80102,-1.08516 0.80078,-1.46507 1.06787,-2.41966 1.8689,-4.93094 1.86841,-4.80269 1.06787,-2.28319 1.06787,-1.77979 0.80078,-0.96643 0.80103,-0.64815 0.80078,-0.35003 0.80078,-0.0904 0.80103,0.11825 1.06787,0.38312 3.47021,1.48121 1.06812,0.12846 1.06787,-0.13591 1.06787,-0.40334 1.33472,-0.81496 4.80493,-3.3703 1.06787,-0.36348 1.06787,-0.12567 1.06812,0.12941 1.06787,0.38722 1.06762,0.63096 1.33496,1.09416 1.33472,1.39045 1.60181,2.02022 1.60156,2.38977 2.13574,3.65087 3.20337,5.54888 1.33496,1.88073 1.06787,1.11792 0.80078,0.53844 0.80079,0.23529 0.53418,-0.0279 0.53369,-0.1841 0.80102,-0.57789 0.80078,-0.94005 0.80079,-1.28719 1.06787,-2.2045 1.33496,-3.3971 2.1355,-6.29371 2.13574,-6.10391 1.06787,-2.43988 0.80078,-1.36063 0.53394,-0.62774 0.53393,-0.37461 0.53394,-0.10192 0.53393,0.18355 0.53394,0.47368 0.53393,0.75922 0.80079,1.63978 0.80078,2.15716 1.33471,4.36782 2.13599,7.19634 1.06787,2.80848 0.80054,1.49091 0.53418,0.65425 0.53369,0.36763 0.53393,0.0778 0.53394,-0.20757 0.53393,-0.48139 0.53394,-0.73737 0.80078,-1.53391 1.06787,-2.68915 1.60181,-4.85096 2.13574,-6.46705 1.06787,-2.66635 1.06787,-2.0469 0.80078,-1.0581 0.80079,-0.61217 0.53393,-0.1497 0.53394,0.061 0.53393,0.2721 0.53394,0.48074 0.80078,1.09954 0.80102,1.52404 1.06788,2.60617 1.33471,3.95677 4.27124,13.43661 1.06787,2.48763 1.06788,1.87153 0.80078,0.98173 v 0"
           style="fill:none;stroke:#008000;stroke-width:0.5;stroke-linecap:square;stroke-linejoin:round;stroke-miterlimit:10;stroke-dasharray:none;stroke-opacity:1"
           id="path1218"
           inkscape:connector-curvature="0" /></g></g><g
       id="g1220"><g
         id="g1222"
         clip-path="url(#clipPath1226)"><path
           d="m 65.883789,433.4562 9.343506,-0.0997 8.008545,0.15464 9.343506,-0.29637 4.53833,0.28269 3.737554,0.15006 3.20336,-0.10477 5.07227,-0.20156 11.2124,-0.0455 7.20777,-0.2824 6.94091,-0.18512 12.01319,-0.42808 4.80517,0.10846 3.73731,0.31084 8.00903,0.77511 3.20337,0.0594 7.20801,-0.0554 1.86841,0.32728 1.86865,0.5745 1.86889,0.81717 2.1355,1.1801 4.53833,2.60804 1.33496,0.45773 1.06787,0.15833 1.06788,-0.0603 1.06787,-0.29612 1.06762,-0.5341 1.06787,-0.76081 1.33472,-1.23572 1.60156,-1.81614 2.66968,-3.45558 2.40259,-3.02418 1.33496,-1.39545 1.06787,-0.8593 1.06787,-0.5665 0.80078,-0.20468 0.80079,-0.002 0.80102,0.20464 0.80078,0.40401 1.06787,0.81429 1.33472,1.34764 3.20361,3.46243 1.06787,0.79573 0.80079,0.36641 0.80102,0.13373 0.80054,-0.11693 0.80102,-0.36961 0.80103,-0.60533 1.06763,-1.10398 2.93676,-3.35395 0.80079,-0.51063 0.53393,-0.13805 0.53394,0.0535 0.53393,0.26393 0.53394,0.48582 0.80078,1.15018 0.80078,1.63232 1.06787,2.81183 1.60181,5.05384 1.86889,5.84595 1.06787,2.68538 0.80054,1.50632 0.80103,0.99873 0.53393,0.36942 0.53394,0.13276 0.53393,-0.0958 0.53369,-0.31044 0.80103,-0.82527 0.80103,-1.18529 1.06762,-1.98592 2.40259,-5.16796 1.8689,-3.79872 1.33471,-2.30743 1.33472,-1.86825 1.06787,-1.1396 1.06763,-0.81734 1.06787,-0.52729 1.33496,-0.36882 2.93652,-0.66478 1.60181,-0.65767 2.40259,-1.02377 1.06763,-0.24986 1.06787,-0.0486 1.06787,0.14985 1.6018,0.49008 2.40259,0.75838 1.06787,0.11754 1.06788,-0.0763 1.6018,-0.37223 1.60156,-0.34301 1.06787,0.005 0.80103,0.20011 0.80078,0.39803 0.80103,0.60776 1.06787,1.13567 1.06787,1.48647 1.33472,2.29631 1.60156,3.2731 4.27148,9.15 1.06787,1.55934 0.80078,0.73148 0.53394,0.2303 0.53369,-0.003 0.53418,-0.25648 0.53369,-0.52481 0.53418,-0.80186 0.80078,-1.72227 0.80079,-2.31323 1.06787,-3.86403 1.6018,-6.83926 2.13575,-8.99629 1.06762,-3.53221 0.80103,-1.93562 0.53369,-0.88687 0.53418,-0.53525 0.53369,-0.16774 0.53418,0.20713 0.53369,0.58054 0.53394,0.9434 0.80102,2.05011 0.80078,2.71692 1.06788,4.4042 3.47045,15.09646 0.80103,2.44982 0.80054,1.72314 0.53418,0.70384 0.53369,0.33586 0.53418,-0.0288 0.53369,-0.37798 0.53393,-0.70052 0.80103,-1.5734 1.06787,-2.82629 4.00415,-11.69823 1.06812,-2.24898 1.06787,-1.78293 1.33471,-1.73385 1.60157,-1.63833 1.6018,-1.30672 1.06787,-0.61308 0.80103,-0.23589 0.80054,0.0341 0.53418,0.2083 0.53369,0.37904 0.80102,0.92014 0.80078,1.36469 0.80103,1.80427 1.06787,3.0157 1.60156,5.43741 2.93653,10.22407 v 0"
           style="fill:none;stroke:#008000;stroke-width:0.5;stroke-linecap:square;stroke-linejoin:round;stroke-miterlimit:10;stroke-dasharray:none;stroke-opacity:1"
           id="path1228"
           inkscape:connector-curvature="0" /></g></g><g
       id="g1230"><g
         id="g1232"
         clip-path="url(#clipPath1236)"><path
           d="m 65.883789,450.70258 8.80957,0.0305 16.284424,-0.26583 13.347657,-0.14759 8.54297,0.13766 18.68677,0.56897 12.01342,0.54943 6.94092,0.27779 3.47046,-0.084 3.20337,-0.29224 3.47046,-0.54234 8.54248,-1.46828 3.4707,-0.25437 5.07227,-0.3326 1.86841,-0.34588 1.86889,-0.58549 1.60181,-0.72617 1.86865,-1.09844 2.93652,-2.05009 2.1355,-1.40228 1.33496,-0.66672 1.06787,-0.34484 1.06788,-0.13057 1.06787,0.12119 1.06787,0.40203 1.06762,0.70098 1.06788,1.00521 1.06787,1.30087 1.33471,2.0061 1.60181,2.86267 2.66943,5.35676 2.13575,4.1089 1.33496,2.14734 1.06787,1.35651 1.06787,0.97032 0.80054,0.45248 0.80102,0.21095 0.80103,-0.0256 0.80078,-0.24795 1.06787,-0.63608 1.06787,-0.91557 1.86841,-1.98857 2.13599,-2.25813 1.33471,-1.10125 1.06787,-0.63189 1.06788,-0.41608 1.60156,-0.34463 1.86865,-0.38662 1.06787,-0.45198 0.80103,-0.53967 0.80078,-0.75663 0.80078,-1.00275 1.06811,-1.74673 1.06787,-2.21393 1.33472,-3.35561 1.86865,-5.46071 2.93628,-8.6317 1.06787,-2.54816 1.06787,-1.95383 0.80103,-0.98506 0.53394,-0.39976 0.53369,-0.18133 0.53418,0.0443 0.53369,0.2733 0.53418,0.50175 0.80078,1.16953 0.80078,1.63885 1.06787,2.82166 1.33496,4.30446 5.33911,18.39403 1.33472,3.48199 1.33472,2.8185 1.06787,1.79398 1.06763,1.41633 1.06787,1.07655 1.06787,0.77906 1.06787,0.52694 1.33496,0.37726 1.60156,0.16658 2.13575,-0.0329 2.13549,-0.23137 1.33496,-0.34833 1.06788,-0.47931 1.06787,-0.71286 1.06787,-0.97739 1.06787,-1.24983 1.33471,-1.927 1.60157,-2.785 1.86865,-3.78559 2.13574,-4.89408 2.66968,-6.75399 2.66943,-6.63714 1.33496,-2.68652 1.06787,-1.58725 0.80079,-0.7844 0.80078,-0.39674 0.53418,-0.0378 0.53369,0.14797 0.53418,0.33489 0.80078,0.84988 0.80078,1.25446 0.80078,1.63416 1.06787,2.70258 1.33472,4.03353 4.27149,13.5368 1.06762,2.41968 0.80103,1.35056 0.80102,0.92133 0.80078,0.49165 0.53394,0.1001 0.53393,-0.0679 0.80103,-0.38062 0.80054,-0.65557 1.06787,-1.1722 3.20361,-3.82976 1.06763,-0.83128 0.80102,-0.34085 0.80103,-0.0597 0.80078,0.24044 0.80103,0.54322 0.80053,0.83129 1.06787,1.49795 1.33496,2.31331 2.40259,4.25577 0.80103,1.07457 0.80054,0.73737 0.53417,0.26164 0.5337,0.0529 0.53418,-0.17229 0.53369,-0.40898 0.53393,-0.6519 0.80103,-1.43326 0.80102,-1.95856 1.06739,-3.33892 1.3352,-5.06393 3.47022,-14.07708 v 0"
           style="fill:none;stroke:#0000ff;stroke-width:0.5;stroke-linecap:square;stroke-linejoin:round;stroke-miterlimit:10;stroke-dasharray:none;stroke-opacity:1"
           id="path1238"
           inkscape:connector-curvature="0" /></g></g><g
       id="g1240"><g
         id="g1242"
         clip-path="url(#clipPath1246)"><path
           d="m 65.883789,467.53803 9.610352,0.16737 9.877441,0.0705 8.008789,-0.17142 9.076659,-0.1123 12.81397,-0.15242 16.81835,-0.5541 12.81397,-0.53366 3.7373,0.13084 3.73731,0.36098 9.61084,1.12928 3.7373,0.0638 4.80518,0.0601 2.13574,0.26898 1.86865,0.48393 1.60181,0.64596 1.60181,0.86846 2.13574,1.43765 4.00439,2.80972 1.33472,0.68712 1.33472,0.42265 1.06762,0.0942 1.06788,-0.15931 1.06787,-0.43602 1.06787,-0.72351 1.06787,-1.00795 1.33472,-1.63201 1.33496,-1.98537 1.86865,-3.19375 3.47046,-6.02566 1.33471,-1.82519 1.06788,-1.07104 0.80078,-0.53017 0.80102,-0.27665 0.80078,-0.0182 0.80079,0.2334 0.80102,0.46775 1.06787,0.94196 1.33472,1.5713 4.53833,5.86455 1.06787,0.84419 0.80078,0.38578 0.80078,0.1663 0.80103,-0.0385 1.06787,-0.30744 3.47021,-1.37814 0.80103,-0.0228 0.80103,0.19033 0.80078,0.42751 0.80078,0.67492 1.06787,1.27814 1.06762,1.67317 1.33497,2.53641 4.53833,9.18465 1.06787,1.43797 0.80078,0.71419 0.80102,0.35439 0.53369,0.0211 0.53418,-0.15754 0.5337,-0.33804 0.80102,-0.84024 0.80078,-1.21791 1.06787,-2.13273 1.33472,-3.25575 3.73755,-9.51323 1.60156,-3.24033 1.60205,-2.68949 1.60157,-2.27701 1.33471,-1.55757 1.06787,-0.93324 0.80079,-0.46477 0.80102,-0.23212 0.80102,0.018 0.80054,0.2734 0.80103,0.52139 1.06787,1.04706 1.06763,1.38326 1.60205,2.49822 3.47021,5.62023 1.33472,1.72717 1.06787,1.04594 0.80103,0.53827 0.80078,0.29526 0.80102,0.0329 0.80103,-0.23328 0.80053,-0.48141 1.06787,-0.94871 2.93653,-2.87824 0.80102,-0.38481 0.5337,-0.0726 0.53417,0.095 0.5337,0.27332 0.80102,0.75161 0.80078,1.14486 1.06787,2.044 1.60157,3.71677 1.60205,3.62051 1.06787,1.87493 0.80078,0.96229 0.53393,0.39581 0.53394,0.18686 0.53369,-0.0272 0.53418,-0.24247 0.53369,-0.45578 0.80103,-1.07371 0.80078,-1.52134 1.06787,-2.67113 1.06787,-3.31297 1.60156,-5.83017 2.40284,-8.86014 1.06787,-3.02253 0.80102,-1.57733 0.53369,-0.66787 0.53394,-0.34601 0.53394,-0.0264 0.53393,0.27817 0.53394,0.55644 0.80078,1.27806 1.06787,2.31037 4.53833,10.87267 1.06763,1.78421 0.80102,1.01457 0.80103,0.70538 0.80078,0.37399 0.53393,0.0601 0.80078,-0.18781 0.80103,-0.49334 1.06787,-1.03306 3.47022,-3.87131 0.80102,-0.48486 0.80103,-0.21924 0.80053,0.0484 0.80103,0.29152 1.06787,0.69262 1.33472,1.19584 1.86865,2.00654 2.93652,3.53886 2.93677,3.45805 2.40259,2.48725 1.86865,1.66797 0.26685,0.19916 v 0"
           style="fill:none;stroke:#008000;stroke-width:0.5;stroke-linecap:square;stroke-linejoin:round;stroke-miterlimit:10;stroke-dasharray:none;stroke-opacity:1"
           id="path1248"
           inkscape:connector-curvature="0" /></g></g><g
       id="g1250"><g
         id="g1252"
         clip-path="url(#clipPath1256)"><path
           d="m 65.883789,484.78278 24.826904,0.0704 20.021727,0.45024 9.61084,0.28734 4.27124,-0.10666 4.0044,-0.31595 11.21215,-1.07837 3.20337,0.0958 5.87329,0.25168 1.86866,-0.16232 1.86865,-0.38959 1.86865,-0.64647 1.86865,-0.88339 5.33936,-2.71141 1.33496,-0.31643 1.06763,-0.0386 1.06787,0.18151 1.06787,0.41559 1.06787,0.65023 1.33472,1.12314 1.33471,1.42227 1.86866,2.35703 4.27148,5.57597 1.33472,1.30985 1.06762,0.75725 1.06788,0.45393 0.80102,0.12672 0.80078,-0.0604 0.80103,-0.24463 1.06787,-0.59755 1.06787,-0.87494 1.33472,-1.40452 2.40258,-2.97159 1.86866,-2.17582 1.33471,-1.21684 1.06787,-0.69941 1.06788,-0.45245 1.33496,-0.2798 4.27124,-0.53275 1.06787,-0.45367 1.06787,-0.65947 1.33472,-1.08509 2.66967,-2.59233 1.60157,-1.37018 1.06787,-0.65479 1.06787,-0.37467 0.80078,-0.0758 0.80102,0.10615 0.80103,0.28579 1.06763,0.64615 1.06787,0.921 1.33472,1.47782 1.60156,2.13187 2.93677,4.37713 3.47046,5.02037 2.40258,3.10069 1.60156,1.73088 1.06788,0.89181 1.06787,0.60336 0.80102,0.22955 0.80078,0.0229 0.80103,-0.18544 0.80102,-0.38287 1.06763,-0.77652 1.33472,-1.28209 5.07226,-5.22569 1.86866,-1.44613 5.07226,-3.68956 1.60181,-1.58098 1.86865,-2.20814 5.87305,-7.39703 1.06787,-0.90028 1.06763,-0.59174 0.80102,-0.19867 0.80103,0.043 0.80078,0.31018 0.80078,0.59803 0.80102,0.89981 0.80079,1.20648 1.06787,2.07316 1.06787,2.55552 1.60156,4.52345 4.00439,11.81525 1.06788,2.46901 1.06787,1.93785 0.80078,1.06313 0.80102,0.71234 0.80103,0.35929 0.53369,0.0468 0.80103,-0.2079 0.80078,-0.52281 0.80078,-0.81126 1.06811,-1.47663 1.33472,-2.36577 1.60156,-3.38652 2.66968,-6.31041 2.66943,-6.18035 1.33496,-2.60063 1.06788,-1.63141 0.80053,-0.87812 0.80103,-0.53037 0.53418,-0.14326 0.53369,0.0323 0.53394,0.20971 0.80102,0.64101 0.80078,1.00797 1.06763,1.83113 1.33496,2.84187 3.20361,7.14791 1.06787,1.85715 1.06788,1.37953 0.80053,0.67967 0.80103,0.36035 0.80078,0.0413 0.80102,-0.26572 0.80103,-0.54989 0.80054,-0.8021 1.06787,-1.39356 1.33496,-2.11536 5.33911,-8.97224 1.33472,-1.65701 1.06787,-0.9971 0.80102,-0.51728 0.80078,-0.29145 0.80079,-0.0414 0.80102,0.22953 0.80078,0.51575 0.80103,0.80888 0.80054,1.09802 1.06787,1.88235 1.33496,2.90565 4.80517,11.25639 1.06787,1.67543 0.80079,0.89578 0.80102,0.56369 0.26685,0.11276 v 0"
           style="fill:none;stroke:#0000ff;stroke-width:0.5;stroke-linecap:square;stroke-linejoin:round;stroke-miterlimit:10;stroke-dasharray:none;stroke-opacity:1"
           id="path1258"
           inkscape:connector-curvature="0" /></g></g><g
       id="g1260"><g
         id="g1262"
         clip-path="url(#clipPath1266)"><path
           d="m 65.883789,501.91021 26.161865,0.0995 10.411376,0.4394 6.13989,0.50178 11.21216,1.00079 3.20362,-0.0269 2.93652,-0.25505 3.47046,-0.54453 6.67407,-1.10238 3.20337,-0.26802 5.07226,-0.37079 1.8689,-0.37311 1.60156,-0.52882 1.60181,-0.77056 1.60156,-1.03759 1.60181,-1.29541 2.40259,-2.28682 2.66943,-2.53326 1.33496,-1.00085 1.06787,-0.56287 1.06787,-0.29106 0.80103,-0.0129 0.80054,0.17804 0.80102,0.37665 0.80103,0.5772 1.06762,1.07458 1.06787,1.40129 1.33472,2.15271 1.60181,3.03411 5.07226,10.05227 1.33472,1.93381 1.06787,1.12962 0.80103,0.5765 0.80053,0.33797 0.80103,0.10422 0.80103,-0.11531 0.80078,-0.31214 1.06787,-0.66944 1.33471,-1.11788 2.93653,-2.59928 1.06787,-0.6686 1.06787,-0.39942 1.06787,-0.11045 1.06787,0.14157 3.47022,0.76387 0.80102,-0.15535 0.80103,-0.40882 0.80078,-0.69813 0.80078,-1.00254 1.06787,-1.79492 1.06763,-2.24542 1.86889,-4.58934 2.13575,-5.20581 1.33471,-2.67056 1.06763,-1.64717 1.06787,-1.17957 0.80103,-0.59073 0.80078,-0.36425 0.80102,-0.16815 1.06787,0.0245 1.06788,0.24247 1.33471,0.52027 1.86866,1.00229 1.86889,1.25076 1.60156,1.30646 1.33497,1.3378 1.33471,1.65788 1.33472,2.04246 1.60181,2.93577 4.27124,8.26246 1.06787,1.52889 1.06787,1.16146 1.06787,0.80678 1.06787,0.5215 1.86865,0.57329 1.60156,0.5757 1.33472,0.76361 1.33496,1.06424 1.86865,1.83183 1.86866,1.79738 1.06787,0.77603 0.80102,0.36853 0.80078,0.13164 0.80103,-0.14632 0.80078,-0.45448 0.80078,-0.77866 0.80103,-1.10244 1.06787,-1.9406 1.33472,-3.05195 2.1355,-5.68731 2.13574,-5.51881 1.33496,-2.80331 1.06787,-1.68525 0.80054,-0.88196 0.80102,-0.53073 0.53394,-0.15498 0.53393,0.002 0.80103,0.28515 0.80078,0.59231 1.06787,1.17487 1.60156,2.22009 1.60181,2.10324 0.80078,0.7712 0.80103,0.48326 0.80078,0.1511 0.53418,-0.0908 0.80053,-0.40938 0.80103,-0.69188 1.33472,-1.55589 1.86865,-2.19341 0.80102,-0.65483 0.80103,-0.37249 0.80054,-0.0545 0.80102,0.2631 0.80078,0.54572 1.06787,1.05298 2.93677,3.15176 0.80078,0.52492 0.80078,0.27926 0.80079,0.027 0.80102,-0.20023 1.06787,-0.52401 2.1355,-1.18306 0.80102,-0.20663 0.80079,0.0482 0.80078,0.35493 0.80102,0.68458 0.80103,1.00586 1.06763,1.77021 1.6018,3.22752 2.1355,4.25632 1.06787,1.67334 0.80103,0.94741 0.80078,0.65172 0.80102,0.34438 0.80079,0.0377 0.80078,-0.25918 0.80102,-0.53968 0.80078,-0.79836 1.06787,-1.41929 1.33472,-2.228 2.40259,-4.6403 1.86889,-3.38417 1.06763,-1.56846 1.06787,-1.20238 1.06787,-0.80917 0.80103,-0.36046 1.06763,-0.20061 1.06787,0.0382 1.86889,0.35287 3.47022,0.67349 2.13574,0.47895 1.33472,0.52617 1.06787,0.62584 1.06811,0.84481 1.33472,1.38059 1.60156,2.07559 2.93653,4.16533 v 0"
           style="fill:none;stroke:#0000ff;stroke-width:0.5;stroke-linecap:square;stroke-linejoin:round;stroke-miterlimit:10;stroke-dasharray:none;stroke-opacity:1"
           id="path1268"
           inkscape:connector-curvature="0" /></g></g><g
       id="g1270"><path
         d="M 52.535877,54.640291 V 540.37468"
         style="fill:none;stroke:#000000;stroke-width:0.80000001;stroke-linecap:square;stroke-linejoin:miter;stroke-miterlimit:10;stroke-dasharray:none;stroke-opacity:1"
         id="path1272"
         inkscape:connector-curvature="0" /><path
         d="M 346.18968,54.640291 V 540.37468"
         style="fill:none;stroke:#000000;stroke-width:0.80000001;stroke-linecap:square;stroke-linejoin:miter;stroke-miterlimit:10;stroke-dasharray:none;stroke-opacity:1"
         id="path1274"
         inkscape:connector-curvature="0" /><path
         d="M 52.535889,54.640291 H 346.1897"
         style="fill:none;stroke:#000000;stroke-width:0.80000001;stroke-linecap:square;stroke-linejoin:miter;stroke-miterlimit:10;stroke-dasharray:none;stroke-opacity:1"
         id="path1276"
         inkscape:connector-curvature="0" /><path
         d="M 52.535889,540.37468 H 346.1897"
         style="fill:none;stroke:#000000;stroke-width:0.80000001;stroke-linecap:square;stroke-linejoin:miter;stroke-miterlimit:10;stroke-dasharray:none;stroke-opacity:1"
         id="path1278"
         inkscape:connector-curvature="0" /><g
         id="g1280"
         transform="translate(20.611647,587.6703)"><flowRoot
           xml:space="preserve"
           id="flowRoot1312"
           style="font-style:normal;font-weight:normal;font-size:40px;line-height:1.25;font-family:sans-serif;letter-spacing:0px;word-spacing:0px;fill:#000000;fill-opacity:1;stroke:none"
           transform="matrix(0.75000002,0,0,-0.75000002,-88.862781,20.125334)"><flowRegion
             id="flowRegion1314"><rect
               id="rect1316"
               width="453.64178"
               height="58.214481"
               x="139.28355"
               y="-44.415497" /></flowRegion><flowPara
             id="flowPara1318"
             style="font-size:24px">M<flowSpan
   style="font-size:64.99999762%;baseline-shift:sub"
   id="flowSpan1320">w</flowSpan> 7.1: 144km NE of Ndoi Island, Fiji</flowPara></flowRoot></g><g
         id="g1349"
         transform="translate(-16.027511,470.2437)"><path
           inkscape:connector-curvature="0"
           id="path1298"
           style="fill:#ffffff;fill-opacity:1;fill-rule:nonzero;stroke:#cccccc;stroke-width:1.39301097;stroke-linecap:butt;stroke-linejoin:miter;stroke-miterlimit:10;stroke-dasharray:none;stroke-opacity:0.8"
           d="M 58.479706,56.946264 H 190.73012 c 2.02429,0 3.03643,0.852094 3.03643,2.556271 v 36.227158 c 0,1.704179 -1.01214,2.556277 -3.03643,2.556277 H 58.479706 c -2.024283,0 -3.036423,-0.852098 -3.036423,-2.556277 V 59.502535 c 0,-1.704177 1.01214,-2.556271 3.036423,-2.556271 z" /><path
           inkscape:connector-curvature="0"
           id="path1300"
           style="fill:none;stroke:#0000ff;stroke-width:1.5;stroke-linecap:square;stroke-linejoin:round;stroke-miterlimit:10;stroke-dasharray:none;stroke-opacity:1"
           d="m 62.182705,84.850823 h 20" /><text
           y="-81.350822"
           x="91.682701"
           id="text1304"
           style="font-variant:normal;font-weight:normal;font-size:10px;font-family:'DejaVu Sans';-inkscape-font-specification:DejaVuSans;writing-mode:lr-tb;fill:#000000;fill-opacity:1;fill-rule:nonzero;stroke:none"
           transform="scale(1,-1)"><tspan
             style="font-size:14px"
             y="-81.350822"
             x="91.682701"
             id="tspan1302"
             sodipodi:role="line">Left-handed</tspan></text>
<path
           inkscape:connector-curvature="0"
           id="path1306"
           style="fill:none;stroke:#008000;stroke-width:1.5;stroke-linecap:square;stroke-linejoin:round;stroke-miterlimit:10;stroke-dasharray:none;stroke-opacity:1"
           d="m 62.182705,70.178943 h 20" /><text
           y="-65.17894"
           x="91.682701"
           id="text1310"
           style="font-variant:normal;font-weight:normal;font-size:10px;font-family:'DejaVu Sans';-inkscape-font-specification:DejaVuSans;writing-mode:lr-tb;fill:#000000;fill-opacity:1;fill-rule:nonzero;stroke:none"
           transform="scale(1,-1)"><tspan
             style="font-size:14px"
             y="-65.17894"
             x="91.682701"
             id="tspan1308"
             sodipodi:role="line">Right-handed</tspan></text>
</g><flowRoot
         xml:space="preserve"
         id="flowRoot1322"
         style="font-style:normal;font-weight:normal;font-size:40px;line-height:1.25;font-family:sans-serif;letter-spacing:0px;word-spacing:0px;fill:#000000;fill-opacity:1;stroke:none"
         transform="matrix(0.75000002,0,0,-0.75000002,-361.57665,678.56767)"><flowRegion
           id="flowRegion1324"><rect
             id="rect1326"
             width="541.61041"
             height="54.764744"
             x="484.68951"
             y="72.013474" /></flowRegion><flowPara
           id="flowPara1328"
           style="font-size:16px">2014-11-01 18:57:22 (UTC) | 19.690<flowSpan
   style="font-size:64.99999762%;baseline-shift:super"
   id="flowSpan1330">o</flowSpan>S 177.759<flowSpan
   style="font-size:64.99999762%;baseline-shift:super"
   id="flowSpan1332">o</flowSpan>W | 434 km depth </flowPara></flowRoot><flowRoot
         xml:space="preserve"
         id="flowRoot1334"
         style="font-style:normal;font-weight:normal;font-size:40px;line-height:1.25;font-family:sans-serif;letter-spacing:0px;word-spacing:0px;fill:#000000;fill-opacity:1;stroke:none"
         transform="matrix(0.75000002,0,0,-0.75000002,-34.027511,1068.7437)"><flowRegion
           id="flowRegion1336"><rect
             id="rect1338"
             width="211.85173"
             height="59.272915"
             x="87.845047"
             y="623.7771" /></flowRegion><flowPara
           id="flowPara1340"
           style="font-weight:bold;font-size:18.66666603px">Coordinate system:</flowPara></flowRoot><flowRoot
         xml:space="preserve"
         id="flowRoot1398"
         style="font-style:normal;font-weight:normal;font-size:40px;line-height:1.25;font-family:sans-serif;letter-spacing:0px;word-spacing:0px;fill:#000000;fill-opacity:1;stroke:none"
         transform="matrix(0.75000002,0,0,-0.75000002,9.1475242,576.91476)"><flowRegion
           id="flowRegion1400"><rect
             id="rect1402"
             width="219.45683"
             height="66.491241"
             x="266.49298"
             y="-12.936552" /></flowRegion><flowPara
           id="flowPara1404"
           style="font-size:24px">Filter: 0.01 - 1 Hz</flowPara></flowRoot></g><text
       transform="matrix(0.99997922,-0.00644687,-0.00644687,-0.99997922,0,0)"
       style="font-variant:normal;font-weight:normal;font-size:10px;font-family:'DejaVu Sans';-inkscape-font-specification:DejaVuSans;writing-mode:lr-tb;fill:#000000;fill-opacity:1;fill-rule:nonzero;stroke:none;stroke-width:0.99999994"
       id="text852-3"
       x="167.49947"
       y="-36.318119"><tspan
         sodipodi:role="line"
         id="tspan850-6"
         x="167.49947"
         y="-36.318119"
         style="font-size:14px;stroke-width:0.99999994">19:01:20</tspan></text>
<text
       transform="matrix(0.99997922,-0.00644687,-0.00644687,-0.99997922,0,0)"
       style="font-variant:normal;font-weight:normal;font-size:10px;font-family:'DejaVu Sans';-inkscape-font-specification:DejaVuSans;writing-mode:lr-tb;fill:#000000;fill-opacity:1;fill-rule:nonzero;stroke:none;stroke-width:0.99999994"
       id="text852-7"
       x="300.93143"
       y="-37.178356"><tspan
         sodipodi:role="line"
         id="tspan850-5"
         x="300.93143"
         y="-37.178356"
         style="font-size:14px;stroke-width:0.99999994">19:01:25</tspan></text>
</g></svg>