<?xml version="1.0" encoding="UTF-8" standalone="no"?>
<!-- Created with Inkscape (http://www.inkscape.org/) -->

<svg
   xmlns:dc="http://purl.org/dc/elements/1.1/"
   xmlns:cc="http://creativecommons.org/ns#"
   xmlns:rdf="http://www.w3.org/1999/02/22-rdf-syntax-ns#"
   xmlns:svg="http://www.w3.org/2000/svg"
   xmlns="http://www.w3.org/2000/svg"
   xmlns:sodipodi="http://sodipodi.sourceforge.net/DTD/sodipodi-0.dtd"
   xmlns:inkscape="http://www.inkscape.org/namespaces/inkscape"
   width="306.61978mm"
   height="239.07602mm"
   viewBox="0 0 306.61978 239.07603"
   version="1.1"
   id="svg8"
   inkscape:version="0.92.4 (unknown)"
   sodipodi:docname="mag_calc_example_2012sora451121.svg"
   inkscape:export-filename="/home/chet/figures/NZ/overview_figs/mag_calc_example_2012sora451121.png"
   inkscape:export-xdpi="150"
   inkscape:export-ydpi="150">
  <defs
     id="defs2">
    <marker
       inkscape:stockid="StopL"
       orient="auto"
       refY="0"
       refX="0"
       id="StopL"
       style="overflow:visible"
       inkscape:isstock="true">
      <path
         id="path1116"
         d="M 0,5.65 V -5.65"
         style="fill:none;fill-opacity:0.75;fill-rule:evenodd;stroke:#000000;stroke-width:1.00000003pt;stroke-opacity:1"
         transform="scale(0.8)"
         inkscape:connector-curvature="0" />
    </marker>
    <clipPath
       id="clipPath871"
       clipPathUnits="userSpaceOnUse">
      <path
         inkscape:connector-curvature="0"
         id="path869"
         d="M 36.91,27.88 H 388.02807 V 348.36 H 36.91 Z" />
    </clipPath>
    <clipPath
       id="clipPath881"
       clipPathUnits="userSpaceOnUse">
      <path
         inkscape:connector-curvature="0"
         id="path879"
         d="M 36.91,27.88 H 388.02807 V 348.36 H 36.91 Z" />
    </clipPath>
    <clipPath
       id="clipPath891"
       clipPathUnits="userSpaceOnUse">
      <path
         inkscape:connector-curvature="0"
         id="path889"
         d="M 425.77807,27.88 H 776.89613 V 348.36 H 425.77807 Z" />
    </clipPath>
    <clipPath
       id="clipPath901"
       clipPathUnits="userSpaceOnUse">
      <path
         inkscape:connector-curvature="0"
         id="path899"
         d="M 425.77807,27.88 H 776.89613 V 348.36 H 425.77807 Z" />
    </clipPath>
  </defs>
  <sodipodi:namedview
     id="base"
     pagecolor="#ffffff"
     bordercolor="#666666"
     borderopacity="1.0"
     inkscape:pageopacity="0.0"
     inkscape:pageshadow="2"
     inkscape:zoom="1.4"
     inkscape:cx="576.48457"
     inkscape:cy="489.01636"
     inkscape:document-units="mm"
     inkscape:current-layer="g861"
     showgrid="false"
     inkscape:window-width="3840"
     inkscape:window-height="2112"
     inkscape:window-x="3840"
     inkscape:window-y="48"
     inkscape:window-maximized="1"
     fit-margin-top="0"
     fit-margin-left="0"
     fit-margin-right="0"
     fit-margin-bottom="0"
     showguides="true"
     inkscape:guide-bbox="true">
    <sodipodi:guide
       position="20.229738,109.07366"
       orientation="1,0"
       id="guide927"
       inkscape:locked="false" />
    <sodipodi:guide
       position="136.83539,94.332587"
       orientation="1,0"
       id="guide929"
       inkscape:locked="false" />
    <sodipodi:guide
       position="157.52958,91.119789"
       orientation="1,0"
       id="guide931"
       inkscape:locked="false" />
    <sodipodi:guide
       position="274.04075,70.236602"
       orientation="1,0"
       id="guide933"
       inkscape:locked="false" />
    <sodipodi:guide
       position="88.076464,111.5305"
       orientation="0,1"
       id="guide935"
       inkscape:locked="false" />
    <sodipodi:guide
       position="84.958161,4.6577334"
       orientation="0,1"
       id="guide937"
       inkscape:locked="false" />
    <sodipodi:guide
       position="209.96577,234.15625"
       orientation="0,1"
       id="guide1589"
       inkscape:locked="false" />
  </sodipodi:namedview>
  <metadata
     id="metadata5">
    <rdf:RDF>
      <cc:Work
         rdf:about="">
        <dc:format>image/svg+xml</dc:format>
        <dc:type
           rdf:resource="http://purl.org/dc/dcmitype/StillImage" />
        <dc:title></dc:title>
      </cc:Work>
    </rdf:RDF>
  </metadata>
  <g
     inkscape:label="Layer 1"
     inkscape:groupmode="layer"
     id="layer1"
     transform="translate(28.145089,-35.487852)">
    <g
       transform="matrix(0.35277777,0,0,-0.35277777,-24.506831,282.72457)"
       inkscape:label="WPRZ_example_2012sora451121_mag_calc"
       id="g861">
      <rect
         style="color:#000000;display:inline;overflow:visible;visibility:visible;fill:#9fb7ff;fill-opacity:1;fill-rule:nonzero;stroke:#000000;stroke-width:0.75;stroke-linecap:butt;stroke-linejoin:miter;stroke-miterlimit:4;stroke-dasharray:none;stroke-dashoffset:0;stroke-opacity:1;marker:none;enable-background:accumulate"
         id="rect1675"
         width="275.2005"
         height="87.400131"
         x="568.95062"
         y="-276.4971"
         transform="scale(1,-1)"
         ry="2.8125076"
         inkscape:export-xdpi="150"
         inkscape:export-ydpi="150" />
      <g
         id="g1673"
         transform="translate(-17.678581)"
         inkscape:export-xdpi="150"
         inkscape:export-ydpi="150">
        <g
           transform="translate(-330.26788,-12.195322)"
           id="g885">
          <g
             id="g887"
             clip-path="url(#clipPath891)">
            <path
               d="m 523.44389,333.79273 -0.23313,-0.48558 0.24266,-0.48557 1.25929,-1.45673 -0.35686,-0.97115 0.27763,-0.48558 1.79737,-1.45673 0.40288,-0.48557 -1.21963,-0.97115 -0.4893,-0.48558 -1.98918,-0.97115 -0.39188,-0.48558 0.0535,-0.48557 0.5348,-0.97115 0.0545,-0.48558 0.89708,-0.48557 2.57705,-0.97116 1.00665,-0.48557 0.023,-0.48558 0.44502,-0.97115 -1.03179,-0.97115 -0.69318,-1.45673 0.34402,-0.48557 -1.69916,-1.45673 -0.47433,-0.48558 -0.50717,-0.97115 -0.31222,-0.48558 -1.46735,-0.97115 0.67018,-0.97115 -0.14248,-0.48557 0.0902,-0.48558 3.8838,-2.42788 0.25204,-0.48557 0.39034,-0.48558 0.24112,-0.48557 -0.62296,-0.97116 0.66717,-1.45672 -0.22976,-0.48558 -0.63887,-0.48558 -1.17714,-2.42787 -1.36524,-0.97116 -1.01492,-0.97115 -0.0826,-0.48557 -0.48774,-0.48558 0.12357,-0.48558 1.02754,-0.97115 2.19607,-0.97115 0.59768,-0.48557 0.18498,-0.48558 -0.23335,-0.48558 -0.50945,-0.48557 -0.27125,-0.48558 0.28772,-1.45672 -0.20572,-0.48558 -0.79638,-0.48558 -0.48291,-0.48557 0.25241,-0.48558 2.62995,-1.45672 -0.12987,-0.48558 -2.06364,-0.97115 -0.28942,-0.48558 0.0476,-0.48557 -0.50599,-0.48558 -0.97029,-0.48557 -0.71377,-0.48558 -0.25028,-0.48558 2.02788,-1.45672 0.42825,-0.97116 0.53274,-0.48557 0.0416,-0.48558 -0.41754,-1.45672 -0.01,-0.48558 -0.49186,-0.97115 0.41299,-1.9423 -0.55012,-0.48558 -2.07603,-0.97115 0.17568,-0.48558 2.84403,-0.48557 4.33989,-0.48558 2.03601,-0.48557 -1.10572,-0.48558 -0.73334,-0.48558 1.8324,-0.48557 -1.47584,-0.48558 -17.00506,-0.97115 4.09025,-0.48557 11.30576,-0.48558 3.62832,-0.48558 -9.48084,-0.48557 -1.33924,-0.48558 12.1489,-0.48557 1.52518,-0.48558 -28.63468,-0.97115 -0.0801,-0.48558 10.68347,-0.48557 4.89617,-0.48558 0.1858,-0.48557 2.145,-0.48558 5.44804,-0.48558 3.29967,-0.48557 -0.0407,-0.48558 -1.46067,-0.48557 -0.35744,-0.48558 -1.10895,-0.48557 -7.80741,-0.48558 -1.93532,-0.48558 7.41165,-0.48557 -2.66689,-0.48558 -6.45404,-0.48557 4.22212,-0.48558 0.79263,-0.48557 0.43762,-0.48558 -0.25784,-0.48558 -6.08553,-0.48557 6.1224,-0.48558 7.62929,-0.48557 0.61739,-0.48558 -3.67798,-0.48557 -11.09792,-0.48558 -0.37219,-0.48558 9.4845,-0.48557 2.6687,-0.48558 1.40801,-0.48557 0.34017,-0.48558 -2.44491,-0.48558 2.92171,-0.48557 -0.014,-0.48558 -10.51479,-0.48557 -7.746,-0.48558 4.30423,-0.48557 6.44002,-0.48558 2.17902,-0.48558 1.39633,-0.48557 1.95595,-0.48558 5.33283,-0.48557 -0.58607,-0.48558 -16.88733,-0.48557 -12.29992,-0.48558 8.46393,-0.48558 13.30669,-0.48557 2.1291,-0.48558 -5.86319,-0.48557 3.66596,-0.48558 9.36909,-0.48557 0.041,-0.48558 -2.55269,-0.48558 -6.0482,-0.48557 -12.38947,-0.48558 -8.60971,-0.48557 2.55631,-0.48558 12.28124,-0.48557 9.39291,-0.48558 1.91202,-0.48558 -0.3561,-0.48557 -1.81981,-0.48558 3.62236,-0.48557 -3.36635,-0.48558 -19.62044,-0.48558 -2.66546,-0.48557 11.12403,-0.48558 7.19578,-0.48557 9.94696,-0.48558 0.10187,-0.48557 -8.35466,-0.48558 -3.49278,-0.48558 4.59237,-0.97115 -0.45313,-0.48557 -7.86836,-0.48558 -4.58054,-0.48557 6.75024,-0.48558 1.41559,-0.48557 -7.80171,-0.48558 -13.16198,-0.48558 6.02669,-0.48557 18.99258,-0.48558 4.56183,-0.48557 1.23722,-0.48558 -1.91505,-0.48558 -16.92904,-0.97115 6.14558,-0.48557 13.08997,-0.48558 -1.59519,-0.48557 -4.96811,-0.48558 -2.88138,-0.48558 -1.48323,-0.48557 1.93193,-0.48558 -4.59824,-0.48557 -23.56484,-0.97116 -2.89724,-0.48557 6.67355,-0.48558 0.2368,-0.48557 11.17995,-0.48558 78.16366,-0.97115 18.26408,-0.48558 -3.77375,-0.48557 -23.4959,-0.48558 -112.34495,-1.45672 -7.19826,-0.48558 11.80525,-0.48557 26.52285,-0.48558 87.56168,-0.97115 30.06695,-0.48558 -1.91999,-0.48557 -35.76021,-0.48558 -105.2949,-0.97115 -27.97783,-0.48558 -6.31667,-0.48557 0.99499,-0.48558 4.91986,-0.48557 11.93993,-0.48558 68.68902,-0.97115 14.94934,-0.48558 0.85827,-0.48557 -7.69442,-0.48558 -2.11564,-0.48558 3.1122,-0.48557 2.38589,-0.48558 -5.78897,-0.48557 -10.55173,-0.48558 -7.23538,-0.48557 -11.13061,-0.48558 -33.66777,-0.97115 9.57622,-0.48558 89.04758,-0.97115 3.79755,-0.48557 -26.86504,-0.48558 -17.22014,-0.48557 20.47485,-0.48558 28.95897,-0.48558 -1.90805,-0.48557 -12.33758,-0.48558 -2.46733,-0.48557 -1.14477,-0.48558 -5.38158,-0.48558 -29.19888,-0.97115 -9.11252,-0.48557 -17.06934,-0.48558 -13.04533,-0.48557 -0.25306,-0.48558 29.95315,-1.45673 8.39552,-0.48557 12.04615,-0.48558 0.97525,-0.48558 -25.28935,-0.97115 -1.72324,-0.48557 13.45338,-0.97115 -1.26059,-0.48558 0.23823,-0.48558 9.51091,-0.48557 18.56329,-0.48558 12.26187,-0.48557 -5.17673,-0.48558 -9.71363,-0.48557 -13.96124,-0.48558 -47.91593,-0.97115 -15.00649,-0.48558 7.33508,-0.48557 22.78513,-0.48558 13.57071,-0.48557 2.09281,-0.48558 11.13314,-0.48558 22.76663,-0.48557 4.28141,-0.48558 -48.93756,-0.97115 -10.5121,-0.48557 -6.60939,-0.48558 -12.78176,-0.48558 -7.70061,-0.48557 10.24744,-0.48558 18.27984,-0.48557 11.66317,-0.48558 15.41684,-0.48558 51.36677,-0.97115 5.03515,-0.48557 -22.96665,-0.48558 -28.41749,-0.48557 -10.43434,-0.48558 -1.46884,-0.48558 -1.0638,-0.48557 6.32009,-0.48558 40.30926,-0.97115 5.08616,-0.48557 -11.21404,-0.48558 -7.05698,-0.48558 0.12236,-0.48557 0.30436,-0.48558 -6.61983,-0.97115 -4.52156,-0.48557 -7.30413,-0.48558 -10.77316,-0.48558 -13.74856,-0.48557 -4.29506,-0.48558 1.84207,-0.48557 2.37372,-0.48558 12.69667,-0.48557 17.59984,-0.48558 11.22777,-0.48558 -0.70159,-0.48557 -18.26377,-0.97115 -12.716,-0.48558 -31.9592,-0.97115 -5.61795,-0.48558 8.19877,-0.97115 -1.37619,-0.48557 0.42832,-0.48558 8.02803,-0.48558 19.46411,-0.97115 7.59044,-0.48557 11.81392,-0.48558 43.07328,-0.97115 6.90578,-0.48558 -11.30385,-0.48557 -37.93514,-0.97115 -7.09988,-0.48558 -3.23751,-0.48557 -7.89519,-0.48558 -35.35334,-0.97115 1.18572,-0.48558 18.73032,-0.48557 24.04159,-0.48558 17.36706,-0.48557 1.62999,-0.48558 -16.12879,-0.97115 -5.75922,-0.48558 -9.0307,-0.48557 -3.07042,-0.48558 14.72383,-0.97115 -2.10902,-0.48558 -9.04615,-0.48557 -1.53268,-0.48558 9.6532,-0.48557 12.91458,-0.48558 7.64641,-0.48558 -2.86606,-0.48557 -30.73831,-0.97115 -4.9617,-0.48558 7.04935,-0.48557 19.59466,-0.97116 18.10166,-0.97115 2.79602,-0.48557 -5.2286,-0.48558 -7.0766,-0.48557 -4.32678,-0.48558 1.29734,-0.48557 2.7594,-0.48558 -3.57286,-0.48558 -15.82463,-0.97115 -3.87845,-0.48557 4.9716,-0.48558 6.99867,-0.48558 4.39079,-0.48557 0.53416,-0.48558 -4.0212,-0.48557 -15.29721,-0.97115 -3.5317,-0.48558 2.12824,-0.48558 5.25054,-0.48557 7.08817,-0.97115 1.31643,-0.48558 -7.99963,-0.97115 -1.26241,-0.48558 1.24373,-0.48557 1.736,-0.48558 -1.91417,-0.48557 -3.65135,-0.48558 -2.40326,-0.48558 3.70486,-0.48557 25.57108,-1.45673 2.51027,-0.48557 -5.6094,-0.48558 -7.20097,-0.48557 -3.12796,-0.48558 1.37959,-0.48558 -0.57447,-0.48557 -9.25449,-1.45673 -2.52914,-0.48558 -1.88838,-0.48557 -2.45003,-0.48558 -1.30063,-0.48557 0.57718,-0.97115 0.42268,-0.48558 2.2627,-0.48558 1.12393,-0.48557 -0.22376,-0.48558 1.06296,-0.48557 2.88226,-0.48558 11.37775,-0.97115 4.12899,-0.48558 5.85213,-0.48557 15.11856,-0.971154 2.36112,-0.485575 -5.69349,-0.485576 -22.88787,-0.971152 -2.10988,-0.485575 1.85997,-0.485576 9.12026,-0.971152 4.8623,-0.485575 -0.91816,-0.485576 -32.75234,-1.456727 -6.62021,-0.485576 -0.72764,-0.485576 4.23039,-0.485576 10.49461,-0.485576 23.22018,-0.971151 8.21813,-0.485576 4.28748,-0.485576 -2.36319,-0.485575 -8.62782,-0.485576 -10.98409,-0.485576 -15.39572,-0.971151 -20.86737,-0.971152 -5.96298,-0.485576 -3.32189,-0.485575 0.59615,-0.485576 4.39543,-0.485576 8.13692,-0.485576 11.45698,-0.485575 8.27315,-0.485576 5.72455,-0.971152 4.67142,-0.485575 6.93549,-0.485576 16.27212,-0.971152 3.1481,-0.485575 0.31382,-0.485576 0.51288,-0.485576 -3.05753,-0.485576 -10.41968,-0.485575 -25.44414,-0.971152 -6.32694,-0.485576 -0.78084,-0.485576 5.62299,-0.971151 3.78305,-0.971152 3.1965,-0.485575 4.1344,-0.485576 2.33474,-0.485576 10.25761,-1.456727 1.42901,-0.485576 -1.34437,-0.485576 -4.22038,-0.485575 -10.85427,-0.971152 -14.90968,-1.942303 -1.6582,-0.485576 -0.64437,-0.485575 2.48757,-0.485576 6.55878,-0.485576 18.61892,-0.971151 6.26317,-0.485576 3.46133,-0.485576 -2.68831,-0.485576 -7.17309,-0.485575 -18.62895,-0.971152 -5.4029,-0.485576 -2.32156,-0.485576 0.44941,-0.485575 3.07623,-0.485576 13.48062,-0.971152 2.33034,-0.485575 -0.65968,-0.485576 1.85183,-0.485576 6.57694,-0.971151 1.55076,-0.485576 1.73355,-0.971152 0.3787,-0.485575 -0.85803,-0.485576 -2.19044,-0.485576 1.07802,-0.485576 3.8229,-0.485575 2.66778,-0.485576 -0.54733,-0.485576 -4.72585,-0.485576 -7.79767,-0.485575 -21.26266,-0.971152 -4.59954,-0.485576 1.28708,-0.485575 4.59942,-0.485576 32.48933,-1.942303 2.56831,-0.485576 -1.89932,-0.485576 -5.2912,-0.485576 -6.5197,-0.485575 v 0"
               style="fill:none;stroke:#000000;stroke-width:1.5;stroke-linecap:square;stroke-linejoin:round;stroke-miterlimit:10;stroke-dasharray:none;stroke-opacity:0.4"
               id="path893"
               inkscape:connector-curvature="0" />
          </g>
        </g>
        <g
           transform="translate(-330.26788,-12.110583)"
           id="g895">
          <g
             id="g897"
             clip-path="url(#clipPath901)">
            <path
               d="m 674.32273,333.79273 -0.64823,-0.48558 -4.53738,-1.45673 -0.92778,-0.48557 0.4172,-0.48558 0.26309,-0.48557 0.59075,-0.48558 0.16393,-0.48558 0.0314,-0.48557 1.04255,-0.48558 1.26548,-0.97115 1.33298,-0.48557 3.59957,-0.48558 2.73503,-0.48558 0.73948,-0.48557 1.109,-0.48558 -1.79401,-0.97115 0.0203,-0.48557 -1.08379,-0.48558 -7.61051,-0.97115 -2.51234,-0.48558 -1.32828,-0.48557 0.64588,-0.48558 -0.2212,-0.48557 0.0387,-0.48558 1.21801,-0.48558 2.08745,-0.48557 0.8611,-0.48558 -1.06457,-0.48557 2.08809,-0.97115 1.4593,-0.97116 -0.25861,-0.48557 -1.28366,-0.97115 0.63477,-0.48558 1.01519,-0.48558 -0.32359,-0.48557 -1.3591,-0.48558 -1.52342,-0.97115 0.97843,-0.48557 0.44947,-0.48558 -2.1366,-0.48558 -1.47875,-0.48557 0.77348,-0.48558 2.18537,-0.48557 1.07888,-0.48558 1.39072,-0.48557 5.72103,-0.97115 0.90939,-0.48558 -0.49691,-0.48558 -1.28065,-0.48557 -2.3249,-0.48558 -5.89798,-0.97115 -0.59865,-0.48558 0.74334,-0.48557 2.69934,-0.48558 3.56559,-0.48557 2.43348,-0.48558 1.04511,-0.48557 -1.06929,-0.48558 -1.63095,-0.48558 -2.92912,-0.48557 -4.05845,-0.48558 -2.21226,-0.48557 -0.5931,-0.48558 -1.72091,-0.48558 -2.49781,-0.48557 -1.10345,-0.48558 -1.02114,-0.97115 1.17229,-0.48557 5.80628,-1.45673 7.39254,-1.45673 1.41594,-0.97115 1.72303,-0.48558 1.27231,-0.48557 -0.39923,-0.48558 -0.55824,-0.48557 0.97139,-0.48558 3.28562,-0.97115 -0.44648,-0.48558 -3.15013,-0.97115 -5.24163,-0.97115 -1.11075,-0.48557 -1.60659,-0.48558 -4.09454,-0.97115 -3.30632,-0.97115 -1.40716,-0.48558 -2.14089,-0.48558 -0.86194,-0.48557 1.34967,-0.97115 1.61512,-0.48558 4.32602,-0.97115 2.90453,-0.48558 2.14089,-0.48557 0.26821,-0.48558 -0.0791,-0.48557 -0.54692,-0.48558 0.33533,-0.48557 1.46872,-0.48558 0.25966,-0.48557 0.70678,-0.48558 3.73938,-0.97115 -0.61438,-0.48558 -2.7955,-0.48557 -3.46471,-0.48558 -1.34392,-0.48558 0.80918,-0.48557 -4.20651,-0.97115 2.97301,-0.48558 14.26794,-0.97115 -1.87689,-0.48558 -4.06307,-0.48557 6.2352,-0.97115 -1.45973,-0.48558 -6.87771,-0.48558 -4.35106,-0.48557 4.45853,-0.48558 0.89292,-0.48557 -2.22802,-0.48558 -4.17511,-0.48557 -7.53785,-0.48558 1.01207,-0.48558 5.06664,-0.48557 -0.82391,-0.48558 -3.22514,-0.48557 -1.90304,-0.97115 0.68571,-0.48558 6.36301,-0.48558 -3.01837,-0.97115 4.85296,-0.48557 -2.79032,-0.48558 2.1255,-0.48557 -0.60205,-0.48558 2.50614,-0.48558 4.88802,-0.48557 -8.7246,-0.48558 10.23566,-0.48557 6.84392,-0.48558 -14.76679,-0.48557 0.74742,-0.48558 15.11184,-0.97115 9.03187,-0.48558 -25.31234,-0.97115 8.26323,-0.48558 4.66034,-0.48557 -12.53565,-0.48558 -17.72743,-0.48557 4.38616,-0.48558 20.41236,-0.48557 4.77902,-0.48558 -10.71339,-0.48558 -2.7814,-0.48557 10.17208,-0.48558 2.9322,-0.48557 -20.04982,-0.48558 -10.83426,-0.48557 19.53817,-0.48558 5.63287,-0.48558 -9.39024,-0.48557 -3.00707,-0.48558 12.7172,-0.48557 15.8414,-0.48558 -9.73397,-0.48557 -3.93319,-0.48558 -6.02281,-0.48558 -8.8552,-0.48557 12.54164,-0.48558 -5.17059,-0.48557 -3.76003,-0.48558 13.75559,-0.48557 -4.15895,-0.48558 -13.33558,-0.48558 -8.44153,-0.48557 5.2277,-0.48558 7.16948,-0.48557 -11.80968,-0.48558 7.37876,-0.48558 19.1938,-0.48557 -8.48685,-0.48558 10.7411,-0.48557 4.96715,-0.48558 -35.05376,-0.48557 1.49336,-0.48558 26.79088,-0.48558 3.55793,-0.48557 -1.60439,-0.48558 -26.20419,-0.97115 18.74707,-0.48557 12.32119,-0.48558 -54.7348,-0.97115 54.53301,-0.97115 -17.34071,-0.48558 -10.5881,-0.48557 0.76579,-0.48558 37.08955,-0.97115 -40.03468,-0.97115 -4.88298,-0.48558 10.82623,-0.48557 23.11904,-0.48558 -26.90791,-0.97115 6.77941,-0.48558 -1.02383,-0.48557 2.28133,-0.48558 -5.18006,-0.48558 -0.0905,-0.48557 -7.44652,-0.48558 -0.62556,-0.48557 30.57191,-0.48558 14.56822,-0.48557 -0.37786,-0.48558 -41.40481,-0.97115 12.69747,-0.48558 -7.23841,-0.48557 -27.43475,-0.48558 2.05139,-0.48557 24.34856,-0.48558 69.2674,-0.97115 -11.56906,-0.48558 -85.11582,-0.97115 0.26264,-0.48557 2.69981,-0.48558 -4.37392,-0.48558 33.22508,-0.48557 9.92558,-0.48558 1.22433,-0.48557 -2.04362,-0.48558 -8.12918,-0.48557 6.15314,-0.48558 -8.47064,-0.48558 7.36919,-0.48557 -3.91691,-0.48558 -19.013,-0.48557 31.98749,-0.97116 1.95821,-0.48557 2.82377,-0.48558 -10.40446,-0.48557 -16.858,-0.48558 5.23274,-0.48557 -3.62925,-0.48558 -9.42176,-0.48558 10.76872,-0.48557 26.75562,-0.48558 15.22978,-0.48557 -82.37009,-0.97115 4.51599,-0.48558 23.91539,-0.48557 32.87582,-0.48558 23.18994,-0.48558 14.66646,-0.97115 3.64504,-0.48557 -11.05603,-0.48558 -63.04749,-0.97115 -46.33208,-0.48558 -18.47139,-0.48557 81.19832,-0.97115 26.53914,-0.48558 32.78185,-0.97115 30.7377,-0.48558 -16.90277,-0.48557 -130.92485,-0.97116 -18.83695,-0.48557 10.21461,-0.48558 19.97562,-0.48557 2.00421,-0.48558 10.09053,-0.48557 36.59686,-0.48558 14.38223,-0.48558 -4.16535,-0.48557 -5.45566,-0.48558 -7.75698,-0.48557 15.0537,-1.45673 -0.45051,-0.48557 -9.28747,-0.97116 -47.65172,-1.45672 -3.14279,-0.48558 18.8091,-0.48558 72.91614,-0.97115 -24.20439,-0.97115 28.52149,-0.48557 35.22827,-0.48558 -9.69416,-0.48558 -40.61931,-0.48557 -46.60772,-0.97115 -17.21797,-0.48558 9.02782,-0.48558 20.79488,-0.48557 3.03662,-0.48558 -12.62405,-0.48557 2.41791,-0.48558 10.57595,-0.48557 -7.3502,-0.48558 -19.65765,-0.48558 -7.61827,-0.48557 16.30994,-0.48558 27.83293,-0.48557 16.37795,-0.48558 -9.07449,-0.48557 -24.82163,-0.48558 -4.90384,-0.48558 17.3075,-0.48557 8.47187,-0.48558 9.9426,-0.97115 -6.39089,-0.48557 4.07991,-0.48558 27.93672,-0.48558 9.69651,-0.48557 -58.04641,-0.97115 -62.57816,-0.97115 -13.25838,-0.48558 8.86296,-0.48558 54.57103,-0.97115 44.50156,-0.97115 3.54691,-0.48558 -17.08034,-0.48557 -26.5025,-0.48558 -17.64639,-0.48557 -13.42746,-0.48558 -26.58833,-0.48557 -6.1228,-0.48558 22.02754,-0.48558 70.5193,-0.97115 11.5458,-0.48557 -9.88055,-0.48558 -3.92408,-0.48557 4.45507,-0.48558 1.93112,-0.48558 -13.0101,-0.48557 -30.83239,-0.48558 -22.74626,-0.48557 10.55387,-0.48558 74.78551,-1.45673 -3.10702,-0.48557 -12.47001,-0.48558 -4.43897,-0.48557 1.77133,-0.48558 -19.22728,-0.97115 -2.95845,-0.97115 -2.792,-0.48558 -1.5954,-0.48557 -0.96225,-0.48558 -10.2728,-0.48558 3.94486,-0.48557 6.88876,-0.48558 -1.42934,-0.48557 14.69874,-0.48558 11.08953,-0.48557 -0.55696,-0.48558 -13.32353,-0.48558 -19.23064,-0.48557 -20.49788,-0.97115 4.16607,-0.48558 6.66666,-0.48557 -15.48024,-0.97116 9.35001,-0.48557 13.08037,-0.48558 3.46239,-0.48557 -6.57279,-0.48558 -13.15023,-0.48557 5.25373,-0.48558 50.77892,-0.97115 14.62369,-0.48558 0.99861,-0.48557 -4.38665,-0.48558 -5.49645,-0.48557 -8.15953,-0.48558 -48.64038,-1.9423 -26.88635,-1.45673 19.77328,-0.48558 26.63948,-0.48557 21.98223,-0.97115 5.03668,-0.48558 -17.65765,-0.48557 -25.42379,-0.48558 -12.83959,-0.48558 4.37285,-0.48557 17.13035,-0.48558 21.50053,-0.48557 12.31481,-0.48558 -2.21701,-0.48558 -23.75687,-0.97115 4.28042,-0.48557 9.87276,-0.48558 0.49011,-0.48557 -11.85994,-0.48558 -16.35845,-0.48557 -2.57694,-0.48558 41.38812,-1.45673 9.08201,-0.48557 -5.7792,-0.48558 -17.8583,-0.48558 -12.15845,-0.48557 5.61302,-0.48558 9.63302,-0.48557 0.72966,-0.48558 -10.15816,-0.48557 -7.37545,-0.48558 -2.78715,-0.48558 -8.83859,-0.48557 2.29775,-0.48558 34.79951,-0.97115 4.68688,-0.48557 -4.49947,-0.48558 -34.03456,-0.97115 -3.66483,-0.485578 6.65062,-0.485576 3.01101,-0.485575 -1.3705,-0.485576 3.49655,-0.485576 2.01504,-0.485576 -1.00754,-0.485575 -3.00624,-0.485576 -4.52877,-0.485576 2.03689,-0.485576 1.33993,-0.485575 -17.76998,-0.971152 6.08434,-0.485576 36.90243,-0.971151 8.41779,-0.485576 -0.0164,-0.485576 -3.17236,-0.485576 -5.19353,-0.485575 -8.53538,-0.485576 -4.0194,-0.485576 5.96303,-0.485576 8.1211,-0.485575 -0.98393,-0.485576 -14.43854,-0.971152 -6.71604,-0.485575 -4.77889,-0.485576 -0.848,-0.485576 0.4203,-0.485576 -0.78336,-0.485575 -0.17696,-0.485576 4.01576,-0.485576 0.26709,-0.485576 -1.08361,-0.485575 16.58166,-0.971152 -2.05876,-0.485576 -13.76086,-0.485575 -10.04925,-0.485576 3.09916,-0.485576 12.31906,-0.485576 9.42577,-0.485575 3.3012,-0.485576 4.15784,-0.485576 0.31754,-0.485576 -13.186,-0.971151 -1.0716,-0.485576 1.46584,-0.485576 -1.01778,-0.485576 -0.67639,-0.485575 1.72717,-0.485576 -4.4102,-0.485576 -7.24398,-0.485576 -5.17168,-0.485575 -7.6528,-0.485576 -1.11817,-0.485576 12.81719,-0.485576 8.66193,-0.485575 -2.2507,-0.485576 1.59527,-0.485576 6.1106,-0.485576 13.04104,-0.485575 16.06481,-0.485576 2.49985,-0.485576 -7.15751,-0.485576 -11.73018,-0.485575 -14.7108,-0.485576 -6.16797,-0.485576 2.8094,-0.485576 -1.4589,-0.485575 -20.34588,-0.971152 -3.94543,-0.485576 0.54516,-0.485575 5.18102,-0.485576 24.5558,-0.971152 5.74568,-0.485575 -1.59733,-0.485576 -2.48515,-0.485576 3.46719,-0.485576 8.72465,-0.485576 0.50568,-0.485575 -2.93461,-0.485576 -4.29962,-0.485576 -7.79872,-0.485576 -1.80637,-0.485575 -0.90044,-0.485576 0.15413,-0.485576 -0.30086,-0.485576 -5.26787,-0.485575 -2.25969,-0.485576 -1.44883,-0.485576 -4.71733,-0.485576 -3.1736,-0.485575 5.74685,-0.485576 7.8157,-0.485576 1.34584,-0.485576 0.8663,-0.485575 -3.99109,-0.971152 3.76085,-0.485576 16.37021,-0.971151 -0.36201,-0.485576 -20.00499,-0.971151 -6.92078,-0.485576 2.27291,-0.485576 3.36933,-0.485576 -0.99156,-0.485575 0.95761,-0.485576 0.70727,-0.485576 0.172,-0.485576 3.21328,-0.485576 0.85671,-0.485575 v 0"
               style="fill:none;stroke:#696969;stroke-width:1.5;stroke-linecap:square;stroke-linejoin:round;stroke-miterlimit:10;stroke-dasharray:none;stroke-opacity:0.4"
               id="path903"
               inkscape:connector-curvature="0" />
          </g>
        </g>
        <path
           inkscape:connector-curvature="0"
           id="path943"
           d="M 117.20953,327.49644 H 105.95951 V 24.550007 l 10.98216,4e-6"
           style="fill:none;fill-rule:evenodd;stroke:#000000;stroke-width:2.83464575;stroke-linecap:butt;stroke-linejoin:miter;stroke-miterlimit:4;stroke-dasharray:none;stroke-opacity:1" />
        <path
           inkscape:connector-curvature="0"
           id="path945"
           d="m 424.70953,327.49644 h 11.51786 V 24.550007 l -11.78571,4e-6"
           style="fill:none;fill-rule:evenodd;stroke:#000000;stroke-width:2.83464575;stroke-linecap:butt;stroke-linejoin:miter;stroke-miterlimit:4;stroke-dasharray:none;stroke-opacity:1" />
        <path
           sodipodi:nodetypes="cccc"
           inkscape:connector-curvature="0"
           id="path943-3"
           d="m 586.62922,282.4971 -12.32143,-0.53572 1.07143,-212.4107 h 10.9821"
           style="fill:none;fill-rule:evenodd;stroke:#000000;stroke-width:2.83464575;stroke-linecap:butt;stroke-linejoin:miter;stroke-miterlimit:4;stroke-dasharray:none;stroke-opacity:1" />
        <flowRoot
           transform="matrix(0.75000002,0,0,-0.75000002,364.34198,272.89725)"
           style="font-style:normal;font-variant:normal;font-weight:normal;font-stretch:normal;font-size:15px;line-height:16.66666603px;font-family:sans-serif;-inkscape-font-specification:sans-serif;letter-spacing:0px;word-spacing:0px;fill:#000000;fill-opacity:1;stroke:none;stroke-width:1px;stroke-linecap:butt;stroke-linejoin:miter;stroke-opacity:1"
           id="flowRoot1253-3"
           xml:space="preserve"><flowRegion
             id="flowRegion1255-6"><rect
               y="127.08183"
               x="-481.84277"
               height="51.517773"
               width="74.246201"
               id="rect1257-7" /></flowRegion><flowPara
             style="font-weight:bold;font-size:64px;font-style:italic"
             id="flowPara1259-5">U</flowPara></flowRoot>        <flowRoot
           transform="matrix(0.75000002,0,0,-0.75000002,829.86078,272.55741)"
           style="font-style:normal;font-variant:normal;font-weight:normal;font-stretch:normal;font-size:15px;line-height:16.66666603px;font-family:sans-serif;-inkscape-font-specification:sans-serif;letter-spacing:0px;word-spacing:0px;fill:#000000;fill-opacity:1;stroke:none;stroke-width:1px;stroke-linecap:butt;stroke-linejoin:miter;stroke-opacity:1"
           id="flowRoot1253-2"
           xml:space="preserve"><flowRegion
             id="flowRegion1255-7"><rect
               y="127.08183"
               x="-481.84277"
               height="51.517773"
               width="74.246201"
               id="rect1257-0" /></flowRegion><flowPara
             style="font-weight:bold;font-size:64px;font-style:italic"
             id="flowPara1259-9">V'</flowPara></flowRoot>        <g
           transform="translate(35.357144,0.78327537)"
           id="g1507">
          <flowRoot
             xml:space="preserve"
             id="flowRoot1356-6-9"
             style="font-style:normal;font-variant:normal;font-weight:normal;font-stretch:normal;font-size:15px;line-height:16.66666603px;font-family:sans-serif;-inkscape-font-specification:sans-serif;letter-spacing:0px;word-spacing:0px;fill:#000000;fill-opacity:1;stroke:none;stroke-width:1px;stroke-linecap:butt;stroke-linejoin:miter;stroke-opacity:1"
             transform="matrix(0.75000002,0,0,-0.75000002,252.69186,275.64418)"
             inkscape:transform-center-x="98.840777"
             inkscape:transform-center-y="69.547621"><flowRegion
               id="flowRegion1358-1-2"><rect
                 id="rect1360-8-0"
                 width="149.28572"
                 height="111.41264"
                 x="418.57144"
                 y="51.951012" /></flowRegion><flowPara
               style="font-weight:bold;font-size:42.66666794px"
               id="flowPara1412">0.789</flowPara></flowRoot>          <flowRoot
             xml:space="preserve"
             id="flowRoot1356-6-9-3"
             style="font-style:normal;font-variant:normal;font-weight:normal;font-stretch:normal;font-size:15px;line-height:16.66666603px;font-family:sans-serif;-inkscape-font-specification:sans-serif;letter-spacing:0px;word-spacing:0px;fill:#000000;fill-opacity:1;stroke:none;stroke-width:1px;stroke-linecap:butt;stroke-linejoin:miter;stroke-opacity:1"
             transform="matrix(0.75000002,0,0,-0.75000002,394.95638,158.5906)"
             inkscape:transform-center-x="98.840777"
             inkscape:transform-center-y="69.547621"><flowRegion
               id="flowRegion1358-1-2-7"><rect
                 id="rect1360-8-0-5"
                 width="183.57143"
                 height="61.412643"
                 x="418.57144"
                 y="51.951012" /></flowRegion><flowPara
               style="font-weight:bold;font-size:42.66666794px"
               id="flowPara1412-9">0.789</flowPara></flowRoot>          <flowRoot
             xml:space="preserve"
             id="flowRoot1356-6-9-3-2"
             style="font-style:normal;font-variant:normal;font-weight:normal;font-stretch:normal;font-size:15px;line-height:16.66666603px;font-family:sans-serif;-inkscape-font-specification:sans-serif;letter-spacing:0px;word-spacing:0px;fill:#000000;fill-opacity:1;stroke:none;stroke-width:1px;stroke-linecap:butt;stroke-linejoin:miter;stroke-opacity:1"
             transform="matrix(0.75000002,0,0,-0.75000002,395.05013,275.64418)"
             inkscape:transform-center-x="98.840777"
             inkscape:transform-center-y="69.547621"><flowRegion
               id="flowRegion1358-1-2-7-2"><rect
                 id="rect1360-8-0-5-8"
                 width="170.71429"
                 height="92.12693"
                 x="418.57144"
                 y="51.951012" /></flowRegion><flowPara
               style="font-weight:bold;font-size:42.66666794px"
               id="flowPara1412-9-9">0.615</flowPara></flowRoot>          <flowRoot
             xml:space="preserve"
             id="flowRoot1356-6-9-3-7"
             style="font-style:normal;font-variant:normal;font-weight:normal;font-stretch:normal;font-size:15px;line-height:16.66666603px;font-family:sans-serif;-inkscape-font-specification:sans-serif;letter-spacing:0px;word-spacing:0px;fill:#000000;fill-opacity:1;stroke:none;stroke-width:1px;stroke-linecap:butt;stroke-linejoin:miter;stroke-opacity:1"
             transform="matrix(0.75000002,0,0,-0.75000002,246.0278,158.5906)"
             inkscape:transform-center-x="98.840777"
             inkscape:transform-center-y="69.547621"><flowRegion
               id="flowRegion1358-1-2-7-3"><rect
                 id="rect1360-8-0-5-6"
                 width="342.85715"
                 height="98.555504"
                 x="418.57144"
                 y="51.951012" /></flowRegion><flowPara
               style="font-weight:bold;font-size:42.66666794px"
               id="flowPara1412-9-1">-0.615</flowPara></flowRoot>        </g>
        <path
           sodipodi:nodetypes="cccc"
           inkscape:connector-curvature="0"
           id="path943-3-2"
           d="m 862.77822,282.4971 12.3215,-0.53572 -1.0715,-212.4107 h -10.9821"
           style="fill:none;fill-rule:evenodd;stroke:#000000;stroke-width:2.83464575;stroke-linecap:butt;stroke-linejoin:miter;stroke-miterlimit:4;stroke-dasharray:none;stroke-opacity:1" />
        <flowRoot
           transform="matrix(0.75000002,0,0,-0.75000002,934.53619,324.36112)"
           style="font-style:normal;font-variant:normal;font-weight:normal;font-stretch:normal;font-size:15px;line-height:16.66666603px;font-family:sans-serif;-inkscape-font-specification:sans-serif;letter-spacing:0px;word-spacing:0px;fill:#000000;fill-opacity:1;stroke:none;stroke-width:1px;stroke-linecap:butt;stroke-linejoin:miter;stroke-opacity:1"
           id="flowRoot1509-9"
           xml:space="preserve"><flowRegion
             id="flowRegion1511-3"><rect
               y="192.28972"
               x="-540"
               height="61.428558"
               width="79.285713"
               id="rect1513-1" /></flowRegion><flowPara
             style="font-weight:bold;font-size:53.33333206px"
             id="flowPara1515-9">=</flowPara></flowRoot>        <flowRoot
           transform="matrix(0.75000002,0,0,-0.75000002,460.96475,324.36112)"
           style="font-style:normal;font-variant:normal;font-weight:normal;font-stretch:normal;font-size:15px;line-height:16.66666603px;font-family:sans-serif;-inkscape-font-specification:sans-serif;letter-spacing:0px;word-spacing:0px;fill:#000000;fill-opacity:1;stroke:none;stroke-width:1px;stroke-linecap:butt;stroke-linejoin:miter;stroke-opacity:1"
           id="flowRoot1509-4"
           xml:space="preserve"><flowRegion
             id="flowRegion1511-7"><rect
               y="192.28972"
               x="-540"
               height="61.428558"
               width="79.285713"
               id="rect1513-8" /></flowRegion><flowPara
             style="font-weight:bold;font-size:53.33333206px"
             id="flowPara1515-4">=</flowPara></flowRoot>      </g>
      <g
         id="g1628"
         transform="translate(-7.8709416)"
         inkscape:export-xdpi="150"
         inkscape:export-ydpi="150">
        <g
           transform="translate(259.4385,331.82905)"
           id="g1251">
          <g
             id="g865">
            <g
               clip-path="url(#clipPath871)"
               id="g867">
              <path
                 inkscape:connector-curvature="0"
                 id="path873"
                 style="fill:none;stroke:#000000;stroke-width:1.5;stroke-linecap:square;stroke-linejoin:round;stroke-miterlimit:10;stroke-dasharray:none;stroke-opacity:0.7"
                 d="m 145.76342,333.79273 -0.0664,-0.48558 1.59446,-0.97115 1.02975,-0.48558 0.66436,-0.48557 -0.59792,-0.97115 0.13287,-0.48558 1.29549,-0.97115 0.59792,-0.97115 -1.94324,-0.97115 -4.8498,-1.45673 -0.76401,-0.48558 0.31557,-0.48557 0.58132,-0.48558 0.66435,-0.97115 2.09272,-0.48557 4.76676,-0.97116 1.51141,-0.48557 -0.16609,-0.48558 0.3654,-0.48557 0.18269,-0.48558 -0.91349,-0.48558 -1.21245,-0.48557 -0.54809,-0.48558 -0.0166,-0.48557 -0.46505,-0.48558 0.0831,-0.48557 -1.97646,-0.97116 -0.58131,-0.97115 -0.0831,-0.48557 -1.14601,-0.97116 -0.7474,-0.48557 -0.382,-0.48558 1.19584,-0.97115 -0.44844,-0.48557 -0.0332,-0.48558 2.92317,-0.97115 0.97992,-0.97115 0.28235,-0.48558 -0.13287,-0.48557 -1.81037,-1.94231 0.66436,-0.48557 2.64082,-1.45673 -1.02976,-0.97115 -3.35499,-1.45673 -1.04636,-0.97115 -0.23253,-0.48558 0.23253,-0.48557 1.27888,-0.97115 -0.36539,-0.48558 0.64775,-0.48558 1.27888,-0.48557 0.9301,-0.48558 2.74047,-0.97115 0.31557,-0.48557 -0.38201,-0.48558 -0.71418,-0.48558 -2.32524,-0.97115 -1.22906,-0.97115 -0.0831,-0.48557 -0.43183,-0.48558 -1.39515,-0.48558 -0.91348,-0.48557 0.39861,-0.48558 2.12594,-0.97115 0.13287,-0.48557 -0.58131,-0.48558 -1.01314,-0.48558 -0.71419,-0.48557 0.1827,-0.48558 0.91349,-0.48557 0.13287,-0.48558 -0.7474,-0.48557 -0.31557,-0.48558 0.38201,-0.48558 3.78683,-1.45672 0.61453,-0.48558 1.76054,-0.97115 -0.13287,-0.48558 -0.41522,-0.48557 -0.5647,-0.48558 -2.6076,-1.45673 -0.91349,-0.48557 0.0664,-0.48558 0.23252,-0.48557 0.3654,-0.48558 -0.19931,-0.48557 -2.20898,-0.97115 -1.42837,-0.48558 -0.39861,-0.48558 2.64082,-0.48557 4.99927,-0.48558 3.08926,-0.48557 -0.19931,-0.48558 -0.41522,-0.48558 1.79376,-0.48557 -0.96331,-0.48558 -19.18328,-0.97115 2.39168,-0.48557 10.46361,-0.48558 4.58405,-0.48558 -9.31759,-0.48557 -2.44151,-0.48558 12.58955,-0.48557 2.12594,-0.48558 -28.45104,-0.97115 -1.41176,-0.48558 11.59301,-0.48557 6.09547,-0.48558 1.44497,-0.48557 4.61727,-0.48558 5.74668,-0.48558 2.15916,-0.48557 0.19931,-0.48558 -0.66436,-0.48557 -0.13287,-0.48558 -0.9301,-0.48557 -8.86915,-0.48558 -4.03596,-0.48558 8.71967,-0.48557 -2.55777,-0.48558 -8.60341,-0.48557 5.51416,-0.48558 0.24913,-0.48557 0.66436,-0.48558 -1.02975,-0.48558 -8.2048,-0.48557 9.38403,-0.48558 5.43111,-0.48557 -1.34532,-0.48558 0.29896,-0.48557 -12.53972,-0.48558 -2.4249,-0.48558 8.05532,-0.48557 0.28235,-0.48558 5.46433,-0.48557 3.98613,-0.48558 -5.16537,-0.48558 1.8602,-0.48557 3.70379,-0.48558 -6.41104,-0.48557 -9.8989,-0.48558 -1.27889,-0.48557 11.32727,-0.97116 2.37507,-0.48557 -0.84705,-0.48558 10.34735,-0.97115 -15.52932,-0.48557 -19.44902,-0.48558 7.72313,-0.48558 17.55561,-0.48557 3.25534,-0.48558 -10.2809,-0.48557 -0.63114,-0.48558 13.28712,-0.48557 1.21245,-0.48558 -1.04636,-0.48558 -4.08579,-0.48557 -17.47256,-0.48558 -8.0221,-0.48557 3.95292,-0.48558 27.28842,-1.45673 2.10933,-0.48557 -3.57091,-0.48558 1.89341,-0.48557 -0.23252,-0.48558 -23.96664,-0.48558 -8.65324,-0.48557 14.86496,-0.48558 4.79998,-0.48557 20.08015,-0.97115 -21.54174,-0.97116 1.36193,-0.48557 6.59374,-0.97115 -4.89963,-0.48558 -10.6463,-0.48557 3.83666,-0.48558 10.16464,-0.48557 -1.01314,-0.48558 -23.01993,-0.48558 -1.07958,-0.48557 26.22545,-0.48558 8.20479,-0.48557 1.14602,-0.48558 -7.80618,-0.48558 -14.38331,-0.48557 -3.42143,-0.48558 12.39024,-0.48557 15.97776,-0.48558 -4.98267,-0.48557 -12.37363,-0.48558 0.69757,-0.48558 2.44151,-0.48557 0.13287,-0.48558 -4.79997,-0.48557 -25.29535,-0.97116 -3.18891,-0.48557 9.61655,-0.48558 0.44844,-0.48557 3.33839,-0.48558 82.54623,-0.97115 26.90641,-0.48558 1.46158,-0.48557 -29.84618,-0.48558 -115.016624,-1.45672 -15.213752,-0.48558 2.292027,-0.48557 19.698159,-0.48558 159.24611,-1.45673 -2.20898,-0.48557 -40.4925,-0.48558 -55.90554,-0.48558 -69.52485,-0.48557 -33.998417,-0.48558 -7.374351,-0.48557 1.710717,-0.48558 7.872618,-0.48557 11.426922,-0.48558 76.567021,-0.97115 17.75491,-0.48558 6.59374,-0.48557 -13.00477,-0.48558 -7.37435,-0.48558 2.87334,-0.48557 1.81037,-0.48558 -3.33839,-0.48557 -6.70999,-0.48558 -20.86078,-0.97115 -37.768633,-0.97115 2.690644,-0.48558 45.807339,-0.48557 60.40657,-0.48558 16.75837,-0.48557 -57.36713,-0.97115 12.97155,-0.48558 25.26213,-0.48558 -4.28509,-0.48557 -15.87811,-0.48558 -3.82005,-0.48557 4.43458,-0.97116 -6.77643,-0.48557 -1.57785,-0.48558 -4.63388,-0.48557 -57.51661,-0.97115 -8.154971,-0.48558 7.058781,-0.48558 9.26777,-0.48557 -1.92663,-0.48558 14.33348,-0.48557 35.01155,-0.48558 18.2864,-0.48558 -9.7162,-0.48557 -15.79507,-0.48558 -7.8394,-0.48557 6.84287,-0.48558 4.50101,-0.48557 -12.25737,-0.48558 -4.00274,-0.48558 11.79232,-0.48557 22.2227,-0.48558 15.91133,-0.48557 -7.19166,-0.48558 -12.1411,-0.48557 -17.15699,-0.48558 -51.78654,-0.97115 -15.16393,-0.48558 12.73903,-0.48557 29.61366,-0.48558 20.27947,-0.48557 3.25534,-0.48558 6.77643,-0.48558 13.78539,-0.48557 -5.39789,-0.48558 -67.26604,-1.45672 -17.788127,-0.48558 -11.310663,-0.48558 3.504477,-0.48557 18.751449,-0.48558 26.740324,-0.48557 55.77268,-1.45673 26.65728,-0.48558 9.33421,-0.48557 -26.20885,-0.48558 -34.67938,-0.48557 -9.40063,-0.48558 4.20205,-0.48558 1.07958,-0.48557 2.17576,-0.48558 12.00824,-0.48557 19.61511,-0.48558 8.33766,-0.48557 -5.08232,-0.48558 -11.37709,-0.97115 -2.17577,-0.48558 -13.41999,-1.45672 -9.31759,-0.48558 -38.38316,-0.97115 3.05604,-0.48558 23.78394,-0.97115 46.42187,-0.97115 9.83247,-0.48558 -9.20133,-0.48557 -55.35746,-1.45673 -20.21303,-0.48558 -11.244222,-0.48557 1.627672,-0.48558 18.31962,-0.97115 6.3612,-0.48557 6.85948,-1.45673 -1.51141,-0.48558 4.99928,-0.48557 16.04419,-0.48558 47.65093,-0.97115 7.09201,-0.48558 -8.68646,-0.48557 -26.20884,-0.97115 -22.23932,-0.97115 -17.38951,-0.48558 -25.3784,-0.48558 -18.86771,-0.48557 5.015895,-0.48558 70.554595,-1.45672 4.50101,-0.48558 -9.61655,-0.48558 -7.40757,-0.48557 -5.56398,-0.48558 -9.55011,-0.48557 -3.12248,-0.48558 10.8124,-0.48558 7.40757,-0.48557 -4.38475,-0.48558 -9.61656,-0.48557 -6.06224,-0.48558 7.42418,-0.48557 26.93963,-0.97116 2.52455,-0.48557 -12.52311,-0.48558 -15.51271,-0.48557 -6.74321,-0.48558 5.84633,-0.48557 26.34171,-0.97116 13.4366,-0.97115 2.07611,-0.48557 -7.80618,-0.97115 -12.65598,-0.97115 -4.26848,-0.48558 -24.86352,-1.45673 -2.67404,-0.48557 7.93906,-0.48558 20.59503,-0.97115 3.85327,-0.48558 -1.24567,-0.48557 -10.6463,-0.97115 -2.27542,-0.48558 -3.50448,-0.48558 -2.07611,-0.48557 1.14601,-0.48558 0.19931,-0.48557 -0.0332,-0.48558 0.86367,-0.48557 5.44772,-0.97116 0.083,-0.48557 -3.15569,-0.48558 -16.21028,-0.97115 -2.00968,-0.48558 8.0221,-0.48557 13.35355,-0.48558 8.18819,-0.48557 5.7799,-0.48558 2.64081,-0.48557 -11.0117,-1.94231 -4.76675,-0.48557 -7.85601,-0.48558 -5.68024,-0.48557 L 133.8383,108 l 2.49134,-0.48558 1.51141,-0.48557 -8.68646,-0.97115 0.0664,-0.48558 13.23729,-1.9423 -0.9301,-0.48558 -4.55084,-0.48557 -1.39514,-0.48558 5.24841,-0.48557 7.32452,-0.48558 21.17635,-0.97115 9.7162,-0.485578 6.17852,-0.485576 1.72732,-0.485575 -5.91277,-0.485576 -27.03928,-0.971152 -2.0429,-0.485575 2.95639,-0.485576 10.86222,-0.971152 4.99928,-0.485575 1.4948,-0.485576 -8.85254,-0.485576 -44.84403,-1.456727 -3.30517,-0.485576 4.70032,-0.485576 12.58954,-0.485576 29.8462,-0.971151 10.31412,-0.485576 2.9896,-0.485576 -5.03249,-0.485575 -25.77701,-1.456728 -6.51069,-0.485575 -21.49191,-0.971152 -6.74321,-0.485576 -3.45466,-0.485575 0.71419,-0.485576 3.68717,-0.485576 8.9522,-0.485576 13.03798,-0.485575 6.94252,-0.485576 0.43183,-0.485576 3.85327,-0.485576 28.84966,-1.456727 4.58405,-0.485576 0.69758,-0.485575 -1.2955,-0.971152 -3.48787,-0.485576 -9.51689,-0.485575 -26.05936,-0.971152 -7.4574,-0.485576 -0.5647,-0.485576 3.47126,-0.485575 2.45812,-0.485576 7.6567,-0.971152 5.08232,-0.485575 6.85948,-0.485576 2.92316,-0.485576 0.16609,-0.485576 2.0429,-0.485575 3.47126,-0.485576 1.11279,-0.485576 -3.30517,-0.485576 -8.55358,-0.485575 -11.31066,-0.485576 -6.24494,-0.485576 -1.8602,-0.485576 -0.61453,-0.485575 -0.29896,-0.485576 -1.97646,-0.485576 -2.67403,-0.485576 -0.28235,-0.485575 5.86294,-0.485576 31.88909,-1.456727 5.4145,-0.485576 0.53148,-0.485576 -6.95913,-0.485576 -29.13201,-1.456727 -7.02556,-0.485576 -5.16537,-0.485576 0.34879,-0.485575 4.2851,-0.485576 8.10514,-0.485576 10.447,-0.485576 3.12247,-0.485575 -0.46505,-0.485576 2.00968,-0.485576 3.98613,-0.485576 4.96607,-0.485575 2.39168,-0.485576 1.47819,-0.485576 2.27542,-0.485576 1.36193,-0.485575 -2.65743,-0.485576 -4.75014,-0.485576 0.79723,-0.485576 7.49061,-0.971151 0.0332,-0.485576 -6.36121,-0.485576 -10.84561,-0.485575 -26.15901,-0.971152 -2.10933,-0.485576 4.36814,-0.485575 7.15843,-0.485576 34.39703,-1.942303 2.64082,-0.485576 -2.15916,-0.485576 -14.31687,-0.971151 v 0" />
            </g>
          </g>
          <g
             id="g875">
            <g
               clip-path="url(#clipPath881)"
               id="g877">
              <path
                 inkscape:connector-curvature="0"
                 id="path883"
                 style="fill:none;stroke:#000000;stroke-width:1.5;stroke-linecap:square;stroke-linejoin:round;stroke-miterlimit:10;stroke-dasharray:none;stroke-opacity:0.7"
                 d="m 294.8201,333.79273 -0.44844,-0.48558 -0.38201,-0.48557 -0.34878,-0.97116 -0.0996,-1.45672 0.46505,-0.48558 2.60759,-1.9423 -0.29895,-0.48558 v -0.48557 l 0.9467,-0.48558 0.13287,-0.48558 -0.53149,-0.48557 0.083,-0.48558 -0.28234,-0.48557 -0.11627,-0.48558 0.23253,-0.48557 -0.3654,-0.48558 -0.63114,-0.48557 -0.34879,-0.48558 0.13288,-0.48558 0.63114,-0.97115 0.78062,-2.42788 -0.66436,-0.48557 0.29896,-0.48558 0.68097,-0.48557 -0.64775,-0.97116 -0.36539,-0.48557 -0.68097,-0.48558 -0.41522,-0.48557 v -0.48558 l 0.11626,-0.48558 -0.78062,-0.48557 -1.1294,-0.48558 -0.0831,-0.48557 0.0831,-0.48558 0.49826,-0.97115 -0.11626,-0.48558 0.1827,-0.48557 0.91349,-0.48558 1.66089,-0.48557 1.62768,-0.97115 2.72385,-0.97115 0.11627,-0.48558 -0.49827,-0.48558 -0.26575,-0.48557 -0.69757,-0.48558 -3.05603,-1.45673 0.0664,-0.48557 0.79722,-0.48558 1.14602,-0.48557 0.76402,-0.48558 0.19929,-0.48557 -2.20898,-0.97116 -4.45118,-1.45672 -1.19584,-0.97116 -0.53149,-0.48557 0.0498,-0.48558 3.38822,-1.9423 0.81383,-0.97115 0.76402,-0.48558 1.95985,-0.97115 0.382,-0.48557 0.0831,-0.48558 0.0332,-0.97115 0.0664,-0.48558 0.5647,-0.48557 2.55777,-0.97115 0.44845,-0.48558 -1.06298,-0.48558 -1.44497,-0.48557 -1.95985,-0.97115 -3.82005,-1.45673 -1.06297,-0.48558 -0.083,-0.48557 0.0996,-0.48558 -0.23253,-0.48557 -0.382,-0.48558 -0.59792,-0.48558 0.13287,-0.48557 0.26574,-0.48558 0.13288,-0.48557 1.21245,-0.97115 2.32524,-1.45673 0.34879,-0.97115 v -0.97115 l 0.083,-0.48558 -1.42837,-0.97115 0.9135,-0.48558 6.64356,-0.97115 0.69757,-0.48557 -2.27542,-0.48558 -1.14601,-0.48558 1.89341,-0.48557 -2.14255,-0.48558 -8.88575,-0.48557 -5.43111,-0.48558 6.29477,-0.48557 12.45668,-0.48558 2.4249,-0.48558 -9.74943,-0.48557 0.0664,-0.48558 11.65944,-0.48557 0.76401,-0.48558 -29.04897,-0.97115 1.62768,-0.48558 9.58333,-0.48557 3.38823,-0.48558 -1.42838,-0.48557 -1.01314,-0.48558 9.8823,-0.97115 -0.34879,-0.48558 -2.49133,-0.48557 -0.64775,-0.48558 -1.34532,-0.48557 -6.49408,-0.48558 0.7474,-0.48558 5.7799,-0.48557 -2.82352,-0.48558 -3.737,-0.48557 2.591,-0.48558 1.49479,-0.48557 0.14949,-0.48558 0.73079,-0.48558 -3.40483,-0.48557 1.97647,-0.48558 10.49681,-0.48557 3.13909,-0.48558 -18.12031,-0.97115 2.2588,-0.48558 11.3771,-0.48557 5.74669,-0.48558 -8.12176,-0.97115 1.02975,-0.48558 4.30171,-0.48557 -4.78336,-0.48558 -15.84489,-0.48557 -5.03249,-0.48558 11.49335,-0.48557 7.39096,-0.48558 -2.19237,-0.48558 0.14947,-0.48557 11.29406,-0.97115 -8.13837,-0.48558 -18.73482,-0.48557 -3.20552,-0.48558 17.40611,-0.97115 0.69759,-0.48558 -0.23253,-0.48557 9.20133,-0.48558 4.40136,-0.48557 -1.46158,-0.48558 -4.50102,-0.48558 -8.60341,-0.48557 -5.94598,-0.48558 -9.41725,-0.48557 0.78062,-0.48558 15.8615,-0.48557 6.54391,-0.48558 -6.94252,-0.97115 0.41522,-0.48558 5.86294,-0.48557 -7.40757,-0.48558 -14.16739,-0.48558 4.99928,-0.48557 6.39443,-0.48558 20.81095,-0.97115 -13.25391,-0.48557 -6.66016,-0.48558 7.17504,-0.48558 3.23874,-0.48557 1.47819,-0.48558 -5.44772,-0.48557 -11.72588,-0.48558 3.1723,-0.48557 10.53004,-0.48558 -9.79925,-0.48557 -16.55906,-0.48558 -0.59793,-0.48558 15.18053,-0.48557 9.83247,-0.48558 -0.083,-0.48557 1.36192,-0.48558 5.63042,-0.48558 -0.23252,-0.48557 -15.6788,-0.48558 -1.82697,-0.48557 9.46706,-0.48558 2.74047,-0.48557 4.50102,-0.48558 -14.01791,-0.97115 4.25188,-0.48558 -4.36814,-0.48557 -21.49192,-0.97116 -2.54117,-0.48557 2.93978,-0.48558 -0.0332,-0.48557 21.30921,-0.48558 73.02933,-0.97115 7.29131,-0.48558 -10.51343,-0.48557 -15.4961,-0.48558 -33.30085,-0.48557 -46.83709,-0.48558 -29.4808,-0.48557 3.03943,-0.48558 24.0829,-0.48557 69.69095,-0.97116 20.87738,-0.48557 9.84907,-0.48558 -1.56122,-0.48557 -29.91264,-0.48558 -46.25578,-0.48558 -33.86554,-0.48557 -20.42895,-0.48558 -4.99927,-0.48557 0.083,-0.48558 1.16263,-0.48557 12.67258,-0.48558 59.01142,-0.97115 11.44354,-0.48558 -6.49409,-0.48557 -0.93009,-0.48558 4.61726,-0.48558 6.57713,-0.97115 -8.9688,-0.48557 -15.54593,-0.48558 -4.26848,-0.48557 -11.0117,-0.48558 -18.98398,-0.48558 -9.63316,-0.48557 18.4691,-0.48558 45.02672,-0.48557 22.55488,-0.48558 -12.80546,-0.48557 -21.52513,-0.48558 -5.79651,-0.48557 64.11036,-0.97116 1.1294,-0.48557 -7.87262,-0.48558 -0.74739,-0.48557 -5.19859,-0.48558 -15.42967,-0.48558 -56.12147,-0.97115 -14.91479,-0.48557 0.3654,-0.48558 4.4844,-0.48557 9.8823,-0.48558 32.78597,-0.97115 17.30646,-0.48558 0.83045,-0.48557 -38.56586,-0.97116 -19.10023,-0.48557 -6.06225,-0.48558 12.67259,-0.97115 9.68298,-0.48557 12.83868,-0.48558 12.3238,-0.97115 13.9847,-0.48558 7.6567,-0.48557 -2.62421,-0.48558 -6.66016,-0.48557 -9.94873,-0.48558 -58.14775,-1.45673 0.44844,-0.48557 14.16739,-0.48558 5.04911,-0.48557 0.61452,-0.48558 16.7916,-0.48558 34.43025,-0.48557 16.72516,-0.48558 -51.55402,-0.97115 1.76054,-0.48557 7.68992,-0.48558 -14.7487,-0.48558 -22.12305,-0.48557 -0.59792,-0.48558 7.54044,-0.48557 3.53769,-0.48558 16.775,-0.48558 30.87593,-0.48557 22.63793,-0.48558 -0.44844,-0.48557 -39.51257,-0.97115 -11.82554,-0.48558 -8.75289,-0.48558 -3.82004,-0.48557 11.67605,-0.48558 51.7035,-0.97115 0.94671,-0.48557 -19.15005,-0.48558 -7.97228,-0.48558 6.69338,-0.48557 3.48788,-0.48558 -0.61453,-0.48557 -1.32871,-0.48558 -6.3446,-0.48557 -4.76675,-0.48558 1.3121,-0.48558 -8.2048,-0.48557 -13.75216,-0.48558 -20.86078,-0.97115 -0.38201,-0.48557 10.18126,-0.48558 23.28568,-0.97115 2.25881,-0.48558 0.31557,-0.48557 -2.47473,-0.48558 -13.58608,-0.48558 -34.1645,-0.97115 -3.28856,-0.48557 -1.44497,-0.48558 -11.31066,-0.48557 -1.95986,-0.48558 15.33002,-0.48558 43.6814,-0.97115 10.96187,-0.48557 6.46086,-0.48558 16.70855,-0.48557 20.76112,-0.48558 6.71001,-0.48558 -14.7321,-0.48557 -53.2149,-0.97115 -2.12595,-0.48558 6.99235,-0.48557 4.23527,-0.48558 -7.55705,-0.48558 -16.60889,-0.48557 -3.7204,-0.48558 14.51618,-0.48557 21.47531,-0.48558 11.16118,-0.48557 -2.0429,-0.48558 -15.08087,-0.97115 -6.04565,-0.48558 -8.42071,-0.48557 -3.02281,-0.48558 2.14254,-0.48558 8.18819,-0.48557 0.79723,-0.48558 -8.37089,-0.48557 4.26849,-0.48558 23.53481,-0.97115 1.54462,-0.48558 -9.79925,-0.48557 -34.39703,-0.97115 -2.70724,-0.48558 8.63663,-0.48557 11.06152,-0.97116 24.19916,-0.97115 3.737,-0.48557 -7.02556,-0.48558 -11.12795,-0.48557 -1.74394,-0.48558 22.83723,-0.97115 2.47473,-0.48558 -6.09546,-0.48557 -8.88576,-0.48558 -5.44773,-0.48557 2.40829,-0.97116 -1.56122,-0.48557 -3.7204,-0.48558 -7.60688,-0.48557 -21.35904,-0.97115 -5.16537,-0.48558 9.36742,-0.48558 14.68227,-0.48557 14.49957,-0.97115 3.05603,-0.48558 -10.13142,-0.48557 -13.18747,-0.48558 -5.9792,-0.48558 2.74047,-0.48557 14.54939,-0.97115 1.52802,-0.48558 -2.92316,-0.48558 -1.81038,-0.48557 3.93631,-0.48558 19.54868,-0.97115 2.35846,-0.48557 -9.36742,-0.48558 -12.45667,-0.48557 -3.68717,-0.48558 6.31138,-0.48558 4.79997,-0.48557 2.45811,-0.48558 1.12941,-0.48557 -4.99928,-0.48558 -8.98542,-0.48558 -6.26154,-0.48557 0.0166,-0.48558 2.54115,-0.48557 0.49828,-0.48558 -3.58752,-0.48557 -2.44152,-0.48558 0.89688,-0.48558 -2.39167,-0.48557 0.68096,-0.48558 23.61785,-1.45672 2.95638,-0.48558 -2.75707,-0.48558 -1.56124,-0.48557 5.33146,-0.485578 8.88575,-0.485576 3.18892,-0.485575 -5.44771,-0.485576 -17.7051,-0.971152 -2.20897,-0.485575 0.46504,-0.485576 1.87681,-0.485576 9.78264,-0.971151 -4.01936,-0.485576 -12.58955,-0.485576 -8.18818,-0.485576 -1.3121,-0.485575 0.84705,-0.485576 2.57438,-0.485576 3.65397,-0.485576 22.73757,-1.456727 11.5598,-0.971152 1.04636,-0.485575 -7.8394,-0.485576 -12.42346,-0.485576 -18.45248,-0.971151 -11.5598,-0.485576 -8.63662,-0.485576 -4.99928,-0.485576 -3.1723,-0.485575 0.44845,-0.485576 5.33145,-0.485576 7.14183,-0.485576 19.53205,-0.971151 5.86295,-0.485576 1.74394,-0.485576 -1.19585,-0.485575 2.17578,-0.485576 8.83592,-0.485576 11.11136,-0.485576 6.31138,-0.485575 1.52802,-0.485576 2.02629,-0.485576 -2.52455,-0.485576 -11.64284,-0.485575 -14.49958,-0.485576 -10.31411,-0.485576 -4.91625,-0.485576 -1.06296,-0.485576 2.29203,-0.485575 2.97299,-0.485576 0.0332,-0.485576 -1.19584,-0.485576 1.46158,-0.971151 1.59445,-0.485576 14.86496,-0.971151 1.32873,-0.485576 1.84358,-0.485576 3.48787,-1.456727 -3.33838,-0.485576 -5.82973,-0.485576 -22.2061,-1.456727 -0.3654,-0.485576 -1.11279,-0.485575 -1.82697,-0.485576 1.91002,-0.485576 14.81513,-0.971151 14.63244,-0.971152 2.77369,-0.485576 -4.01935,-0.485575 -17.67187,-0.971152 -3.355,-0.485576 1.3121,-0.485576 0.58131,-0.485575 1.54464,-0.485576 7.05878,-0.971152 1.32871,-0.485575 -0.91349,-0.485576 1.66089,-0.485576 2.92317,-0.485576 1.1294,-0.971151 0.26574,-0.485576 -1.99307,-0.971151 1.44498,-0.485576 1.07957,-0.485576 1.44499,-0.485576 3.63734,-0.485575 1.61107,-0.485576 -1.2955,-0.485576 -2.65741,-0.485576 -3.93632,-0.485575 -5.82972,-0.485576 -17.10717,-0.971152 -2.65742,-0.485575 1.34533,-0.485576 24.29881,-1.456727 5.94599,-0.485576 2.49133,-0.485576 -1.57785,-0.485576 -3.35499,-0.485576 -5.31484,-0.485575 v 0" />
            </g>
          </g>
          <path
             style="fill:none;fill-rule:evenodd;stroke:#000000;stroke-width:2.83464575;stroke-linecap:butt;stroke-linejoin:miter;stroke-miterlimit:4;stroke-dasharray:none;stroke-opacity:1"
             d="M 58.548826,339.28215 H 47.030968 V 36.335722 l 11.25,4e-6"
             id="path939"
             inkscape:connector-curvature="0"
             sodipodi:nodetypes="cc" />
          <path
             style="fill:none;fill-rule:evenodd;stroke:#000000;stroke-width:2.83464575;stroke-linecap:butt;stroke-linejoin:miter;stroke-miterlimit:4;stroke-dasharray:none;stroke-opacity:1"
             d="m 365.51312,339.28215 h 12.05357 V 36.335722 l -11.51786,4e-6"
             id="path941"
             inkscape:connector-curvature="0" />
        </g>
        <flowRoot
           transform="matrix(0.75000002,0,0,-0.75000002,563.1933,616.17217)"
           style="font-style:normal;font-variant:normal;font-weight:normal;font-stretch:normal;font-size:15px;line-height:16.66666603px;font-family:sans-serif;-inkscape-font-specification:sans-serif;letter-spacing:0px;word-spacing:0px;fill:#000000;fill-opacity:1;stroke:none;stroke-width:1px;stroke-linecap:butt;stroke-linejoin:miter;stroke-opacity:1"
           id="flowRoot1253"
           xml:space="preserve"><flowRegion
             id="flowRegion1255"><rect
               y="127.08183"
               x="-481.84277"
               height="51.517773"
               width="74.246201"
               id="rect1257" /></flowRegion><flowPara
             style="font-weight:bold;font-size:64px;font-style:italic"
             id="flowPara1259">M</flowPara></flowRoot>        <flowRoot
           transform="matrix(0.75000002,0,0,-0.75000002,662.54399,668.77852)"
           style="font-style:normal;font-variant:normal;font-weight:normal;font-stretch:normal;font-size:15px;line-height:16.66666603px;font-family:sans-serif;-inkscape-font-specification:sans-serif;letter-spacing:0px;word-spacing:0px;fill:#000000;fill-opacity:1;stroke:none;stroke-width:1px;stroke-linecap:butt;stroke-linejoin:miter;stroke-opacity:1"
           id="flowRoot1509"
           xml:space="preserve"><flowRegion
             id="flowRegion1511"><rect
               y="192.28972"
               x="-540"
               height="61.428558"
               width="79.285713"
               id="rect1513" /></flowRegion><flowPara
             style="font-weight:bold;font-size:53.33333206px"
             id="flowPara1515">=</flowPara></flowRoot>        <flowRoot
           transform="matrix(0.75000002,0,0,-0.75000002,19.798175,654.86757)"
           style="font-style:normal;font-variant:normal;font-weight:normal;font-stretch:normal;font-size:15px;line-height:16.66666603px;font-family:sans-serif;-inkscape-font-specification:sans-serif;letter-spacing:0px;word-spacing:0px;fill:#000000;fill-opacity:1;stroke:none;stroke-width:1px;stroke-linecap:butt;stroke-linejoin:miter;stroke-opacity:1"
           id="flowRoot1553"
           xml:space="preserve"><flowRegion
             id="flowRegion1555"><rect
               y="-56.281712"
               x="444.28571"
               height="41.42857"
               width="158.57143"
               id="rect1557" /></flowRegion><flowPara
             style="font-weight:bold;font-size:26.66666603px"
             id="flowPara1561">Template</flowPara></flowRoot>        <flowRoot
           transform="matrix(0.75000002,0,0,-0.75000002,170.80444,654.00052)"
           style="font-style:normal;font-variant:normal;font-weight:normal;font-stretch:normal;font-size:15px;line-height:16.66666603px;font-family:sans-serif;-inkscape-font-specification:sans-serif;letter-spacing:0px;word-spacing:0px;fill:#000000;fill-opacity:1;stroke:none;stroke-width:1px;stroke-linecap:butt;stroke-linejoin:miter;stroke-opacity:1"
           id="flowRoot1553-5"
           xml:space="preserve"><flowRegion
             id="flowRegion1555-0"><rect
               y="-56.281712"
               x="444.28571"
               height="41.42857"
               width="158.57143"
               id="rect1557-3" /></flowRegion><flowPara
             style="font-weight:bold;font-size:26.66666603px"
             id="flowPara1561-6">Detection</flowPara></flowRoot>        <flowRoot
           transform="matrix(0,-0.75000002,-0.75000002,0,590.48162,286.27488)"
           style="font-style:normal;font-variant:normal;font-weight:normal;font-stretch:normal;font-size:15px;line-height:16.66666603px;font-family:sans-serif;-inkscape-font-specification:sans-serif;letter-spacing:0px;word-spacing:0px;fill:#000000;fill-opacity:1;stroke:none;stroke-width:1px;stroke-linecap:butt;stroke-linejoin:miter;stroke-opacity:1"
           id="flowRoot1591"
           xml:space="preserve"><flowRegion
             id="flowRegion1593"><rect
               y="-88.424568"
               x="-373.57144"
               height="47.142857"
               width="249.28572"
               id="rect1595" /></flowRegion><flowPara
             style="font-weight:bold;font-size:21.33333397px"
             id="flowPara1597">WPRZ.EHZ</flowPara></flowRoot>      </g>
      <flowRoot
         xml:space="preserve"
         id="flowRoot1677"
         style="font-style:normal;font-variant:normal;font-weight:normal;font-stretch:normal;font-size:15px;line-height:16.66666603px;font-family:sans-serif;-inkscape-font-specification:sans-serif;letter-spacing:0px;word-spacing:0px;fill:#4874f9;fill-opacity:1;stroke:none;stroke-width:1px;stroke-linecap:butt;stroke-linejoin:miter;stroke-opacity:1;"
         transform="matrix(0.75000002,0,0,-0.75000002,-70.848889,622.61423)"
         inkscape:export-xdpi="150"
         inkscape:export-ydpi="150"><flowRegion
           id="flowRegion1679"
           style="fill:#4874f9;fill-opacity:1;"><rect
             id="rect1681"
             width="264.99994"
             height="81.428566"
             x="922.14288"
             y="415.73727"
             style="fill:#4874f9;fill-opacity:1;" /></flowRegion><flowPara
           id="flowPara1683"
           style="font-weight:bold;font-size:42.66666794px;fill:#4874f9;fill-opacity:1;"> = 0.779</flowPara></flowRoot>    </g>
  </g>
</svg>
