<?xml version="1.0" encoding="UTF-8" standalone="no"?>
<!-- Created with Inkscape (http://www.inkscape.org/) -->

<svg
   xmlns:dc="http://purl.org/dc/elements/1.1/"
   xmlns:cc="http://creativecommons.org/ns#"
   xmlns:rdf="http://www.w3.org/1999/02/22-rdf-syntax-ns#"
   xmlns:svg="http://www.w3.org/2000/svg"
   xmlns="http://www.w3.org/2000/svg"
   xmlns:sodipodi="http://sodipodi.sourceforge.net/DTD/sodipodi-0.dtd"
   xmlns:inkscape="http://www.inkscape.org/namespaces/inkscape"
   version="1.1"
   id="svg1209"
   xml:space="preserve"
   width="1218.5725"
   height="589.25897"
   viewBox="0 0 1218.5725 589.25897"
   sodipodi:docname="Stefan_thesis_spicker_waveform.svg"
   inkscape:version="0.92.4 5da689c313, 2019-01-14"
   inkscape:export-filename="/home/chet/figures/NZ/overview_figs/Stefan_thesis_spicker_waveform.png"
   inkscape:export-xdpi="299.70001"
   inkscape:export-ydpi="299.70001"><metadata
     id="metadata1215"><rdf:RDF><cc:Work
         rdf:about=""><dc:format>image/svg+xml</dc:format><dc:type
           rdf:resource="http://purl.org/dc/dcmitype/StillImage" /><dc:title></dc:title></cc:Work></rdf:RDF></metadata><defs
     id="defs1213"><clipPath
       clipPathUnits="userSpaceOnUse"
       id="clipPath1227"><path
         d="M 60.48,260.64 H 933.12 V 429.12 H 60.48 Z"
         id="path1225"
         inkscape:connector-curvature="0" /></clipPath><clipPath
       clipPathUnits="userSpaceOnUse"
       id="clipPath1241"><path
         d="M 59.04,259.2 H 948.96 V 444.96 H 59.04 Z"
         id="path1239"
         inkscape:connector-curvature="0" /></clipPath><clipPath
       clipPathUnits="userSpaceOnUse"
       id="clipPath1257"><path
         d="M 60.48,260.64 H 933.12 V 429.12 H 60.48 Z"
         id="path1255"
         inkscape:connector-curvature="0" /></clipPath><clipPath
       clipPathUnits="userSpaceOnUse"
       id="clipPath1319"><path
         d="M 60.48,74.88 H 933.12 V 243.36 H 60.48 Z"
         id="path1317"
         inkscape:connector-curvature="0" /></clipPath><clipPath
       clipPathUnits="userSpaceOnUse"
       id="clipPath1383"><path
         d="M 59.04,73.44 H 948.96 V 259.2 H 59.04 Z"
         id="path1381"
         inkscape:connector-curvature="0" /></clipPath><clipPath
       clipPathUnits="userSpaceOnUse"
       id="clipPath1399"><path
         d="M 60.48,74.88 H 933.12 V 243.36 H 60.48 Z"
         id="path1397"
         inkscape:connector-curvature="0" /></clipPath></defs><sodipodi:namedview
     pagecolor="#ffffff"
     bordercolor="#666666"
     borderopacity="1"
     objecttolerance="10"
     gridtolerance="10"
     guidetolerance="10"
     inkscape:pageopacity="0"
     inkscape:pageshadow="2"
     inkscape:window-width="3840"
     inkscape:window-height="2032"
     id="namedview1211"
     showgrid="false"
     inkscape:zoom="2.25"
     inkscape:cx="626.35695"
     inkscape:cy="274.58319"
     inkscape:window-x="1920"
     inkscape:window-y="54"
     inkscape:window-maximized="1"
     inkscape:current-layer="g1217"
     showguides="true"
     inkscape:guide-bbox="true"
     fit-margin-top="0"
     fit-margin-left="0"
     fit-margin-right="0"
     fit-margin-bottom="0"><sodipodi:guide
       position="1177.0236,343.91653"
       orientation="1,0"
       id="guide1472"
       inkscape:locked="false" /></sodipodi:namedview><g
     id="g1217"
     inkscape:groupmode="layer"
     inkscape:label="Stefan_thesis_spicker_waveform"
     transform="matrix(1.3333333,0,0,-1.3333333,-26.087498,611.12021)"><g
       id="g1219" /><g
       id="g1221"><g
         id="g1223"
         clip-path="url(#clipPath1227)"><path
           d="m 0,354.79 0.46,0.12 2.31,-0.36 2.3,-1.75 2.31,-2.44 2.31,-1.32 2.31,-0.04 2.31,2.05 2.31,3.3 2.31,2.62 2.3,0.85 2.31,0.41 2.31,0.79 2.31,0.57 2.31,-0.81 2.31,-2.66 2.31,-3.17 2.3,-1.37 2.31,0.33 2.31,0.56 2.31,0.99 2.31,1.62 2.31,1.49 2.31,1.12 2.3,-0.11 2.31,-1.76 2.31,-1.56 2.31,0.25 2.31,0.97 2.31,0.87 2.31,-0.39 2.3,-0.9 2.31,0.92 2.31,1.17 2.31,0.27 2.31,0.11 2.31,-2.37 2.31,-2.43 2.3,-1.37 2.31,-0.93 2.31,0.06 2.31,1.48 2.31,1.85 2.31,1.54 2.31,-0.15 2.3,-0.56 h 2.31 l 2.31,0.58 2.31,0.65 2.31,-0.25 2.31,-1 2.31,-0.36 2.3,0.8 2.31,2 2.31,0.83 2.31,-1.61 2.31,0.4 2.31,1.29 2.31,-0.31 2.3,-0.69 2.31,-1.29 2.31,0.08 2.31,-1.12 2.31,-0.96 2.31,0.91 2.31,0.91 2.3,-1.03 2.31,-0.28 2.31,0.31 2.31,0.14 2.31,-1.63 2.31,-0.3 2.31,0.7 2.3,-0.5 2.31,-0.97 2.31,0.79 2.31,1.33 2.31,-0.01 2.31,0.43 2.31,1.41 2.3,0.62 2.31,0.11 2.31,-0.06 2.31,1 2.31,-0.12 2.31,0.77 2.31,0.49 2.3,-1.11 2.31,-2.92 2.31,-2.01 2.31,-1.45 2.31,0.11 2.31,0.19 2.31,1.83 2.3,0.53 2.31,2.64 2.31,1.6 2.31,-0.6 2.31,3.1 2.31,-1.39 2.31,-2.84 2.3,-3.07 2.31,-2.15 2.31,-4.93 2.31,11.53 2.31,3.27 2.31,-32.07 2.31,16.11 2.3,31.31 2.31,-5.44 2.31,-27.88 2.31,3.81 2.31,20.02 2.31,-4.75 2.31,-16.05 2.3,18.33 2.31,14.88 2.31,-27.68 2.31,-21.85 2.31,19.61 2.31,16.46 2.31,-21.96 2.3,0.5 2.31,24.5 2.31,-2.46 2.31,-28.48 2.31,4.67 2.31,23.2 2.31,-2.47 2.3,-10.41 2.31,-2.16 2.31,14.77 2.31,-8.17 2.31,-5.4 2.31,8.55 2.31,-5.27 2.3,3.36 2.31,-5.7 2.31,-13.49 2.31,7.71 2.31,1.43 2.31,-8.36 2.31,22.58 2.3,19.79 2.31,-12.82 2.31,-16.88 2.31,-0.2 2.31,-12.99 2.31,-4.67 2.31,26.71 2.3,16.43 2.31,-16.46 2.31,-15.12 2.31,8.59 2.31,8.61 2.31,-18.04 2.31,-0.61 2.3,22.3 2.31,-5.37 2.31,-11.46 2.31,2.44 2.31,4.36 2.31,-11.62 2.31,-3.36 2.3,24.88 2.31,5.08 2.31,-25.24 2.31,-18.57 2.31,16.16 2.31,15.06 2.31,-1.08 2.3,2.5 2.31,18.98 2.31,-13.34 2.31,-30.92 2.31,-0.56 2.31,13.33 2.31,13.6 2.3,8.54 2.31,0.36 2.31,0.5 2.31,-15.82 2.31,-24.91 2.31,6.91 2.31,21.07 2.3,-4.77 2.31,-7.64 2.31,15.06 2.31,0.29 2.31,-27.26 2.31,1.86 2.31,23.33 2.3,10.57 2.31,1.92 2.31,-6.7 2.31,-2.24 2.31,-3.95 2.31,-14.85 2.31,-2.6 2.3,11.7 2.31,6.25 2.31,-2.61 2.31,-2.46 2.31,0.66 2.31,-1.42 2.31,-3.69 2.3,3.55 2.31,3.27 2.31,-11.66 2.31,-1.96 2.31,25.96 2.31,5.56 2.31,-17.74 2.3,-1.47 2.31,4.94 2.31,-10.46 2.31,-5.58 2.31,-4.72 2.31,-5.45 2.31,-4.73 2.3,4.87 2.31,15.34 2.31,7.12 2.31,11.64 2.31,3.26 2.31,-16.28 2.31,1.91 2.3,16.41 2.31,14.06 2.31,15.26 2.31,12.32 2.31,-30.18 2.31,-61.09 2.31,-47.86 2.3,-9.81 2.31,35.93 2.31,58.6 2.31,43.82 2.31,17.65 2.31,-14.96 2.31,-43.26 2.3,-42.23 2.31,-16.31 2.31,14.88 2.31,26.47 2.31,23.33 2.31,4.78 2.31,-12.4 2.3,-17.5 2.31,-18 2.31,-1.74 2.31,19.53 2.31,22.17 2.31,17.26 2.31,-6.54 2.3,-17.05 2.31,-6.99 2.31,4.56 2.31,-5.04 2.31,-5.12 2.31,8.28 2.31,-0.85 2.3,-6.88 2.31,-0.13 2.31,6.82 2.31,7.76 2.31,9.21 2.31,-3.43 2.31,-17.52 2.3,-14.64 2.31,-3.1 2.31,-2.84 2.31,2.01 2.31,13.18 2.31,6.48 2.31,4.34 2.3,11.73 2.31,6.1 2.31,4.74 2.31,2.25 2.31,-12.57 2.31,-18.88 2.31,-9.27 2.3,-1.79 2.31,5.45 2.31,9.29 2.31,5.8 2.31,4.65 2.31,4.07 2.31,-9.75 2.3,-18.31 2.31,-13.01 2.31,-2.59 2.31,18.78 2.31,30.03 2.31,22.29 2.31,-7.91 2.3,-35.99 2.31,-27.79 2.31,-3.64 2.31,3.57 2.31,15.86 2.31,39.64 2.31,19.62 2.3,-20.69 2.31,-36.18 2.31,-17.16 2.31,11.46 2.31,20.05 2.31,16.06 2.31,7.27 2.3,-7.15 2.31,-19.8 2.31,-11.87 2.31,9.77 2.31,11.47 2.31,-10.35 2.31,-12.41 2.3,4.73 2.31,7.32 2.31,-1.29 2.31,-0.11 2.31,1.51 2.31,-1.99 2.31,1.69 2.3,-2.87 2.31,-9.34 2.31,5.95 2.31,23.53 2.31,19.57 2.31,3.14 2.31,-16.94 2.3,-25.69 2.31,-14.22 2.31,0.51 2.31,12.74 2.31,9.74 2.31,-5.94 2.31,-2.98 2.3,6.56 2.31,5.91 2.31,3.59 2.31,-2.12 2.31,-3.85 2.31,-9.89 2.31,-15.86 2.3,-4.24 2.31,15.32 2.31,19.74 2.31,8.39 2.31,-7.79 2.31,-7.24 2.31,6.39 2.3,4.44 2.31,-7.69 2.31,-9.12 2.31,-10.12 2.31,-7.92 2.31,-1.53 2.31,7.83 2.3,19.86 2.31,15.36 2.31,1.17 2.31,-10.18 2.31,-16.76 2.31,-8.08 2.31,10.54 2.3,13.37 2.31,-1.28 2.31,-10.45 2.31,-9.66 2.31,-3.45 2.31,6.03 2.31,9.78 2.3,7.62 2.31,2.74 2.31,-0.12 2.31,-1.07 2.31,-4.02 2.31,-5.26 2.31,-5.41 2.3,-1.9 2.31,2.51 2.31,1.46 2.31,-1.49 2.31,0.26 2.31,-0.11 2.31,-3.74 2.3,2.32 2.31,8.9 2.31,3.92 2.31,-3.46 2.31,-10.32 2.31,-9.96 2.31,-1.6 2.3,2.97 2.31,6.9 2.31,11.5 2.31,11.96 2.31,7.11 2.31,0.32 2.31,-3.73 2.3,-8.09 2.31,-14.36 2.31,-12.03 2.31,-2.12 2.31,5.54 2.31,10.35 2.31,11.05 2.3,4.75 2.31,-4.87 2.31,-6.21 2.31,-4.54 2.31,-7.81 2.31,-8.26 2.31,-2.4 2.3,5.91 2.31,6.62 2.31,2.22 2.31,1.36 2.31,7.91 2.31,11.15 2.31,7.23 2.3,-1.55 2.31,-11.31 2.31,-16.03 2.31,-9.95 2.31,0.16 2.31,7.05 2.31,10.74 2.3,6.21 2.31,1.26 2.31,-3.54 2.31,-7.69 2.31,-5.61 2.31,0.71 2.31,3.63 2.3,-0.13 1.01,-2.91"
           style="fill:none;stroke:#000000;stroke-width:1.41732287;stroke-linecap:round;stroke-linejoin:round;stroke-miterlimit:10;stroke-dasharray:none;stroke-opacity:1"
           id="path1229"
           inkscape:connector-curvature="0" /></g></g><g
       id="g1231"><path
         d="M 60.48,260.64 H 933.12 V 429.12 H 60.48 V 260.64"
         style="fill:none;stroke:#000000;stroke-width:0.75;stroke-linecap:round;stroke-linejoin:round;stroke-miterlimit:10;stroke-dasharray:none;stroke-opacity:1"
         id="path1233"
         inkscape:connector-curvature="0" /></g><g
       id="g1235"><g
         id="g1237"
         clip-path="url(#clipPath1241)"><text
           transform="matrix(1,0,0,-1,485.47,205.92)"
           style="font-variant:normal;font-weight:normal;font-size:12px;font-family:Helvetica;-inkscape-font-specification:Helvetica;writing-mode:lr-tb;fill:#000000;fill-opacity:1;fill-rule:nonzero;stroke:none"
           id="text1245"><tspan
             x="0 3.336 6 15.996"
             y="0"
             sodipodi:role="line"
             id="tspan1243">time</tspan></text>
<text
           transform="matrix(0,1,1,0,14.4,340.88)"
           style="font-variant:normal;font-weight:normal;font-size:12px;font-family:Helvetica;-inkscape-font-specification:Helvetica;writing-mode:lr-tb;fill:#000000;fill-opacity:1;fill-rule:nonzero;stroke:none"
           id="text1249"><tspan
             x="0"
             y="0"
             id="tspan1247">E</tspan></text>
</g></g><g
       id="g1251"><g
         id="g1253"
         clip-path="url(#clipPath1257)"><path
           d="M 497.49,260.64 V 429.12"
           style="fill:none;stroke:#ff0000;stroke-width:2.26771665;stroke-linecap:round;stroke-linejoin:round;stroke-miterlimit:10;stroke-dasharray:none;stroke-opacity:1"
           id="path1261"
           inkscape:connector-curvature="0" /><path
           d="M 485.95,260.64 V 429.12"
           style="fill:none;stroke:#a020f0;stroke-width:2.26771665;stroke-linecap:round;stroke-linejoin:round;stroke-miterlimit:10;stroke-dasharray:none;stroke-opacity:1"
           id="path1263"
           inkscape:connector-curvature="0" /><path
           d="M 472.1,260.64 V 429.12"
           style="fill:none;stroke:#ffa500;stroke-width:2.26771665;stroke-linecap:round;stroke-linejoin:round;stroke-miterlimit:10;stroke-dasharray:none;stroke-opacity:1"
           id="path1265"
           inkscape:connector-curvature="0" /><text
           transform="scale(1,-1)"
           style="font-variant:normal;font-weight:normal;font-size:24px;font-family:Helvetica;-inkscape-font-specification:Helvetica;writing-mode:lr-tb;fill:#000000;fill-opacity:1;fill-rule:nonzero;stroke:none"
           id="text1269"
           x="900.29999"
           y="-397.95001"><tspan
             x="900.29999"
             y="-397.95001"
             id="tspan1267"
             style="font-style:normal;font-variant:normal;font-weight:bold;font-stretch:normal;font-family:sans-serif;-inkscape-font-specification:'sans-serif Bold'">E</tspan></text>
</g></g><g
       id="g1297"><path
         d="M 60.48,276.33 V 407.51"
         style="fill:none;stroke:#000000;stroke-width:0.75;stroke-linecap:round;stroke-linejoin:round;stroke-miterlimit:10;stroke-dasharray:none;stroke-opacity:1"
         id="path1299"
         inkscape:connector-curvature="0" /><path
         d="m 60.48,276.33 h -7.2"
         style="fill:none;stroke:#000000;stroke-width:0.75;stroke-linecap:round;stroke-linejoin:round;stroke-miterlimit:10;stroke-dasharray:none;stroke-opacity:1"
         id="path1301"
         inkscape:connector-curvature="0" /><path
         d="m 60.48,302.57 h -7.2"
         style="fill:none;stroke:#000000;stroke-width:0.75;stroke-linecap:round;stroke-linejoin:round;stroke-miterlimit:10;stroke-dasharray:none;stroke-opacity:1"
         id="path1303"
         inkscape:connector-curvature="0" /><path
         d="m 60.48,328.8 h -7.2"
         style="fill:none;stroke:#000000;stroke-width:0.75;stroke-linecap:round;stroke-linejoin:round;stroke-miterlimit:10;stroke-dasharray:none;stroke-opacity:1"
         id="path1305"
         inkscape:connector-curvature="0" /><path
         d="m 60.48,355.04 h -7.2"
         style="fill:none;stroke:#000000;stroke-width:0.75;stroke-linecap:round;stroke-linejoin:round;stroke-miterlimit:10;stroke-dasharray:none;stroke-opacity:1"
         id="path1307"
         inkscape:connector-curvature="0" /><path
         d="m 60.48,381.27 h -7.2"
         style="fill:none;stroke:#000000;stroke-width:0.75;stroke-linecap:round;stroke-linejoin:round;stroke-miterlimit:10;stroke-dasharray:none;stroke-opacity:1"
         id="path1309"
         inkscape:connector-curvature="0" /><path
         d="m 60.48,407.51 h -7.2"
         style="fill:none;stroke:#000000;stroke-width:0.75;stroke-linecap:round;stroke-linejoin:round;stroke-miterlimit:10;stroke-dasharray:none;stroke-opacity:1"
         id="path1311"
         inkscape:connector-curvature="0" /></g><g
       id="g1313"><g
         id="g1315"
         clip-path="url(#clipPath1319)"><path
           d="m 0,160.56 0.46,0.05 2.31,-0.96 2.3,-0.62 2.31,1.1 2.31,0.73 2.31,-0.07 2.31,0.33 2.31,1.19 2.31,0.78 2.3,0.14 2.31,-0.54 2.31,-1.9 2.31,-1.41 2.31,0.04 2.31,1.16 2.31,2.17 2.3,2.06 2.31,-1.17 2.31,-4.77 2.31,-4.69 2.31,-1.4 2.31,2.81 2.31,4.52 2.3,2.7 2.31,-0.06 2.31,-0.95 2.31,-1.54 2.31,-0.51 2.31,0.75 2.31,1.7 2.3,1.36 2.31,-0.27 2.31,-0.56 2.31,1.66 2.31,1.41 2.31,-0.4 2.31,-2.08 2.3,-3.97 2.31,-4.16 2.31,-2.91 2.31,0.15 2.31,1.92 2.31,3 2.31,1.86 2.3,-0.37 2.31,-0.12 2.31,1.44 2.31,2.13 2.31,2.5 2.31,1.23 2.31,-0.36 2.3,-0.17 2.31,-0.25 2.31,-1.88 2.31,-1.9 2.31,-0.58 2.31,-0.15 2.31,0.22 2.3,-1.03 2.31,0.12 2.31,0.32 2.31,-0.44 2.31,-0.93 2.31,-0.21 2.31,0.61 2.3,1.01 2.31,-0.29 2.31,-1.22 2.31,-0.95 2.31,0.28 2.31,0.94 2.31,1.59 2.3,1.48 2.31,-0.46 2.31,-1.68 2.31,-1.08 2.31,-0.18 2.31,0.66 2.31,1.67 2.3,1.62 2.31,0.83 2.31,0.01 2.31,-1.31 2.31,-0.19 2.31,1.35 2.31,0.49 2.3,-1.69 2.31,-2.69 2.31,-1.23 2.31,0.17 2.31,1.16 2.31,0.41 2.31,-0.92 2.3,-1.24 2.31,-0.41 2.31,0.64 2.31,3.22 2.31,1.87 2.31,1.26 2.31,-0.37 2.3,-3.92 2.31,-3.03 2.31,-1.92 2.31,11.3 2.31,-9.5 2.31,-12.32 2.31,8.82 2.3,18.03 2.31,5.72 2.31,-12.48 2.31,-3.62 2.31,-3.05 2.31,3.95 2.31,-10.99 2.3,1.17 2.31,22.04 2.31,10.73 2.31,-15.33 2.31,-24.9 2.31,-5.09 2.31,14.84 2.3,7.27 2.31,-2.13 2.31,4.05 2.31,15.52 2.31,-11.02 2.31,-20.54 2.31,2.33 2.3,0.38 2.31,6.68 2.31,9.84 2.31,7.47 2.31,-4.44 2.31,-20.11 2.31,-9.68 2.3,16.91 2.31,8.61 2.31,3.01 2.31,-8.37 2.31,-4.06 2.31,2.65 2.31,13.5 2.3,-3.83 2.31,1.47 2.31,4.55 2.31,-8.13 2.31,-19.28 2.31,-4.12 2.31,9.58 2.3,8.97 2.31,8.04 2.31,2.33 2.31,-5.59 2.31,-14.95 2.31,-13.02 2.31,11.68 2.3,10.38 2.31,5.22 2.31,6.96 2.31,-0.15 2.31,-5.47 2.31,-7.4 2.31,3.25 2.3,-8.39 2.31,-6.28 2.31,8.6 2.31,2.36 2.31,-9.77 2.31,-4.14 2.31,10.8 2.3,16.31 2.31,-0.29 2.31,-8.13 2.31,-2.91 2.31,-4.92 2.31,-2.22 2.31,12.24 2.3,8.3 2.31,2.58 2.31,-8.79 2.31,-8.1 2.31,3.3 2.31,4.64 2.31,-6.49 2.3,-12.44 2.31,-2.83 2.31,10.13 2.31,12.02 2.31,-0.31 2.31,-9.67 2.31,-7.32 2.3,2.15 2.31,-2.79 2.31,-3.89 2.31,12.94 2.31,11.2 2.31,4.73 2.31,-7.39 2.3,-9.69 2.31,2.64 2.31,-3.06 2.31,-5.12 2.31,5.39 2.31,2.36 2.31,2.85 2.3,4.91 2.31,-3.78 2.31,-9.32 2.31,-3.72 2.31,-5.92 2.31,11.87 2.31,23.79 2.3,11.68 2.31,-5.41 2.31,-28.72 2.31,-21.59 2.31,-11.74 2.31,0.3 2.31,-1.3 2.3,2.18 2.31,30.23 2.31,7.19 2.31,22.1 2.31,50.82 2.31,-10.77 2.31,-46.98 2.3,-27.83 2.31,-5.88 2.31,13.34 2.31,3.03 2.31,-8.85 2.31,1.19 2.31,23.12 2.3,14.75 2.31,-13.14 2.31,-28.73 2.31,-41.71 2.31,-8.57 2.31,28.31 2.31,2.83 2.3,6.94 2.31,26.19 2.31,12.81 2.31,12.12 2.31,2.38 2.31,-21.55 2.31,-12.05 2.3,12.41 2.31,6.84 2.31,-20.73 2.31,-13.07 2.31,22.8 2.31,24.01 2.31,-1.41 2.3,-14.12 2.31,-24.66 2.31,-19.99 2.31,2.86 2.31,21.28 2.31,13.3 2.31,-1.45 2.3,-5.64 2.31,-0.9 2.31,0.4 2.31,-0.05 2.31,7.88 2.31,-17.46 2.31,-24.13 2.3,7.47 2.31,23.09 2.31,23.84 2.31,13.26 2.31,-4.2 2.31,-14.14 2.31,-27.55 2.3,-20.45 2.31,14.27 2.31,18.39 2.31,3.6 2.31,12.07 2.31,12.78 2.31,-9.09 2.3,-11.14 2.31,-8.96 2.31,-13.19 2.31,1.75 2.31,15.14 2.31,1.03 2.31,4.25 2.3,25.33 2.31,-2.22 2.31,-40.62 2.31,-53.58 2.31,-16.25 2.31,39.7 2.31,48.92 2.3,24.28 2.31,2.6 2.31,-8.19 2.31,-25.36 2.31,-31.15 2.31,3.15 2.31,35.61 2.3,36.31 2.31,4.42 2.31,-27.33 2.31,-26.27 2.31,-23.24 2.31,-13.53 2.31,10.92 2.3,24.29 2.31,12.18 2.31,-12.86 2.31,-9.74 2.31,8.79 2.31,7.19 2.31,-0.76 2.3,3.02 2.31,13.23 2.31,16.72 2.31,-3.3 2.31,-27.76 2.31,-16.92 2.31,-1.24 2.3,1.29 2.31,8.81 2.31,8.75 2.31,-1.09 2.31,-6.92 2.31,1.78 2.31,5.21 2.3,4.94 2.31,6.73 2.31,-5.04 2.31,-19.37 2.31,-17.78 2.31,4.25 2.31,23.03 2.3,16.32 2.31,-8.1 2.31,-14.57 2.31,-0.24 2.31,15.23 2.31,13.78 2.31,3.27 2.3,-1.56 2.31,-5.51 2.31,-16.89 2.31,-19.2 2.31,-6.48 2.31,9.58 2.31,13.05 2.3,0.42 2.31,-7.79 2.31,-9.83 2.31,-7.7 2.31,12.91 2.31,26.56 2.31,15.3 2.3,5.61 2.31,-3.31 2.31,-17.62 2.31,-17.23 2.31,-5.15 2.31,4.55 2.31,4.37 2.3,-2.91 2.31,0.8 2.31,6.98 2.31,-6.18 2.31,-5.2 2.31,3.01 2.31,3.47 2.3,7.85 2.31,4.43 2.31,-2.05 2.31,-4.7 2.31,-11.76 2.31,-9.53 2.31,-2.21 2.3,7.14 2.31,14.65 2.31,9.96 2.31,2.49 2.31,-6.51 2.31,-10.39 2.31,-1.51 2.3,6 2.31,1.17 2.31,-10.34 2.31,-7.12 2.31,5.17 2.31,8.48 2.31,7.06 2.3,6.68 2.31,3.82 2.31,-1.24 2.31,-7.18 2.31,-11.89 2.31,-12.33 2.31,-6 2.3,4.96 2.31,11.8 2.31,14.12 2.31,12.19 2.31,1.06 2.31,-18.23 2.31,-23.84 2.3,-8.06 2.31,12.9 2.31,23.36 2.31,11.34 2.31,-5.96 2.31,-12.31 2.31,-11.77 2.3,-3.28 2.31,5.64 2.31,9.28 2.31,1.29 2.31,-12.19 2.31,-8.6 2.31,11.87 2.3,23.75 2.31,15.67 2.31,-2.98 2.31,-19.28 2.31,-20.64 2.31,-15.33 2.31,-4.57 2.3,9.01 2.31,13.34 2.31,6.39 2.31,-1.13 2.31,0.58 2.31,6.66 2.31,7.79 2.3,5.74 1.01,0.94"
           style="fill:none;stroke:#000000;stroke-width:1.41732287;stroke-linecap:round;stroke-linejoin:round;stroke-miterlimit:10;stroke-dasharray:none;stroke-opacity:1"
           id="path1321"
           inkscape:connector-curvature="0" /></g></g><g
       id="g1323"><path
         d="m 92.8,74.88 h 808"
         style="fill:none;stroke:#000000;stroke-width:0.75;stroke-linecap:round;stroke-linejoin:round;stroke-miterlimit:10;stroke-dasharray:none;stroke-opacity:1"
         id="path1325"
         inkscape:connector-curvature="0" /><path
         d="m 92.8,74.88 v -7.2"
         style="fill:none;stroke:#000000;stroke-width:0.75;stroke-linecap:round;stroke-linejoin:round;stroke-miterlimit:10;stroke-dasharray:none;stroke-opacity:1"
         id="path1327"
         inkscape:connector-curvature="0" /><path
         d="m 208.23,74.88 v -7.2"
         style="fill:none;stroke:#000000;stroke-width:0.75;stroke-linecap:round;stroke-linejoin:round;stroke-miterlimit:10;stroke-dasharray:none;stroke-opacity:1"
         id="path1329"
         inkscape:connector-curvature="0" /><path
         d="m 323.66,74.88 v -7.2"
         style="fill:none;stroke:#000000;stroke-width:0.75;stroke-linecap:round;stroke-linejoin:round;stroke-miterlimit:10;stroke-dasharray:none;stroke-opacity:1"
         id="path1331"
         inkscape:connector-curvature="0" /><path
         d="m 439.09,74.88 v -7.2"
         style="fill:none;stroke:#000000;stroke-width:0.75;stroke-linecap:round;stroke-linejoin:round;stroke-miterlimit:10;stroke-dasharray:none;stroke-opacity:1"
         id="path1333"
         inkscape:connector-curvature="0" /><path
         d="m 554.51,74.88 v -7.2"
         style="fill:none;stroke:#000000;stroke-width:0.75;stroke-linecap:round;stroke-linejoin:round;stroke-miterlimit:10;stroke-dasharray:none;stroke-opacity:1"
         id="path1335"
         inkscape:connector-curvature="0" /><path
         d="m 669.94,74.88 v -7.2"
         style="fill:none;stroke:#000000;stroke-width:0.75;stroke-linecap:round;stroke-linejoin:round;stroke-miterlimit:10;stroke-dasharray:none;stroke-opacity:1"
         id="path1337"
         inkscape:connector-curvature="0" /><path
         d="m 785.37,74.88 v -7.2"
         style="fill:none;stroke:#000000;stroke-width:0.75;stroke-linecap:round;stroke-linejoin:round;stroke-miterlimit:10;stroke-dasharray:none;stroke-opacity:1"
         id="path1339"
         inkscape:connector-curvature="0" /><path
         d="m 900.8,74.88 v -7.2"
         style="fill:none;stroke:#000000;stroke-width:0.75;stroke-linecap:round;stroke-linejoin:round;stroke-miterlimit:10;stroke-dasharray:none;stroke-opacity:1"
         id="path1341"
         inkscape:connector-curvature="0" /><text
         transform="scale(1,-1)"
         style="font-variant:normal;font-weight:normal;font-size:12px;font-family:Helvetica;-inkscape-font-specification:Helvetica;writing-mode:lr-tb;fill:#000000;fill-opacity:1;fill-rule:nonzero;stroke:none"
         id="text1345"
         x="78.459999"
         y="-47.459999"><tspan
           sodipodi:role="line"
           id="tspan1343"
           x="78.459999"
           y="-47.459999"
           style="font-style:normal;font-variant:normal;font-weight:normal;font-stretch:normal;font-size:20px;font-family:sans-serif;-inkscape-font-specification:sans-serif">3.0</tspan></text>
<text
         transform="scale(1,-1)"
         style="font-variant:normal;font-weight:normal;font-size:12px;font-family:Helvetica;-inkscape-font-specification:Helvetica;writing-mode:lr-tb;fill:#000000;fill-opacity:1;fill-rule:nonzero;stroke:none"
         id="text1349"
         x="193.89"
         y="-47.459999"><tspan
           sodipodi:role="line"
           id="tspan1347"
           x="193.89"
           y="-47.459999"
           style="font-style:normal;font-variant:normal;font-weight:normal;font-stretch:normal;font-size:20px;font-family:sans-serif;-inkscape-font-specification:sans-serif">3.5</tspan></text>
<text
         transform="scale(1,-1)"
         style="font-variant:normal;font-weight:normal;font-size:12px;font-family:Helvetica;-inkscape-font-specification:Helvetica;writing-mode:lr-tb;fill:#000000;fill-opacity:1;fill-rule:nonzero;stroke:none"
         id="text1353"
         x="309.32001"
         y="-47.459999"><tspan
           sodipodi:role="line"
           id="tspan1351"
           x="309.32001"
           y="-47.459999"
           style="font-style:normal;font-variant:normal;font-weight:normal;font-stretch:normal;font-size:20px;font-family:sans-serif;-inkscape-font-specification:sans-serif">4.0</tspan></text>
<text
         transform="scale(1,-1)"
         style="font-variant:normal;font-weight:normal;font-size:12px;font-family:Helvetica;-inkscape-font-specification:Helvetica;writing-mode:lr-tb;fill:#000000;fill-opacity:1;fill-rule:nonzero;stroke:none"
         id="text1357"
         x="424.75"
         y="-47.459999"><tspan
           sodipodi:role="line"
           id="tspan1355"
           x="424.75"
           y="-47.459999"
           style="font-style:normal;font-variant:normal;font-weight:normal;font-stretch:normal;font-size:20px;font-family:sans-serif;-inkscape-font-specification:sans-serif">4.5</tspan></text>
<text
         transform="scale(1,-1)"
         style="font-variant:normal;font-weight:normal;font-size:12px;font-family:Helvetica;-inkscape-font-specification:Helvetica;writing-mode:lr-tb;fill:#000000;fill-opacity:1;fill-rule:nonzero;stroke:none"
         id="text1361"
         x="540.16998"
         y="-47.459999"><tspan
           sodipodi:role="line"
           id="tspan1359"
           x="540.16998"
           y="-47.459999"
           style="font-style:normal;font-variant:normal;font-weight:normal;font-stretch:normal;font-size:20px;font-family:sans-serif;-inkscape-font-specification:sans-serif">5.0</tspan></text>
<text
         transform="scale(1,-1)"
         style="font-variant:normal;font-weight:normal;font-size:12px;font-family:Helvetica;-inkscape-font-specification:Helvetica;writing-mode:lr-tb;fill:#000000;fill-opacity:1;fill-rule:nonzero;stroke:none"
         id="text1365"
         x="655.59998"
         y="-47.459999"><tspan
           sodipodi:role="line"
           id="tspan1363"
           x="655.59998"
           y="-47.459999"
           style="font-style:normal;font-variant:normal;font-weight:normal;font-stretch:normal;font-size:20px;font-family:sans-serif;-inkscape-font-specification:sans-serif">5.5</tspan></text>
<text
         transform="scale(1,-1)"
         style="font-variant:normal;font-weight:normal;font-size:12px;font-family:Helvetica;-inkscape-font-specification:Helvetica;writing-mode:lr-tb;fill:#000000;fill-opacity:1;fill-rule:nonzero;stroke:none"
         id="text1369"
         x="771.03003"
         y="-47.459999"><tspan
           sodipodi:role="line"
           id="tspan1367"
           x="771.03003"
           y="-47.459999"
           style="font-style:normal;font-variant:normal;font-weight:normal;font-stretch:normal;font-size:20px;font-family:sans-serif;-inkscape-font-specification:sans-serif">6.0</tspan></text>
<text
         transform="scale(1,-1)"
         style="font-variant:normal;font-weight:normal;font-size:12px;font-family:Helvetica;-inkscape-font-specification:Helvetica;writing-mode:lr-tb;fill:#000000;fill-opacity:1;fill-rule:nonzero;stroke:none"
         id="text1373"
         x="886.46002"
         y="-47.459999"><tspan
           sodipodi:role="line"
           id="tspan1371"
           x="886.46002"
           y="-47.459999"
           style="font-style:normal;font-variant:normal;font-weight:normal;font-stretch:normal;font-size:20px;font-family:sans-serif;-inkscape-font-specification:sans-serif">6.5</tspan></text>
<path
         d="M 60.48,74.88 H 933.12 V 243.36 H 60.48 V 74.88"
         style="fill:none;stroke:#000000;stroke-width:0.75;stroke-linecap:round;stroke-linejoin:round;stroke-miterlimit:10;stroke-dasharray:none;stroke-opacity:1"
         id="path1375"
         inkscape:connector-curvature="0" /></g><g
       id="g1377"><g
         id="g1379"
         clip-path="url(#clipPath1383)"><text
           transform="matrix(1,0,0,-1,485.47,20.16)"
           style="font-variant:normal;font-weight:normal;font-size:12px;font-family:Helvetica;-inkscape-font-specification:Helvetica;writing-mode:lr-tb;fill:#000000;fill-opacity:1;fill-rule:nonzero;stroke:none"
           id="text1387"><tspan
             x="0 3.336 6 15.996"
             y="0"
             sodipodi:role="line"
             id="tspan1385">time</tspan></text>
<text
           transform="matrix(0,1,1,0,14.4,154.79)"
           style="font-variant:normal;font-weight:normal;font-size:12px;font-family:Helvetica;-inkscape-font-specification:Helvetica;writing-mode:lr-tb;fill:#000000;fill-opacity:1;fill-rule:nonzero;stroke:none"
           id="text1391"><tspan
             x="0"
             y="0"
             id="tspan1389">N</tspan></text>
</g></g><g
       id="g1393"><g
         id="g1395"
         clip-path="url(#clipPath1399)"><text
           transform="scale(1,-1)"
           style="font-variant:normal;font-weight:normal;font-size:24px;font-family:Helvetica;-inkscape-font-specification:Helvetica;writing-mode:lr-tb;fill:#000000;fill-opacity:1;fill-rule:nonzero;stroke:none"
           id="text1403"
           x="899.64001"
           y="-210.89999"><tspan
             x="899.64001"
             y="-210.89999"
             id="tspan1401"
             style="font-style:normal;font-variant:normal;font-weight:bold;font-stretch:normal;font-family:sans-serif;-inkscape-font-specification:'sans-serif Bold'">N</tspan></text>
<path
           d="M 483.64,74.88 V 243.36"
           style="fill:none;stroke:#ff0000;stroke-width:2.26771665;stroke-linecap:round;stroke-linejoin:round;stroke-miterlimit:10;stroke-dasharray:none;stroke-opacity:1"
           id="path1407"
           inkscape:connector-curvature="0" /><path
           d="M 485.95,74.88 V 243.36"
           style="fill:none;stroke:#a020f0;stroke-width:2.26771665;stroke-linecap:round;stroke-linejoin:round;stroke-miterlimit:10;stroke-dasharray:none;stroke-opacity:1"
           id="path1409"
           inkscape:connector-curvature="0" /><path
           d="M 472.1,74.88 V 243.36"
           style="fill:none;stroke:#ffa500;stroke-width:2.26771665;stroke-linecap:round;stroke-linejoin:round;stroke-miterlimit:10;stroke-dasharray:none;stroke-opacity:1"
           id="path1411"
           inkscape:connector-curvature="0" /></g></g><g
       id="g1413"><path
         d="M 60.48,78.2 V 243.13"
         style="fill:none;stroke:#000000;stroke-width:0.75;stroke-linecap:round;stroke-linejoin:round;stroke-miterlimit:10;stroke-dasharray:none;stroke-opacity:1"
         id="path1415"
         inkscape:connector-curvature="0" /><path
         d="m 60.48,78.2 h -7.2"
         style="fill:none;stroke:#000000;stroke-width:0.75;stroke-linecap:round;stroke-linejoin:round;stroke-miterlimit:10;stroke-dasharray:none;stroke-opacity:1"
         id="path1417"
         inkscape:connector-curvature="0" /><path
         d="m 60.48,105.69 h -7.2"
         style="fill:none;stroke:#000000;stroke-width:0.75;stroke-linecap:round;stroke-linejoin:round;stroke-miterlimit:10;stroke-dasharray:none;stroke-opacity:1"
         id="path1419"
         inkscape:connector-curvature="0" /><path
         d="m 60.48,133.17 h -7.2"
         style="fill:none;stroke:#000000;stroke-width:0.75;stroke-linecap:round;stroke-linejoin:round;stroke-miterlimit:10;stroke-dasharray:none;stroke-opacity:1"
         id="path1421"
         inkscape:connector-curvature="0" /><path
         d="m 60.48,160.66 h -7.2"
         style="fill:none;stroke:#000000;stroke-width:0.75;stroke-linecap:round;stroke-linejoin:round;stroke-miterlimit:10;stroke-dasharray:none;stroke-opacity:1"
         id="path1423"
         inkscape:connector-curvature="0" /><path
         d="m 60.48,188.15 h -7.2"
         style="fill:none;stroke:#000000;stroke-width:0.75;stroke-linecap:round;stroke-linejoin:round;stroke-miterlimit:10;stroke-dasharray:none;stroke-opacity:1"
         id="path1425"
         inkscape:connector-curvature="0" /><path
         d="m 60.48,215.64 h -7.2"
         style="fill:none;stroke:#000000;stroke-width:0.75;stroke-linecap:round;stroke-linejoin:round;stroke-miterlimit:10;stroke-dasharray:none;stroke-opacity:1"
         id="path1427"
         inkscape:connector-curvature="0" /><path
         d="m 60.48,243.13 h -7.2"
         style="fill:none;stroke:#000000;stroke-width:0.75;stroke-linecap:round;stroke-linejoin:round;stroke-miterlimit:10;stroke-dasharray:none;stroke-opacity:1"
         id="path1429"
         inkscape:connector-curvature="0" /><text
         transform="matrix(0,1,1,0,0,0)"
         style="font-variant:normal;font-weight:normal;font-size:12px;font-family:Helvetica;-inkscape-font-specification:Helvetica;writing-mode:lr-tb;fill:#000000;fill-opacity:1;fill-rule:nonzero;stroke:none"
         id="text1433"
         x="202.022"
         y="37.799999"><tspan
           sodipodi:role="line"
           id="tspan1431"
           x="202.022"
           y="37.799999"
           style="font-style:normal;font-variant:normal;font-weight:normal;font-stretch:normal;font-size:24px;font-family:sans-serif;-inkscape-font-specification:sans-serif">Amplitude</tspan></text>
<text
         transform="scale(1,-1)"
         style="font-variant:normal;font-weight:normal;font-size:12px;font-family:Helvetica;-inkscape-font-specification:Helvetica;writing-mode:lr-tb;fill:#000000;fill-opacity:1;fill-rule:nonzero;stroke:none"
         id="text1437"
         x="455.45999"
         y="-19.560001"><tspan
           sodipodi:role="line"
           id="tspan1435"
           style="font-style:normal;font-variant:normal;font-weight:normal;font-stretch:normal;font-size:24px;font-family:sans-serif;-inkscape-font-specification:sans-serif"
           x="455.45999"
           y="-19.560001">Time (s)</tspan></text>
</g><rect
       style="opacity:1;fill:#ffffff;fill-opacity:1;stroke:#080202;stroke-width:0.99382114;stroke-miterlimit:10;stroke-dasharray:none;stroke-dashoffset:0;stroke-opacity:1"
       id="rect1451"
       width="169.68498"
       height="78.852417"
       x="26.990845"
       y="-457.84326"
       transform="scale(1,-1)"
       ry="8.2027674" /><path
       d="m 42.613334,439.26446 h 21.6"
       style="fill:none;stroke:#ff0000;stroke-width:2.83464575;stroke-linecap:round;stroke-linejoin:round;stroke-miterlimit:10;stroke-dasharray:none;stroke-opacity:1"
       id="path1275"
       inkscape:connector-curvature="0" /><path
       d="m 42.613334,417.30888 h 21.6"
       style="fill:none;stroke:#ffa500;stroke-width:2.83464575;stroke-linecap:round;stroke-linejoin:round;stroke-miterlimit:10;stroke-dasharray:none;stroke-opacity:1"
       id="path1277"
       inkscape:connector-curvature="0" /><path
       d="m 42.613334,395.35333 h 21.6"
       style="fill:none;stroke:#a020f0;stroke-width:2.83464575;stroke-linecap:round;stroke-linejoin:round;stroke-miterlimit:10;stroke-dasharray:none;stroke-opacity:1"
       id="path1279"
       inkscape:connector-curvature="0" /><text
       transform="scale(1,-1)"
       style="font-variant:normal;font-weight:normal;font-size:12px;font-family:Helvetica;-inkscape-font-specification:Helvetica;writing-mode:lr-tb;fill:#000000;fill-opacity:1;fill-rule:nonzero;stroke:none"
       id="text1287"
       x="82.68"
       y="-434.8504"><tspan
         sodipodi:role="line"
         id="tspan1285"
         x="82.68"
         y="-434.8504"
         style="font-style:normal;font-variant:normal;font-weight:normal;font-stretch:normal;font-size:16px;font-family:sans-serif;-inkscape-font-specification:sans-serif">AIC pick</tspan></text>
<text
       transform="scale(1,-1)"
       style="font-variant:normal;font-weight:normal;font-size:12px;font-family:Helvetica;-inkscape-font-specification:Helvetica;writing-mode:lr-tb;fill:#000000;fill-opacity:1;fill-rule:nonzero;stroke:none"
       id="text1291"
       x="81.234688"
       y="-412.89481"><tspan
         sodipodi:role="line"
         id="tspan1289"
         x="81.234688"
         y="-412.89481"
         style="font-style:normal;font-variant:normal;font-weight:normal;font-stretch:normal;font-size:16px;font-family:sans-serif;-inkscape-font-specification:sans-serif">Polarity pick</tspan></text>
<text
       transform="scale(1,-1)"
       style="font-variant:normal;font-weight:normal;font-size:12px;font-family:Helvetica;-inkscape-font-specification:Helvetica;writing-mode:lr-tb;fill:#000000;fill-opacity:1;fill-rule:nonzero;stroke:none"
       id="text1295"
       x="81.750313"
       y="-390.93927"><tspan
         sodipodi:role="line"
         id="tspan1293"
         x="81.750313"
         y="-390.93927"
         style="font-style:normal;font-variant:normal;font-weight:normal;font-stretch:normal;font-size:16px;font-family:sans-serif;-inkscape-font-specification:sans-serif">STA/LTA pick</tspan></text>
</g></svg>