<?xml version="1.0" encoding="UTF-8" standalone="no"?>
<!-- Created with Inkscape (http://www.inkscape.org/) -->

<svg
   xmlns:dc="http://purl.org/dc/elements/1.1/"
   xmlns:cc="http://creativecommons.org/ns#"
   xmlns:rdf="http://www.w3.org/1999/02/22-rdf-syntax-ns#"
   xmlns:svg="http://www.w3.org/2000/svg"
   xmlns="http://www.w3.org/2000/svg"
   xmlns:sodipodi="http://sodipodi.sourceforge.net/DTD/sodipodi-0.dtd"
   xmlns:inkscape="http://www.inkscape.org/namespaces/inkscape"
   version="1.1"
   id="svg4335"
   xml:space="preserve"
   width="749.88074"
   height="762.20667"
   viewBox="0 0 749.88074 762.20666"
   sodipodi:docname="Stress_inversion_example_thesis.svg"
   inkscape:version="0.92.4 5da689c313, 2019-01-14"
   inkscape:export-filename="/home/chet/figures/NZ/overview_figs/Stress_inversion_example_thesis.png"
   inkscape:export-xdpi="200.7"
   inkscape:export-ydpi="200.7"><metadata
     id="metadata4341"><rdf:RDF><cc:Work
         rdf:about=""><dc:format>image/svg+xml</dc:format><dc:type
           rdf:resource="http://purl.org/dc/dcmitype/StillImage" /><dc:title></dc:title></cc:Work></rdf:RDF></metadata><defs
     id="defs4339"><clipPath
       clipPathUnits="userSpaceOnUse"
       id="clipPath4353"><path
         d="M 0,2880 H 3240 V 5760 H 0 Z"
         id="path4351"
         inkscape:connector-curvature="0" /></clipPath><clipPath
       clipPathUnits="userSpaceOnUse"
       id="clipPath4553"><path
         d="M 3718.1,3477.6 H 6300.7 V 5580.7 H 3718.1 Z"
         id="path4551"
         inkscape:connector-curvature="0" /></clipPath><clipPath
       clipPathUnits="userSpaceOnUse"
       id="clipPath4605"><path
         d="M 3240,2880 H 6480 V 5760 H 3240 Z"
         id="path4603"
         inkscape:connector-curvature="0" /></clipPath><clipPath
       clipPathUnits="userSpaceOnUse"
       id="clipPath4623"><path
         d="M 3718.1,3477.6 H 6300.7 V 5580.7 H 3718.1 Z"
         id="path4621"
         inkscape:connector-curvature="0" /></clipPath><clipPath
       clipPathUnits="userSpaceOnUse"
       id="clipPath4637"><path
         d="m 478.102,597.602 h 2582.6 v 2103.1 h -2582.6 z"
         id="path4635"
         inkscape:connector-curvature="0" /></clipPath><clipPath
       clipPathUnits="userSpaceOnUse"
       id="clipPath4703"><path
         d="m 3718.1,597.602 h 2582.6 v 2103.1 H 3718.1 Z"
         id="path4701"
         inkscape:connector-curvature="0" /></clipPath><clipPath
       clipPathUnits="userSpaceOnUse"
       id="clipPath4751"><path
         d="M 3240,0 H 6480 V 2880 H 3240 Z"
         id="path4749"
         inkscape:connector-curvature="0" /></clipPath><clipPath
       clipPathUnits="userSpaceOnUse"
       id="clipPath4769"><path
         d="m 590.398,734.398 h 5587.2 v 4435.2 h -5587.2 z"
         id="path4767"
         inkscape:connector-curvature="0" /></clipPath></defs><sodipodi:namedview
     pagecolor="#ffffff"
     bordercolor="#666666"
     borderopacity="1"
     objecttolerance="10"
     gridtolerance="10"
     guidetolerance="10"
     inkscape:pageopacity="0"
     inkscape:pageshadow="2"
     inkscape:window-width="3840"
     inkscape:window-height="2032"
     id="namedview4337"
     showgrid="false"
     showguides="true"
     inkscape:guide-bbox="true"
     inkscape:zoom="2.2955729"
     inkscape:cx="294.61505"
     inkscape:cy="389.05032"
     inkscape:window-x="1920"
     inkscape:window-y="54"
     inkscape:window-maximized="1"
     inkscape:current-layer="g4343"
     fit-margin-top="0"
     fit-margin-left="0"
     fit-margin-right="0"
     fit-margin-bottom="0"><sodipodi:guide
       position="405.02426,401.04104"
       orientation="1,0"
       id="guide5118"
       inkscape:locked="false" /><sodipodi:guide
       position="496.17243,341.52695"
       orientation="0,1"
       id="guide5120"
       inkscape:locked="false" /><sodipodi:guide
       position="360.25865,376.37664"
       orientation="1,0"
       id="guide5187"
       inkscape:locked="false" /></sodipodi:namedview><g
     id="g4343"
     inkscape:groupmode="layer"
     inkscape:label="ink_ext_XXXXXX"
     transform="matrix(1.3333333,0,0,-1.3333333,-90.712547,781.53997)"><g
       transform="matrix(0.1,0,0,0.1,27.994612,-105.65428)"
       id="g4347"><g
         clip-path="url(#clipPath4353)"
         id="g4349"><path
           inkscape:connector-curvature="0"
           id="path4355"
           style="fill:none;stroke:#000000;stroke-width:15;stroke-linecap:round;stroke-linejoin:round;stroke-miterlimit:10;stroke-dasharray:none;stroke-opacity:1"
           d="m 2832.1,4320 -2.4,76.1 -7.1,75.8 -11.9,75.2 -16.7,74.3 -21.2,73.2 -25.8,71.6 -30.2,69.9 -34.6,67.8 -38.8,65.6 -42.8,63 -46.6,60.1 -50.4,57.2 -53.8,53.8 -57.2,50.4 -60.1,46.6 -63,42.8 -65.6,38.8 -67.8,34.6 -69.9,30.2 -71.6,25.8 -73.2,21.2 -74.3,16.7 -75.2,11.9 -75.8,7.1 -76.1,2.4 -76.1,-2.4 -75.8,-7.1 -75.2,-11.9 -74.3,-16.7 -73.2,-21.2 -71.6,-25.8 -69.9,-30.2 -67.8,-34.6 -65.6,-38.8 -63,-42.8 -60.102,-46.6 -57.199,-50.4 -53.801,-53.8 -50.398,-57.2 -46.602,-60.1 -42.796,-63 -38.801,-65.6 -34.602,-67.8 L 493,4766.2 467.199,4694.6 446,4621.4 l -16.699,-74.3 -11.903,-75.2 -7.097,-75.8 -2.403,-76.1 2.403,-76.1 7.097,-75.8 11.903,-75.2 16.699,-74.3 21.199,-73.2 25.801,-71.6 30.199,-69.9 34.602,-67.8 38.801,-65.6 42.796,-63 46.602,-60.1 50.398,-57.2 53.801,-53.8 57.199,-50.4 60.102,-46.6 63,-42.8 65.6,-38.8 67.8,-34.6 69.9,-30.2 71.6,-25.8 73.2,-21.2 74.3,-16.7 75.2,-11.9 75.8,-7.1 76.1,-2.4 76.1,2.4 75.8,7.1 75.2,11.9 74.3,16.7 73.2,21.2 71.6,25.8 69.9,30.2 67.8,34.6 65.6,38.8 63,42.8 60.1,46.6 57.2,50.4 53.8,53.8 50.4,57.2 46.6,60.1 42.8,63 38.8,65.6 34.6,67.8 30.2,69.9 25.8,71.6 21.2,73.2 16.7,74.3 11.9,75.2 7.1,75.8 2.4,76.1" /><path
           inkscape:connector-curvature="0"
           id="path4357"
           style="fill:none;stroke:#000000;stroke-width:7.5;stroke-linecap:round;stroke-linejoin:round;stroke-miterlimit:10;stroke-dasharray:none;stroke-opacity:1"
           d="m 1620,4271.5 v 97" /><path
           inkscape:connector-curvature="0"
           id="path4359"
           style="fill:none;stroke:#000000;stroke-width:7.5;stroke-linecap:round;stroke-linejoin:round;stroke-miterlimit:10;stroke-dasharray:none;stroke-opacity:1"
           d="m 1571.5,4320 h 97" /><path
           inkscape:connector-curvature="0"
           id="path4361"
           style="fill:none;stroke:#bebebe;stroke-width:7.5;stroke-linecap:round;stroke-linejoin:round;stroke-miterlimit:10;stroke-dasharray:none;stroke-opacity:1"
           d="m 1830.5,5513.7 -1.4,-6 -2.1,-5.8 -2.8,-5.8 -3.4,-5.6 -4,-5.5 -4.6,-5.2 -5.3,-5.1 -5.7,-5 -6.3,-4.7 -6.9,-4.5 -7.3,-4.3 -7.8,-4 -8.2,-3.8 -8.6,-3.6 -9,-3.4 -9.3,-3 -9.7,-2.9 -10,-2.5 -10.2,-2.4 -10.5,-2 -10.7,-1.8 -10.8,-1.5 -11,-1.2 -11.1,-1 -11.2,-0.7 -11.3,-0.4 -11.3,-0.1 -11.3,0.1 -11.3,0.4 -11.2,0.7 -11.1,1 -11,1.2 -10.8,1.5 -10.7,1.8 -10.5,2 -10.2,2.4 -10,2.5 -9.7,2.9 -9.3,3 -9,3.4 -8.6,3.6 -8.2,3.8 -7.8,4 -7.3,4.3 -6.9,4.5 -6.3,4.7 -5.7,5 -5.3,5.1 -4.6,5.2 -4,5.5 -3.4,5.6 -2.8,5.8 -2.1,5.8 -1.4,6" /><path
           inkscape:connector-curvature="0"
           id="path4363"
           style="fill:none;stroke:#bebebe;stroke-width:7.5;stroke-linecap:round;stroke-linejoin:round;stroke-miterlimit:10;stroke-dasharray:none;stroke-opacity:1"
           d="m 2034.6,5459 -4.8,-11.1 -6,-10.8 -7.1,-10.5 -8.3,-10 -9.4,-9.6 -10.4,-9.3 -11.4,-8.8 -12.3,-8.4 -13.1,-7.9 -14,-7.6 -14.8,-7.1 -15.5,-6.6 -16.1,-6.2 -16.8,-5.8 -17.4,-5.4 -17.9,-4.9 -18.4,-4.5 -18.8,-4 -19.3,-3.7 -19.6,-3.2 -19.9,-2.7 -20.1,-2.4 -20.4,-1.9 -20.5,-1.5 -20.7,-1 -20.8,-0.7 -20.8,-0.2 -20.8,0.2 -20.8,0.7 -20.7,1 -20.5,1.5 -20.4,1.9 -20.1,2.4 -19.9,2.7 -19.6,3.2 -19.3,3.7 -18.8,4 -18.4,4.5 -17.9,4.9 -17.4,5.4 -16.8,5.8 -16.1,6.2 -15.5,6.6 -14.8,7.1 -14,7.6 -13.1,7.9 -12.3,8.4 -11.4,8.8 -10.4,9.3 -9.4,9.6 -8.3,10 -7.1,10.5 -6,10.8 -4.8,11.1" /><path
           inkscape:connector-curvature="0"
           id="path4365"
           style="fill:none;stroke:#bebebe;stroke-width:7.5;stroke-linecap:round;stroke-linejoin:round;stroke-miterlimit:10;stroke-dasharray:none;stroke-opacity:1"
           d="m 2226.1,5369.7 -9.7,-14.9 -11.2,-14.3 -12.7,-13.6 -14.1,-12.9 -15.4,-12.3 -16.7,-11.6 -17.9,-11.1 -18.9,-10.3 -20,-9.8 -21,-9.2 -21.9,-8.5 -22.7,-8 -23.5,-7.4 -24.2,-6.9 -24.9,-6.3 -25.5,-5.8 -26.1,-5.2 -26.6,-4.7 -27,-4.2 -27.4,-3.7 -27.7,-3.2 -28.1,-2.6 -28.3,-2.2 -28.5,-1.7 -28.6,-1.2 -28.7,-0.8 -28.8,-0.2 -28.8,0.2 -28.7,0.8 -28.6,1.2 -28.5,1.7 -28.3,2.2 -28.1,2.6 -27.7,3.2 -27.4,3.7 -27,4.2 -26.6,4.7 -26.1,5.2 -25.5,5.8 -24.9,6.3 -24.2,6.9 -23.5,7.4 -22.7,8 -21.9,8.5 -21,9.2 -20,9.8 -18.9,10.3 -17.9,11.1 -16.7,11.6 -15.4,12.3 -14.1,12.9 -12.7,13.6 -11.2,14.3 -9.7,14.9" /><path
           inkscape:connector-curvature="0"
           id="path4367"
           style="fill:none;stroke:#bebebe;stroke-width:7.5;stroke-linecap:round;stroke-linejoin:round;stroke-miterlimit:10;stroke-dasharray:none;stroke-opacity:1"
           d="m 2399.1,5248.5 -15.4,-16.8 -17.2,-16 -18.7,-15 -20.3,-14.2 -21.6,-13.3 -23,-12.5 -24.2,-11.7 -25.3,-11 -26.4,-10.2 -27.4,-9.6 -28.3,-8.9 -29.2,-8.2 -30,-7.6 -30.7,-7 -31.4,-6.4 -32.1,-5.9 -32.6,-5.2 -33.1,-4.8 -33.5,-4.2 -34,-3.7 -34.3,-3.1 -34.6,-2.7 -34.9,-2.2 -35,-1.7 -35.2,-1.2 -35.3,-0.7 -35.4,-0.2 -35.4,0.2 -35.3,0.7 -35.2,1.2 -35,1.7 -34.9,2.2 -34.6,2.7 -34.3,3.1 -34,3.7 -33.5,4.2 -33.1,4.8 -32.6,5.2 -32.1,5.9 -31.4,6.4 -30.7,7 -30,7.6 -29.2,8.2 -28.3,8.9 -27.4,9.6 -26.4,10.2 -25.299,11 -24.199,11.7 -23,12.5 -21.602,13.3 -20.301,14.2 -18.699,15 -17.199,16 -15.403,16.8" /><path
           inkscape:connector-curvature="0"
           id="path4369"
           style="fill:none;stroke:#bebebe;stroke-width:7.5;stroke-linecap:round;stroke-linejoin:round;stroke-miterlimit:10;stroke-dasharray:none;stroke-opacity:1"
           d="m 2548.5,5099.1 -21.5,-16.8 -23.2,-15.7 -24.7,-14.6 -26.2,-13.7 -27.5,-12.8 -28.7,-11.9 -29.9,-11.1 -31,-10.4 -32,-9.6 -33,-8.9 -33.9,-8.2 -34.6,-7.6 -35.5,-7 -36.2,-6.4 -36.8,-5.9 -37.4,-5.3 -38,-4.8 -38.4,-4.3 -38.9,-3.8 -39.3,-3.3 -39.6,-2.9 -40,-2.4 -40.1,-2 -40.4,-1.5 -40.5,-1 -40.6,-0.7 -40.6,-0.2 -40.6,0.2 -40.6,0.7 -40.5,1 -40.4,1.5 -40.1,2 -40,2.4 -39.6,2.9 -39.3,3.3 -38.9,3.8 -38.4,4.3 -38,4.8 -37.4,5.3 -36.8,5.9 -36.2,6.4 -35.5,7 -34.6,7.6 -33.901,8.2 -33,8.9 -32,9.6 -31,10.4 -29.898,11.1 -28.699,11.9 -27.5,12.8 -26.204,13.7 -24.699,14.6 -23.199,15.7 -21.5,16.8" /><path
           inkscape:connector-curvature="0"
           id="path4371"
           style="fill:none;stroke:#bebebe;stroke-width:7.5;stroke-linecap:round;stroke-linejoin:round;stroke-miterlimit:10;stroke-dasharray:none;stroke-opacity:1"
           d="m 2669.7,4926.1 -27.2,-14.7 -28.6,-13.7 -30.1,-12.6 -31.3,-11.8 -32.5,-10.9 -33.6,-10.1 -34.7,-9.3 -35.7,-8.7 -36.6,-8 -37.5,-7.4 -38.3,-6.9 -39.1,-6.2 -39.8,-5.8 -40.5,-5.3 -41,-4.8 -41.7,-4.3 -42.1,-4 -42.6,-3.5 -43.1,-3.1 -43.4,-2.7 -43.7,-2.3 -44,-1.9 -44.3,-1.6 -44.4,-1.3 -44.5,-0.8 -44.7,-0.6 -44.7,-0.1 -44.7,0.1 -44.7,0.6 -44.5,0.8 -44.4,1.3 -44.3,1.6 -44,1.9 -43.7,2.3 -43.4,2.7 -43.1,3.1 -42.6,3.5 -42.1,4 -41.7,4.3 -41,4.8 -40.5,5.3 -39.8,5.8 -39.102,6.2 -38.296,6.9 -37.5,7.4 -36.602,8 -35.699,8.7 -34.699,9.3 -33.602,10.1 -32.5,10.9 -31.301,11.8 -30.097,12.6 -28.602,13.7 -27.199,14.7" /><path
           inkscape:connector-curvature="0"
           id="path4373"
           style="fill:none;stroke:#bebebe;stroke-width:7.5;stroke-linecap:round;stroke-linejoin:round;stroke-miterlimit:10;stroke-dasharray:none;stroke-opacity:1"
           d="m 2759,4734.6 -31.8,-10.9 -33,-10 -34.1,-9.3 -35.3,-8.6 -36.4,-7.9 -37.3,-7.3 -38.3,-6.7 -39.1,-6.2 -40.1,-5.8 -40.8,-5.2 -41.6,-4.9 -42.3,-4.5 -42.9,-4.1 -43.6,-3.7 -44.1,-3.4 -44.7,-3 -45.1,-2.8 -45.6,-2.5 -46,-2.2 -46.4,-1.9 -46.6,-1.6 -46.9,-1.4 -47.2,-1.1 -47.3,-0.8 -47.4,-0.6 -47.5,-0.4 -47.6,-0.1 -47.6,0.1 -47.5,0.4 -47.4,0.6 -47.3,0.8 -47.2,1.1 -46.9,1.4 -46.6,1.6 -46.4,1.9 -46,2.2 -45.6,2.5 -45.1,2.8 -44.7,3 -44.1,3.4 -43.6,3.7 -42.898,4.1 -42.301,4.5 -41.602,4.9 -40.801,5.2 -40.097,5.8 -39.102,6.2 -38.301,6.7 -37.296,7.3 -36.403,7.9 -35.301,8.6 -34.097,9.3 -33,10 -31.801,10.9" /><path
           inkscape:connector-curvature="0"
           id="path4375"
           style="fill:none;stroke:#bebebe;stroke-width:7.5;stroke-linecap:round;stroke-linejoin:round;stroke-miterlimit:10;stroke-dasharray:none;stroke-opacity:1"
           d="m 2813.7,4530.5 -34.7,-5.8 -35.8,-5.3 -36.9,-4.9 -37.8,-4.5 -38.7,-4.1 -39.6,-3.9 -40.5,-3.5 -41.4,-3.2 -42.1,-3 -42.8,-2.8 -43.6,-2.5 -44.2,-2.3 -44.9,-2.1 -45.4,-1.9 -46,-1.8 -46.5,-1.6 -46.9,-1.4 -47.4,-1.3 -47.8,-1.1 -48.1,-1 -48.4,-0.8 -48.6,-0.7 -48.9,-0.6 -49,-0.4 -49.2,-0.3 -49.2,-0.2 -49.3,-0.1 -49.3,0.1 -49.2,0.2 -49.2,0.3 -49,0.4 -48.9,0.6 -48.6,0.7 -48.4,0.8 -48.1,1 -47.8,1.1 -47.4,1.3 -46.9,1.4 -46.5,1.6 -46.001,1.8 -45.398,1.9 -44.903,2.1 -44.199,2.3 -43.597,2.5 -42.801,2.8 -42.102,3 -41.398,3.2 -40.5,3.5 -39.602,3.9 -38.699,4.1 -37.801,4.5 -36.898,4.9 -35.801,5.3 -34.699,5.8" /><path
           inkscape:connector-curvature="0"
           id="path4377"
           style="fill:none;stroke:#bebebe;stroke-width:7.5;stroke-linecap:round;stroke-linejoin:round;stroke-miterlimit:10;stroke-dasharray:none;stroke-opacity:1"
           d="M 2832.1,4320 H 407.898" /><path
           inkscape:connector-curvature="0"
           id="path4379"
           style="fill:none;stroke:#bebebe;stroke-width:7.5;stroke-linecap:round;stroke-linejoin:round;stroke-miterlimit:10;stroke-dasharray:none;stroke-opacity:1"
           d="m 2813.7,4109.5 -34.7,5.8 -35.8,5.3 -36.9,4.9 -37.8,4.5 -38.7,4.1 -39.6,3.9 -40.5,3.5 -41.4,3.2 -42.1,3 -42.8,2.8 -43.6,2.5 -44.2,2.3 -44.9,2.1 -45.4,1.9 -46,1.8 -46.5,1.6 -46.9,1.4 -47.4,1.3 -47.8,1.1 -48.1,1 -48.4,0.8 -48.6,0.7 -48.9,0.6 -49,0.4 -49.2,0.3 -49.2,0.2 -49.3,0.1 -49.3,-0.1 -49.2,-0.2 -49.2,-0.3 -49,-0.4 -48.9,-0.6 -48.6,-0.7 -48.4,-0.8 -48.1,-1 -47.8,-1.1 -47.4,-1.3 -46.9,-1.4 -46.5,-1.6 -46.001,-1.8 -45.398,-1.9 -44.903,-2.1 -44.199,-2.3 -43.597,-2.5 -42.801,-2.8 -42.102,-3 -41.398,-3.2 -40.5,-3.5 -39.602,-3.9 -38.699,-4.1 -37.801,-4.5 -36.898,-4.9 -35.801,-5.3 -34.699,-5.8" /><path
           inkscape:connector-curvature="0"
           id="path4381"
           style="fill:none;stroke:#bebebe;stroke-width:7.5;stroke-linecap:round;stroke-linejoin:round;stroke-miterlimit:10;stroke-dasharray:none;stroke-opacity:1"
           d="m 2759,3905.4 -31.8,10.9 -33,10 -34.1,9.3 -35.3,8.6 -36.4,7.9 -37.3,7.3 -38.3,6.7 -39.1,6.2 -40.1,5.8 -40.8,5.2 -41.6,4.9 -42.3,4.5 -42.9,4.1 -43.6,3.7 -44.1,3.4 -44.7,3 -45.1,2.8 -45.6,2.5 -46,2.2 -46.4,1.9 -46.6,1.6 -46.9,1.4 -47.2,1.1 -47.3,0.8 -47.4,0.6 -47.5,0.4 -47.6,0.1 -47.6,-0.1 -47.5,-0.4 -47.4,-0.6 -47.3,-0.8 -47.2,-1.1 -46.9,-1.4 -46.6,-1.6 -46.4,-1.9 -46,-2.2 -45.6,-2.5 -45.1,-2.8 -44.7,-3 -44.1,-3.4 -43.6,-3.7 -42.898,-4.1 -42.301,-4.5 -41.602,-4.9 -40.801,-5.2 -40.097,-5.8 -39.102,-6.2 -38.301,-6.7 -37.296,-7.3 -36.403,-7.9 -35.301,-8.6 -34.097,-9.3 -33,-10 L 481,3905.4" /><path
           inkscape:connector-curvature="0"
           id="path4383"
           style="fill:none;stroke:#bebebe;stroke-width:7.5;stroke-linecap:round;stroke-linejoin:round;stroke-miterlimit:10;stroke-dasharray:none;stroke-opacity:1"
           d="m 2669.7,3713.9 -27.2,14.7 -28.6,13.7 -30.1,12.6 -31.3,11.8 -32.5,10.9 -33.6,10.1 -34.7,9.3 -35.7,8.7 -36.6,8 -37.5,7.4 -38.3,6.9 -39.1,6.2 -39.8,5.8 -40.5,5.3 -41,4.8 -41.7,4.3 -42.1,4 -42.6,3.5 -43.1,3.1 -43.4,2.7 -43.7,2.3 -44,1.9 -44.3,1.6 -44.4,1.3 -44.5,0.8 -44.7,0.6 -44.7,0.1 -44.7,-0.1 -44.7,-0.6 -44.5,-0.8 -44.4,-1.3 -44.3,-1.6 -44,-1.9 -43.7,-2.3 -43.4,-2.7 -43.1,-3.1 -42.6,-3.5 -42.1,-4 -41.7,-4.3 -41,-4.8 -40.5,-5.3 -39.8,-5.8 -39.102,-6.2 -38.296,-6.9 -37.5,-7.4 -36.602,-8 -35.699,-8.7 -34.699,-9.3 -33.602,-10.1 -32.5,-10.9 -31.301,-11.8 -30.097,-12.6 -28.602,-13.7 -27.199,-14.7" /><path
           inkscape:connector-curvature="0"
           id="path4385"
           style="fill:none;stroke:#bebebe;stroke-width:7.5;stroke-linecap:round;stroke-linejoin:round;stroke-miterlimit:10;stroke-dasharray:none;stroke-opacity:1"
           d="m 2548.5,3540.9 -21.5,16.8 -23.2,15.7 -24.7,14.6 -26.2,13.7 -27.5,12.8 -28.7,11.9 -29.9,11.1 -31,10.4 -32,9.6 -33,8.9 -33.9,8.2 -34.6,7.6 -35.5,7 -36.2,6.4 -36.8,5.9 -37.4,5.3 -38,4.8 -38.4,4.3 -38.9,3.8 -39.3,3.3 -39.6,2.9 -40,2.4 -40.1,2 -40.4,1.5 -40.5,1 -40.6,0.7 -40.6,0.2 -40.6,-0.2 -40.6,-0.7 -40.5,-1 -40.4,-1.5 -40.1,-2 -40,-2.4 -39.6,-2.9 -39.3,-3.3 -38.9,-3.8 -38.4,-4.3 -38,-4.8 -37.4,-5.3 -36.8,-5.9 -36.2,-6.4 -35.5,-7 -34.6,-7.6 -33.901,-8.2 -33,-8.9 -32,-9.6 -31,-10.4 -29.898,-11.1 -28.699,-11.9 -27.5,-12.8 -26.204,-13.7 -24.699,-14.6 -23.199,-15.7 -21.5,-16.8" /><path
           inkscape:connector-curvature="0"
           id="path4387"
           style="fill:none;stroke:#bebebe;stroke-width:7.5;stroke-linecap:round;stroke-linejoin:round;stroke-miterlimit:10;stroke-dasharray:none;stroke-opacity:1"
           d="m 2399.1,3391.5 -15.4,16.8 -17.2,16 -18.7,15 -20.3,14.2 -21.6,13.3 -23,12.5 -24.2,11.7 -25.3,11 -26.4,10.2 -27.4,9.6 -28.3,8.9 -29.2,8.2 -30,7.6 -30.7,7 -31.4,6.4 -32.1,5.9 -32.6,5.2 -33.1,4.8 -33.5,4.2 -34,3.7 -34.3,3.1 -34.6,2.7 -34.9,2.2 -35,1.7 -35.2,1.2 -35.3,0.7 -35.4,0.2 -35.4,-0.2 -35.3,-0.7 -35.2,-1.2 -35,-1.7 -34.9,-2.2 -34.6,-2.7 -34.3,-3.1 -34,-3.7 -33.5,-4.2 -33.1,-4.8 -32.6,-5.2 -32.1,-5.9 -31.4,-6.4 -30.7,-7 -30,-7.6 -29.2,-8.2 -28.3,-8.9 -27.4,-9.6 -26.4,-10.2 -25.299,-11 -24.199,-11.7 -23,-12.5 -21.602,-13.3 -20.301,-14.2 -18.699,-15 -17.199,-16 -15.403,-16.8" /><path
           inkscape:connector-curvature="0"
           id="path4389"
           style="fill:none;stroke:#bebebe;stroke-width:7.5;stroke-linecap:round;stroke-linejoin:round;stroke-miterlimit:10;stroke-dasharray:none;stroke-opacity:1"
           d="m 2226.1,3270.3 -9.7,14.9 -11.2,14.3 -12.7,13.6 -14.1,12.9 -15.4,12.3 -16.7,11.6 -17.9,11.1 -18.9,10.3 -20,9.8 -21,9.2 -21.9,8.5 -22.7,8 -23.5,7.4 -24.2,6.9 -24.9,6.3 -25.5,5.8 -26.1,5.2 -26.6,4.7 -27,4.2 -27.4,3.7 -27.7,3.2 -28.1,2.6 -28.3,2.2 -28.5,1.7 -28.6,1.2 -28.7,0.8 -28.8,0.2 -28.8,-0.2 -28.7,-0.8 -28.6,-1.2 -28.5,-1.7 -28.3,-2.2 -28.1,-2.6 -27.7,-3.2 -27.4,-3.7 -27,-4.2 -26.6,-4.7 -26.1,-5.2 -25.5,-5.8 -24.9,-6.3 -24.2,-6.9 -23.5,-7.4 -22.7,-8 -21.9,-8.5 -21,-9.2 -20,-9.8 -18.9,-10.3 -17.9,-11.1 -16.7,-11.6 -15.4,-12.3 -14.1,-12.9 -12.7,-13.6 -11.2,-14.3 -9.7,-14.9" /><path
           inkscape:connector-curvature="0"
           id="path4391"
           style="fill:none;stroke:#bebebe;stroke-width:7.5;stroke-linecap:round;stroke-linejoin:round;stroke-miterlimit:10;stroke-dasharray:none;stroke-opacity:1"
           d="m 2034.6,3181 -4.8,11.1 -6,10.8 -7.1,10.5 -8.3,10 -9.4,9.6 -10.4,9.3 -11.4,8.8 -12.3,8.4 -13.1,7.9 -14,7.6 -14.8,7.1 -15.5,6.6 -16.1,6.2 -16.8,5.8 -17.4,5.4 -17.9,4.9 -18.4,4.5 -18.8,4 -19.3,3.7 -19.6,3.2 -19.9,2.7 -20.1,2.4 -20.4,1.9 -20.5,1.5 -20.7,1 -20.8,0.7 -20.8,0.2 -20.8,-0.2 -20.8,-0.7 -20.7,-1 -20.5,-1.5 -20.4,-1.9 -20.1,-2.4 -19.9,-2.7 -19.6,-3.2 -19.3,-3.7 -18.8,-4 -18.4,-4.5 -17.9,-4.9 -17.4,-5.4 -16.8,-5.8 -16.1,-6.2 -15.5,-6.6 -14.8,-7.1 -14,-7.6 -13.1,-7.9 -12.3,-8.4 -11.4,-8.8 -10.4,-9.3 -9.4,-9.6 -8.3,-10 -7.1,-10.5 -6,-10.8 -4.8,-11.1" /><path
           inkscape:connector-curvature="0"
           id="path4393"
           style="fill:none;stroke:#bebebe;stroke-width:7.5;stroke-linecap:round;stroke-linejoin:round;stroke-miterlimit:10;stroke-dasharray:none;stroke-opacity:1"
           d="m 1830.5,3126.3 -1.4,6 -2.1,5.8 -2.8,5.8 -3.4,5.6 -4,5.5 -4.6,5.2 -5.3,5.1 -5.7,5 -6.3,4.7 -6.9,4.5 -7.3,4.3 -7.8,4 -8.2,3.8 -8.6,3.6 -9,3.4 -9.3,3 -9.7,2.9 -10,2.5 -10.2,2.4 -10.5,2 -10.7,1.8 -10.8,1.5 -11,1.2 -11.1,1 -11.2,0.7 -11.3,0.4 -11.3,0.1 -11.3,-0.1 -11.3,-0.4 -11.2,-0.7 -11.1,-1 -11,-1.2 -10.8,-1.5 -10.7,-1.8 -10.5,-2 -10.2,-2.4 -10,-2.5 -9.7,-2.9 -9.3,-3 -9,-3.4 -8.6,-3.6 -8.2,-3.8 -7.8,-4 -7.3,-4.3 -6.9,-4.5 -6.3,-4.7 -5.7,-5 -5.3,-5.1 -4.6,-5.2 -4,-5.5 -3.4,-5.6 -2.8,-5.8 -2.1,-5.8 -1.4,-6" /><path
           inkscape:connector-curvature="0"
           id="path4395"
           style="fill:none;stroke:#bebebe;stroke-width:7.5;stroke-linecap:round;stroke-linejoin:round;stroke-miterlimit:10;stroke-dasharray:none;stroke-opacity:1"
           d="m 1620,5532.1 69.1,-8.1 68.1,-12 67,-15.9 65.7,-19.6 64.2,-23.2 62.6,-26.7 60.6,-30 58.7,-33.3 56.5,-36.4 54.2,-39.3 51.8,-42.1 49.3,-44.8 46.5,-47.3 43.8,-49.6 41,-51.8 38,-53.9 34.9,-55.7 31.8,-57.3 28.7,-59 25.4,-60.2 22.2,-61.5 18.8,-62.5 15.4,-63.4 12,-64 8.7,-64.5 5.1,-64.9 1.8,-65.1 -1.8,-65.1 -5.1,-64.9 -8.7,-64.5 -12,-64 -15.4,-63.4 -18.8,-62.5 -22.2,-61.5 -25.4,-60.2 -28.7,-59 -31.8,-57.3 -34.9,-55.7 -38,-53.9 -41,-51.8 -43.8,-49.6 -46.5,-47.3 -49.3,-44.8 -51.8,-42.1 -54.2,-39.3 -56.5,-36.4 -58.7,-33.3 -60.6,-30 -62.6,-26.7 -64.2,-23.2 -65.7,-19.6 -67,-15.9 -68.1,-12 -69.1,-8.1" /><path
           inkscape:connector-curvature="0"
           id="path4397"
           style="fill:none;stroke:#bebebe;stroke-width:7.5;stroke-linecap:round;stroke-linejoin:round;stroke-miterlimit:10;stroke-dasharray:none;stroke-opacity:1"
           d="m 1620,5532.1 65.6,-13.9 64.1,-17.5 62.5,-20.9 60.7,-24.3 58.8,-27.4 56.9,-30.4 54.8,-33.2 52.6,-36 50.3,-38.4 48,-40.9 45.5,-43.2 43.1,-45.3 40.5,-47.2 38,-49.1 35.3,-50.8 32.6,-52.4 30,-53.8 27.1,-55.1 24.4,-56.2 21.6,-57.3 18.7,-58.2 15.9,-58.9 13,-59.6 10.2,-60.1 7.2,-60.4 4.4,-60.7 1.4,-60.9 -1.4,-60.9 -4.4,-60.7 -7.2,-60.4 -10.2,-60.1 -13,-59.6 -15.9,-58.9 -18.7,-58.2 -21.6,-57.3 -24.4,-56.2 -27.1,-55.1 -30,-53.8 -32.6,-52.4 -35.3,-50.8 -38,-49.1 -40.5,-47.2 -43.1,-45.3 -45.5,-43.2 -48,-40.9 -50.3,-38.4 -52.6,-36 -54.8,-33.2 -56.9,-30.4 -58.8,-27.4 -60.7,-24.3 -62.5,-20.9 -64.1,-17.5 -65.6,-13.9" /><path
           inkscape:connector-curvature="0"
           id="path4399"
           style="fill:none;stroke:#bebebe;stroke-width:7.5;stroke-linecap:round;stroke-linejoin:round;stroke-miterlimit:10;stroke-dasharray:none;stroke-opacity:1"
           d="m 1620,5532.1 60.2,-19.2 58.3,-22.5 56.4,-25.4 54.3,-28.2 52.4,-30.9 50.2,-33.3 48.1,-35.8 45.9,-37.9 43.7,-40 41.4,-41.9 39.2,-43.8 36.9,-45.4 34.6,-47 32.2,-48.5 30,-49.8 27.6,-51 25.2,-52.1 22.8,-53.1 20.5,-54 18.1,-54.8 15.6,-55.6 13.3,-56 10.9,-56.6 8.4,-57 6.1,-57.3 3.6,-57.4 1.2,-57.6 -1.2,-57.6 -3.6,-57.4 -6.1,-57.3 -8.4,-57 -10.9,-56.6 -13.3,-56 -15.6,-55.6 -18.1,-54.8 -20.5,-54 -22.8,-53.1 -25.2,-52.1 -27.6,-51 -30,-49.8 -32.2,-48.5 -34.6,-47 -36.9,-45.4 -39.2,-43.8 -41.4,-41.9 -43.7,-40 -45.9,-37.9 -48.1,-35.8 -50.2,-33.3 -52.4,-30.9 -54.3,-28.2 -56.4,-25.4 -58.3,-22.5 -60.2,-19.2" /><path
           inkscape:connector-curvature="0"
           id="path4401"
           style="fill:none;stroke:#bebebe;stroke-width:7.5;stroke-linecap:round;stroke-linejoin:round;stroke-miterlimit:10;stroke-dasharray:none;stroke-opacity:1"
           d="m 1620,5532.1 53,-24 51,-26.7 48.9,-29.2 46.9,-31.5 44.9,-33.7 42.8,-35.7 40.8,-37.6 38.8,-39.4 36.8,-41.1 34.7,-42.6 32.8,-44.1 30.7,-45.4 28.7,-46.7 26.7,-47.8 24.8,-48.8 22.7,-49.8 20.7,-50.7 18.8,-51.5 16.8,-52.3 14.8,-52.8 12.8,-53.4 10.9,-53.8 8.9,-54.2 6.9,-54.6 4.9,-54.8 3,-54.9 1,-55 -1,-55 -3,-54.9 -4.9,-54.8 -6.9,-54.6 -8.9,-54.2 -10.9,-53.8 -12.8,-53.4 -14.8,-52.8 -16.8,-52.3 -18.8,-51.5 -20.7,-50.7 -22.7,-49.8 -24.8,-48.8 -26.7,-47.8 -28.7,-46.7 -30.7,-45.4 -32.8,-44.1 -34.7,-42.6 -36.8,-41.1 -38.8,-39.4 -40.8,-37.6 -42.8,-35.7 -44.9,-33.7 -46.9,-31.5 -48.9,-29.2 -51,-26.7 -53,-24" /><path
           inkscape:connector-curvature="0"
           id="path4403"
           style="fill:none;stroke:#bebebe;stroke-width:7.5;stroke-linecap:round;stroke-linejoin:round;stroke-miterlimit:10;stroke-dasharray:none;stroke-opacity:1"
           d="m 1620,5532.1 44.3,-28.1 42.4,-30.3 40.4,-32.3 38.5,-34.1 36.7,-35.9 34.9,-37.5 33.1,-39 31.3,-40.5 29.7,-41.8 27.9,-43 26.2,-44.2 24.6,-45.3 22.9,-46.3 21.2,-47.2 19.7,-48.1 18.1,-48.8 16.4,-49.6 14.9,-50.2 13.2,-50.8 11.8,-51.2 10.1,-51.8 8.5,-52.1 7.1,-52.4 5.4,-52.7 3.9,-52.9 2.3,-52.9 0.8,-53.1 -0.8,-53.1 -2.3,-52.9 -3.9,-52.9 -5.4,-52.7 -7.1,-52.4 -8.5,-52.1 -10.1,-51.8 -11.8,-51.2 -13.2,-50.8 -14.9,-50.2 -16.4,-49.6 -18.1,-48.8 -19.7,-48.1 -21.2,-47.2 -22.9,-46.3 -24.6,-45.3 -26.2,-44.2 -27.9,-43 -29.7,-41.8 -31.3,-40.5 -33.1,-39 -34.9,-37.5 -36.7,-35.9 -38.5,-34.1 -40.4,-32.3 -42.4,-30.3 -44.3,-28.1" /><path
           inkscape:connector-curvature="0"
           id="path4405"
           style="fill:none;stroke:#bebebe;stroke-width:7.5;stroke-linecap:round;stroke-linejoin:round;stroke-miterlimit:10;stroke-dasharray:none;stroke-opacity:1"
           d="m 1620,5532.1 34.4,-31.4 32.7,-33.1 31,-34.6 29.5,-36.2 28,-37.5 26.5,-38.8 25,-40.1 23.7,-41.2 22.3,-42.3 21,-43.3 19.7,-44.2 18.4,-45.2 17.2,-45.9 15.9,-46.8 14.7,-47.4 13.4,-48.1 12.3,-48.6 11.1,-49.3 9.8,-49.7 8.7,-50.1 7.6,-50.5 6.3,-50.8 5.2,-51.1 4.1,-51.3 2.9,-51.4 1.7,-51.6 0.6,-51.6 -0.6,-51.6 -1.7,-51.6 -2.9,-51.4 -4.1,-51.3 -5.2,-51.1 -6.3,-50.8 -7.6,-50.5 -8.7,-50.1 -9.8,-49.7 -11.1,-49.3 -12.3,-48.6 -13.4,-48.1 -14.7,-47.4 -15.9,-46.8 -17.2,-45.9 -18.4,-45.2 -19.7,-44.2 -21,-43.3 -22.3,-42.3 -23.7,-41.2 -25,-40.1 -26.5,-38.8 -28,-37.5 -29.5,-36.2 -31,-34.6 -32.7,-33.1 -34.4,-31.4" /><path
           inkscape:connector-curvature="0"
           id="path4407"
           style="fill:none;stroke:#bebebe;stroke-width:7.5;stroke-linecap:round;stroke-linejoin:round;stroke-miterlimit:10;stroke-dasharray:none;stroke-opacity:1"
           d="m 1620,5532.1 23.5,-33.8 22.2,-35.1 21,-36.4 20,-37.5 18.8,-38.7 17.8,-39.7 16.9,-40.8 15.8,-41.7 15,-42.6 14,-43.4 13.1,-44.2 12.3,-45 11.4,-45.8 10.6,-46.3 9.8,-47 8.9,-47.5 8.1,-48.1 7.4,-48.5 6.5,-48.9 5.8,-49.3 5,-49.7 4.2,-49.9 3.5,-50.2 2.6,-50.3 1.9,-50.5 1.2,-50.6 0.4,-50.6 -0.4,-50.6 -1.2,-50.6 -1.9,-50.5 -2.6,-50.3 -3.5,-50.2 -4.2,-49.9 -5,-49.7 -5.8,-49.3 -6.5,-48.9 -7.4,-48.5 -8.1,-48.1 -8.9,-47.5 -9.8,-47 -10.6,-46.3 -11.4,-45.8 -12.3,-45 -13.1,-44.2 -14,-43.4 -15,-42.6 -15.8,-41.7 -16.9,-40.8 -17.8,-39.7 -18.8,-38.7 -20,-37.5 -21,-36.4 -22.2,-35.1 -23.5,-33.8" /><path
           inkscape:connector-curvature="0"
           id="path4409"
           style="fill:none;stroke:#bebebe;stroke-width:7.5;stroke-linecap:round;stroke-linejoin:round;stroke-miterlimit:10;stroke-dasharray:none;stroke-opacity:1"
           d="m 1620,5532.1 11.9,-35.3 11.2,-36.3 10.7,-37.4 10,-38.4 9.5,-39.3 9,-40.3 8.4,-41.1 8,-42 7.4,-42.7 7.1,-43.5 6.5,-44.3 6.2,-44.9 5.7,-45.5 5.3,-46.2 4.8,-46.7 4.5,-47.2 4.1,-47.7 3.6,-48.1 3.3,-48.5 2.9,-48.8 2.4,-49.1 2.1,-49.4 1.8,-49.6 1.3,-49.8 0.9,-49.9 0.6,-50.1 0.2,-50 -0.2,-50 -0.6,-50.1 -0.9,-49.9 -1.3,-49.8 -1.8,-49.6 -2.1,-49.4 -2.4,-49.1 -2.9,-48.8 -3.3,-48.5 -3.6,-48.1 -4.1,-47.7 -4.5,-47.2 -4.8,-46.7 -5.3,-46.2 -5.7,-45.5 -6.2,-44.9 -6.5,-44.3 -7.1,-43.5 -7.4,-42.7 -8,-42 -8.4,-41.1 -9,-40.3 -9.5,-39.3 -10,-38.4 -10.7,-37.4 -11.2,-36.3 -11.9,-35.3" /><path
           inkscape:connector-curvature="0"
           id="path4411"
           style="fill:none;stroke:#bebebe;stroke-width:7.5;stroke-linecap:round;stroke-linejoin:round;stroke-miterlimit:10;stroke-dasharray:none;stroke-opacity:1"
           d="M 1620,5532.1 V 3107.9" /><path
           inkscape:connector-curvature="0"
           id="path4413"
           style="fill:none;stroke:#bebebe;stroke-width:7.5;stroke-linecap:round;stroke-linejoin:round;stroke-miterlimit:10;stroke-dasharray:none;stroke-opacity:1"
           d="m 1620,5532.1 -11.9,-35.3 -11.2,-36.3 -10.7,-37.4 -10,-38.4 -9.5,-39.3 -9,-40.3 -8.4,-41.1 -8,-42 -7.4,-42.7 -7.1,-43.5 -6.5,-44.3 -6.2,-44.9 -5.7,-45.5 -5.3,-46.2 -4.8,-46.7 -4.5,-47.2 -4.1,-47.7 -3.6,-48.1 -3.3,-48.5 -2.9,-48.8 -2.4,-49.1 -2.1,-49.4 -1.8,-49.6 -1.3,-49.8 -0.9,-49.9 -0.6,-50.1 -0.2,-50 0.2,-50 0.6,-50.1 0.9,-49.9 1.3,-49.8 1.8,-49.6 2.1,-49.4 2.4,-49.1 2.9,-48.8 3.3,-48.5 3.6,-48.1 4.1,-47.7 4.5,-47.2 4.8,-46.7 5.3,-46.2 5.7,-45.5 6.2,-44.9 6.5,-44.3 7.1,-43.5 7.4,-42.7 8,-42 8.4,-41.1 9,-40.3 9.5,-39.3 10,-38.4 10.7,-37.4 11.2,-36.3 11.9,-35.3" /><path
           inkscape:connector-curvature="0"
           id="path4415"
           style="fill:none;stroke:#bebebe;stroke-width:7.5;stroke-linecap:round;stroke-linejoin:round;stroke-miterlimit:10;stroke-dasharray:none;stroke-opacity:1"
           d="m 1620,5532.1 -23.5,-33.8 -22.2,-35.1 -21,-36.4 -20,-37.5 -18.8,-38.7 -17.8,-39.7 -16.9,-40.8 -15.8,-41.7 -15,-42.6 -14,-43.4 -13.1,-44.2 -12.3,-45 -11.4,-45.8 -10.6,-46.3 -9.8,-47 -8.9,-47.5 -8.1,-48.1 -7.4,-48.5 -6.5,-48.9 -5.8,-49.3 -5,-49.7 -4.2,-49.9 -3.5,-50.2 -2.6,-50.3 -1.9,-50.5 -1.2,-50.6 -0.4,-50.6 0.4,-50.6 1.2,-50.6 1.9,-50.5 2.6,-50.3 3.5,-50.2 4.2,-49.9 5,-49.7 5.8,-49.3 6.5,-48.9 7.4,-48.5 8.1,-48.1 8.9,-47.5 9.8,-47 10.6,-46.3 11.4,-45.8 12.3,-45 13.1,-44.2 14,-43.4 15,-42.6 15.8,-41.7 16.9,-40.8 17.8,-39.7 18.8,-38.7 20,-37.5 21,-36.4 22.2,-35.1 23.5,-33.8" /><path
           inkscape:connector-curvature="0"
           id="path4417"
           style="fill:none;stroke:#bebebe;stroke-width:7.5;stroke-linecap:round;stroke-linejoin:round;stroke-miterlimit:10;stroke-dasharray:none;stroke-opacity:1"
           d="m 1620,5532.1 -34.4,-31.4 -32.7,-33.1 -31,-34.6 -29.5,-36.2 -28,-37.5 -26.5,-38.8 -25,-40.1 -23.7,-41.2 -22.3,-42.3 -21,-43.3 -19.7,-44.2 -18.4,-45.2 -17.2,-45.9 -15.9,-46.8 -14.7,-47.4 -13.4,-48.1 -12.3,-48.6 -11.1,-49.3 -9.8,-49.7 -8.7,-50.1 -7.6,-50.5 -6.3,-50.8 -5.2,-51.1 -4.1,-51.3 -2.9,-51.4 -1.7,-51.6 -0.6,-51.6 0.6,-51.6 1.7,-51.6 2.9,-51.4 4.1,-51.3 5.2,-51.1 6.3,-50.8 7.6,-50.5 8.7,-50.1 9.8,-49.7 11.1,-49.3 12.3,-48.6 13.4,-48.1 14.7,-47.4 15.9,-46.8 17.2,-45.9 18.4,-45.2 19.7,-44.2 21,-43.3 22.3,-42.3 23.7,-41.2 25,-40.1 26.5,-38.8 28,-37.5 29.5,-36.2 31,-34.6 32.7,-33.1 34.4,-31.4" /><path
           inkscape:connector-curvature="0"
           id="path4419"
           style="fill:none;stroke:#bebebe;stroke-width:7.5;stroke-linecap:round;stroke-linejoin:round;stroke-miterlimit:10;stroke-dasharray:none;stroke-opacity:1"
           d="m 1620,5532.1 -44.3,-28.1 -42.4,-30.3 -40.4,-32.3 -38.5,-34.1 -36.7,-35.9 -34.9,-37.5 -33.1,-39 -31.3,-40.5 -29.7,-41.8 -27.9,-43 -26.2,-44.2 -24.6,-45.3 -22.9,-46.3 -21.2,-47.2 -19.7,-48.1 -18.1,-48.8 -16.4,-49.6 -14.9,-50.2 -13.2,-50.8 -11.8,-51.2 -10.1,-51.8 -8.5,-52.1 -7.1,-52.4 -5.4,-52.7 -3.9,-52.9 -2.3,-52.9 -0.8,-53.1 0.8,-53.1 2.3,-52.9 3.9,-52.9 5.4,-52.7 7.1,-52.4 8.5,-52.1 10.1,-51.8 11.8,-51.2 13.2,-50.8 14.9,-50.2 16.4,-49.6 18.1,-48.8 19.7,-48.1 21.2,-47.2 22.9,-46.3 24.6,-45.3 26.2,-44.2 27.9,-43 29.7,-41.8 31.3,-40.5 33.1,-39 34.9,-37.5 36.7,-35.9 38.5,-34.1 40.4,-32.3 42.4,-30.3 44.3,-28.1" /><path
           inkscape:connector-curvature="0"
           id="path4421"
           style="fill:none;stroke:#bebebe;stroke-width:7.5;stroke-linecap:round;stroke-linejoin:round;stroke-miterlimit:10;stroke-dasharray:none;stroke-opacity:1"
           d="m 1620,5532.1 -53,-24 -51,-26.7 -48.9,-29.2 -46.9,-31.5 -44.9,-33.7 -42.8,-35.7 -40.8,-37.6 -38.8,-39.4 -36.8,-41.1 -34.7,-42.6 -32.8,-44.1 -30.7,-45.4 -28.7,-46.7 -26.7,-47.8 -24.8,-48.8 -22.7,-49.8 -20.699,-50.7 -18.801,-51.5 -16.801,-52.3 -14.801,-52.8 -12.796,-53.4 -10.903,-53.8 -8.898,-54.2 -6.903,-54.6 -4.898,-54.8 -3,-54.9 -1,-55 1,-55 3,-54.9 4.898,-54.8 6.903,-54.6 8.898,-54.2 10.903,-53.8 12.796,-53.4 14.801,-52.8 16.801,-52.3 18.801,-51.5 20.699,-50.7 22.7,-49.8 24.8,-48.8 26.7,-47.8 28.7,-46.7 30.7,-45.4 32.8,-44.1 34.7,-42.6 36.8,-41.1 38.8,-39.4 40.8,-37.6 42.8,-35.7 44.9,-33.7 46.9,-31.5 48.9,-29.2 51,-26.7 53,-24" /><path
           inkscape:connector-curvature="0"
           id="path4423"
           style="fill:none;stroke:#bebebe;stroke-width:7.5;stroke-linecap:round;stroke-linejoin:round;stroke-miterlimit:10;stroke-dasharray:none;stroke-opacity:1"
           d="m 1620,5532.1 -60.2,-19.2 -58.3,-22.5 -56.4,-25.4 -54.3,-28.2 -52.4,-30.9 -50.2,-33.3 -48.1,-35.8 -45.9,-37.9 -43.7,-40 -41.4,-41.9 -39.2,-43.8 -36.9,-45.4 -34.602,-47 -32.199,-48.5 -30,-49.8 -27.597,-51 -25.204,-52.1 -22.796,-53.1 -20.5,-54 -18.102,-54.8 -15.602,-55.6 -13.296,-56 -10.903,-56.6 -8.398,-57 -6.102,-57.3 -3.597,-57.4 -1.204,-57.6 1.204,-57.6 3.597,-57.4 6.102,-57.3 8.398,-57 10.903,-56.6 13.296,-56 15.602,-55.6 18.102,-54.8 20.5,-54 22.796,-53.1 25.204,-52.1 27.597,-51 30,-49.8 32.199,-48.5 34.602,-47 36.9,-45.4 39.2,-43.8 41.4,-41.9 43.7,-40 45.9,-37.9 48.1,-35.8 50.2,-33.3 52.4,-30.9 54.3,-28.2 56.4,-25.4 58.3,-22.5 60.2,-19.2" /><path
           inkscape:connector-curvature="0"
           id="path4425"
           style="fill:none;stroke:#bebebe;stroke-width:7.5;stroke-linecap:round;stroke-linejoin:round;stroke-miterlimit:10;stroke-dasharray:none;stroke-opacity:1"
           d="m 1620,5532.1 -65.6,-13.9 -64.1,-17.5 -62.5,-20.9 -60.7,-24.3 -58.8,-27.4 -56.9,-30.4 -54.8,-33.2 -52.6,-36 -50.3,-38.4 -48,-40.9 -45.5,-43.2 -43.098,-45.3 -40.5,-47.2 -38,-49.1 -35.301,-50.8 -32.602,-52.4 -30,-53.8 -27.097,-55.1 -24.403,-56.2 -21.597,-57.3 -18.704,-58.2 -15.898,-58.9 -13,-59.6 -10.199,-60.1 -7.199,-60.4 -4.403,-60.7 -1.398,-60.9 1.398,-60.9 4.403,-60.7 7.199,-60.4 10.199,-60.1 13,-59.6 15.898,-58.9 18.704,-58.2 21.597,-57.3 24.403,-56.2 27.097,-55.1 30,-53.8 32.602,-52.4 35.301,-50.8 38,-49.1 40.5,-47.2 43.098,-45.3 45.5,-43.2 48,-40.9 50.3,-38.4 52.6,-36 54.8,-33.2 56.9,-30.4 58.8,-27.4 60.7,-24.3 62.5,-20.9 64.1,-17.5 65.6,-13.9" /><path
           inkscape:connector-curvature="0"
           id="path4427"
           style="fill:none;stroke:#bebebe;stroke-width:7.5;stroke-linecap:round;stroke-linejoin:round;stroke-miterlimit:10;stroke-dasharray:none;stroke-opacity:1"
           d="m 1620,5532.1 -69.1,-8.1 -68.1,-12 -67,-15.9 -65.7,-19.6 -64.2,-23.2 -62.6,-26.7 -60.6,-30 -58.7,-33.3 -56.5,-36.4 -54.199,-39.3 -51.801,-42.1 -49.301,-44.8 -46.5,-47.3 -43.801,-49.6 -41,-51.8 -38,-53.9 -34.898,-55.7 -31.801,-57.3 -28.699,-59 -25.398,-60.2 -22.204,-61.5 -18.796,-62.5 -15.403,-63.4 -12,-64 -8.699,-64.5 -5.102,-64.9 -1.796,-65.1 1.796,-65.1 5.102,-64.9 8.699,-64.5 12,-64 15.403,-63.4 18.796,-62.5 22.204,-61.5 25.398,-60.2 28.699,-59 31.801,-57.3 34.898,-55.7 38,-53.9 41,-51.8 43.801,-49.6 46.5,-47.3 49.301,-44.8 51.801,-42.1 54.199,-39.3 56.5,-36.4 58.7,-33.3 60.6,-30 62.6,-26.7 64.2,-23.2 65.7,-19.6 67,-15.9 68.1,-12 69.1,-8.1" /><path
           inkscape:connector-curvature="0"
           id="path4429"
           style="fill:none;stroke:#ff0000;stroke-width:7.5;stroke-linecap:round;stroke-linejoin:round;stroke-miterlimit:10;stroke-dasharray:none;stroke-opacity:1"
           d="m 1620,4626.5 35.3,-27.4 12.3,-15.2 14.6,-21.7 15.1,-32.2 3,-7.2 10.9,-37 2,-12.8 2.4,-21.4 -0.1,-29.9 -0.6,-6.4 -2.6,-18.9 -4.3,-20.6 -5.9,-17.2 -0.5,-1.3 -3,-11.8 -3.1,-11.1 -3.3,-9.9 -3.4,-8.8 -3.6,-8.1 -3.7,-7.6 -4,-7 -4.3,-6.8 -4.7,-6.3 -5,-6.2 -5.6,-5.9 -6,-5.8 -6.7,-5.6 -7.4,-5.7 -8.3,-5.7 -9.5,-5.8 -11,-6.2 -2.7,-1.7 -11,-7.5 -17.3,-9.8 -21.5,-9.5 -3.1,-1.4 -24.6,-8.6 -30.2,-6.3 -2.8,-0.4 -39.7,-3.4 H 1442 l -32.3,2.1 -24.6,4.1 -26.1,6.6 -31.1,12.2 -18.6,9.6 -39,32.1 -2,1.8 -33.7,42.9 -14.4,41.4 -2.9,8.1 -6,52.7 8,52.2 19.8,49.1 29.3,43.8 36.5,37.6 33,23.1 9.4,6.6 44.3,24 47.3,15 48.5,5.6 11.3,0.1 35.3,-0.2 44.9,-9.5 7.4,-14.8 14.7,-43.1 7.6,-44 4.2,-44.5 2.3,-44.6 1.5,-44.7 1.4,-44.9 2,-44.8" /><path
           inkscape:connector-curvature="0"
           id="path4431"
           style="fill:none;stroke:#ff0000;stroke-width:17.00787354;stroke-linecap:round;stroke-linejoin:round;stroke-miterlimit:10;stroke-dasharray:none;stroke-opacity:1"
           d="m 1620,4239.2 -11,-6.2 -2.7,-1.7 -11,-7.5 -17.3,-9.8 -21.5,-9.5 -3.1,-1.4 -24.6,-8.6 -30.2,-6.3 -2.8,-0.4 -39.7,-3.4 H 1442 l -32.3,2.1 -24.6,4.1 -26.1,6.6 -31.1,12.2 -18.6,9.6 -39,32.1 -2,1.8 -33.7,42.9 -14.4,41.4 -2.9,8.1 -6,52.7 8,52.2 19.8,49.1 29.3,43.8 36.5,37.6 33,23.1 9.4,6.6 44.3,24 47.3,15 48.5,5.6 11.3,0.1 35.3,-0.2 44.9,-9.5 29.8,-13.2 11.3,-5.7 35.3,-27.4 12.3,-15.2 14.6,-21.7 15.1,-32.2 3,-7.2 10.9,-37 2,-12.8 2.4,-21.4 -0.1,-29.9 -0.6,-6.4 -2.6,-18.9 -4.3,-20.6 -5.9,-17.2 -0.5,-1.3 -3,-11.8 -3.1,-11.1 -3.3,-9.9 -3.4,-8.8 -3.6,-8.1 -3.7,-7.6 -4,-7 -4.3,-6.8 -4.7,-6.3 -5,-6.2 -5.6,-5.9 -6,-5.8 -6.7,-5.6 -7.4,-5.7 -8.3,-5.7 -5.6,30.3 -3.9,44.7" /><path
           inkscape:connector-curvature="0"
           id="path4433"
           style="fill:none;stroke:#ff0000;stroke-width:7.5;stroke-linecap:round;stroke-linejoin:round;stroke-miterlimit:10;stroke-dasharray:none;stroke-opacity:1"
           d="m 1620,4320 -4,44.7 -2.7,44.8 -3.1,44.6 -4.7,44.5 -8.3,44 -9,29.1 -19.6,11.5 -18.1,7.6 -41.6,9.7 -24.2,1.1 -19.3,-0.4 -43.3,-8.8 -40.7,-18.3 -33.2,-23.5 -3.7,-2.7 -31.9,-32.8 -23.6,-39.3 -13.4,-43.9 -1.6,-26.3 -0.3,-19.5 9.1,-44.9 25.1,-40.8 0.4,-0.5 36.4,-32.4 14.1,-8.3 32.7,-13.5 19.4,-5.5 31.8,-3.6 19.4,-1.2 30.6,3.8 17.7,2.8 29.2,11.5 14.3,5.8 22.9,14.7 16.2,10.2 4.1,4.3 13.1,13.6 4.6,4.7 2.4,2.5 1.6,1.5 1.2,1.1 0.9,0.8 0.8,0.8 0.6,0.6 0.6,0.6 0.6,0.5 0.5,0.6 0.4,0.6 0.4,0.5 0.4,0.6 0.4,0.7 0.4,0.7 0.4,0.7 0.4,0.8 0.5,1 0.5,1.1 0.8,1.5 1.1,2.2 2,3.5 4.2,7.2 11.2,18.9 0.7,2.4 5.9,23.1 4.8,19.7 1.6,20.2 1.1,26.8 -3.7,18.1 -8.2,30.7 -5.5,11.2 -23.1,35.7 -0.7,0.9" /><path
           inkscape:connector-curvature="0"
           id="path4435"
           style="fill:none;stroke:#ff0000;stroke-width:17.00787354;stroke-linecap:round;stroke-linejoin:round;stroke-miterlimit:10;stroke-dasharray:none;stroke-opacity:1"
           d="m 1620,4311.9 -1.2,-1.1 -1.6,-1.5 -2.4,-2.5 -4.6,-4.7 -13.1,-13.6 -4.1,-4.3 -16.2,-10.2 -22.9,-14.7 -14.3,-5.8 -29.2,-11.5 -17.7,-2.8 -30.6,-3.8 -19.4,1.2 -31.8,3.6 -19.4,5.5 -32.7,13.5 -14.1,8.3 -36.4,32.4 -0.4,0.5 -25.1,40.8 -9.1,44.9 0.3,19.5 1.6,26.3 13.4,43.9 23.6,39.3 31.9,32.8 3.7,2.7 33.2,23.5 40.7,18.3 43.3,8.8 19.3,0.4 24.2,-1.1 41.6,-9.7 18.1,-7.6 19.6,-11.5 31.8,-27.1 0.7,-0.9 23.1,-35.7 5.5,-11.2 8.2,-30.7 3.7,-18.1 -1.1,-26.8 -1.6,-20.2 -4.8,-19.7 -5.9,-23.1 -0.7,-2.4 -11.2,-18.9 -4.2,-7.2 -2,-3.5 -1.1,-2.2 -0.8,-1.5 -0.5,-1.1 -0.5,-1 -0.4,-0.8 -0.4,-0.7 -0.4,-0.7 -0.4,-0.7 -0.4,-0.6 -0.4,-0.5 -0.4,-0.6 -0.5,-0.6 -0.6,-0.5 -0.6,-0.6 -0.6,-0.6 -0.8,-0.8 -0.9,7.3" /><path
           inkscape:connector-curvature="0"
           id="path4437"
           style="fill:none;stroke:#ff0000;stroke-width:7.5;stroke-linecap:round;stroke-linejoin:round;stroke-miterlimit:10;stroke-dasharray:none;stroke-opacity:1"
           d="m 1620,4407.6 0.5,2.1 -0.5,19.8" /><path
           inkscape:connector-curvature="0"
           id="path4439"
           style="fill:none;stroke:#ff0000;stroke-width:7.5;stroke-linecap:round;stroke-linejoin:round;stroke-miterlimit:10;stroke-dasharray:none;stroke-opacity:1"
           d="m 1488.2,4277.2 4.2,0.3 29,10.5 13.1,4.7 21.8,15.1 11.5,8.9 6.8,6.2 0.7,0.7 4.4,4.1 4.3,4 3.6,3.6 3.1,3.3 2.8,3.3 2.6,3.6 2.5,3.9 2.7,4.6 3.1,5.4 1.7,3.3 1.9,4 4.5,12.8 7.5,28.1 0.5,2.1 -0.5,19.8 -0.7,25 -17,43.8 -5.7,7.2 -32.1,30.5 -0.7,0.6 -37.2,19.3 -21.9,6.2 -18.9,2.1 -40.4,-3.9 -38.2,-13.7 -5.4,-3.1 -29.6,-18.5 -28.2,-29.9 -19.5,-36.1 -8.9,-40.1 1,-24.4 2.3,-17.1 15.8,-39.5 17.2,-21.4 15.5,-12.4 31.4,-18 17.1,-5 30.8,-6.7 41.5,2.8" /><path
           inkscape:connector-curvature="0"
           id="path4441"
           style="fill:none;stroke:#ff0000;stroke-width:17.00787354;stroke-linecap:round;stroke-linejoin:round;stroke-miterlimit:10;stroke-dasharray:none;stroke-opacity:1"
           d="m 1521.4,4288 -29,-10.5 -4.2,-0.3 -41.5,-2.8 -30.8,6.7 -17.1,5 -31.4,18 -15.5,12.4 -17.2,21.4 -15.8,39.5 -2.3,17.1 -1,24.4 8.9,40.1 19.5,36.1 28.2,29.9 29.6,18.5 5.4,3.1 38.2,13.7 40.4,3.9 18.9,-2.1 21.9,-6.2 37.2,-19.3 0.7,-0.6 32.1,-30.5 1.8,-7.6 6.9,-44.2 4.6,-44.6 2.6,-29.6 -4.5,-12.8 -1.9,-4 -1.7,-3.3 -3.1,-5.4 -2.7,-4.6 -2.5,-3.9 -2.6,-3.6 -2.8,-3.3 -3.1,-3.3 -3.6,-3.6 -4.3,-4 -4.4,-4.1 -0.7,-0.7 -6.8,-6.2 -11.5,-8.9 -21.8,-15.1 -13.1,-4.7" /><path
           inkscape:connector-curvature="0"
           id="path4443"
           style="fill:none;stroke:#ff0000;stroke-width:7.5;stroke-linecap:round;stroke-linejoin:round;stroke-miterlimit:10;stroke-dasharray:none;stroke-opacity:1"
           d="m 1484.5,4311.5 h 1.3 l 0.2,0.1 39.4,14.4 5.3,2.1 9.9,7 9.7,7.6 7.4,6.6 6.1,6.4 5.3,6.4 4.7,7 4.4,8.4 4.4,10.6 4.7,14.6 0.2,0.9 -2.6,46.2 -19.8,40.8 -18.7,15.4 -23.7,15.5 -16.3,5.2 -39.1,3.5 -16.1,-1.8 -21.4,-5.9 -32.3,-18.4 -25,-27 -15.8,-33.2 -3.9,-37.1 5.7,-27.4 4.4,-10.4 26.6,-34.5 6.9,-5.6 44.7,-18.3 43.4,0.9" /><path
           inkscape:connector-curvature="0"
           id="path4445"
           style="fill:none;stroke:#ff0000;stroke-width:17.00787354;stroke-linecap:round;stroke-linejoin:round;stroke-miterlimit:10;stroke-dasharray:none;stroke-opacity:1"
           d="m 1486,4311.6 -0.2,-0.1 h -1.3 l -43.4,-0.9 -44.7,18.3 -6.9,5.6 -26.6,34.5 -4.4,10.4 -5.7,27.4 3.9,37.1 15.8,33.2 25,27 32.3,18.4 21.4,5.9 16.1,1.8 39.1,-3.5 16.3,-5.2 23.7,-15.5 18.7,-15.4 19.8,-40.8 2.6,-46.2 -0.2,-0.9 -4.7,-14.6 -4.4,-10.6 -4.4,-8.4 -4.7,-7 -5.3,-6.4 -6.1,-6.4 -7.4,-6.6 -9.7,-7.6 -9.9,-7 -5.3,-2.1 -39.4,-14.4" /><path
           inkscape:connector-curvature="0"
           id="path4447"
           style="fill:none;stroke:#ff0000;stroke-width:7.5;stroke-linecap:round;stroke-linejoin:round;stroke-miterlimit:10;stroke-dasharray:none;stroke-opacity:1"
           d="m 1428.4,4356.5 14.7,-8.3 33.8,-0.9 11.4,-0.2 21.1,8.8 16.3,8.5 11,8.4 8.1,9.4 5.5,12.1 2.9,17.6 0.4,25 -21.2,39.4 -39.8,19 -8.1,2.7 -29.9,-1.9 -31.1,-13.5 -21.8,-24 -10.6,-30.9 3.8,-34.6 8.2,-18 25.3,-18.6" /><path
           inkscape:connector-curvature="0"
           id="path4449"
           style="fill:none;stroke:#ff0000;stroke-width:17.00787354;stroke-linecap:round;stroke-linejoin:round;stroke-miterlimit:10;stroke-dasharray:none;stroke-opacity:1"
           d="m 1476.9,4347.3 -33.8,0.9 -14.7,8.3 -25.3,18.6 -8.2,18 -3.8,34.6 10.6,30.9 21.8,24 31.1,13.5 29.9,1.9 8.1,-2.7 39.8,-19 21.2,-39.4 -0.4,-25 -2.9,-17.6 -5.5,-12.1 -8.1,-9.4 -11,-8.4 -16.3,-8.5 -21.1,-8.8 -11.4,0.2" /><path
           inkscape:connector-curvature="0"
           id="path4451"
           style="fill:none;stroke:#ff0000;stroke-width:7.5;stroke-linecap:round;stroke-linejoin:round;stroke-miterlimit:10;stroke-dasharray:none;stroke-opacity:1"
           d="m 1452,4399.1 4.5,-5.7 h 7.5 l 28.8,7.3 11.7,14.8 -7.2,35.1 -37,1.5 -16.7,-20.1 8.4,-32.9" /><path
           inkscape:connector-curvature="0"
           id="path4453"
           style="fill:none;stroke:#ff0000;stroke-width:7.5;stroke-linecap:round;stroke-linejoin:round;stroke-miterlimit:10;stroke-dasharray:none;stroke-opacity:1"
           d="m 1464,4393.4 h -7.5 l -4.5,5.7 -8.4,32.9 16.7,20.1 37,-1.5 7.2,-35.1 -11.7,-14.8 -28.8,-7.3" /><path
           inkscape:connector-curvature="0"
           id="path4455"
           style="fill:none;stroke:#0eff00;stroke-width:7.5;stroke-linecap:round;stroke-linejoin:round;stroke-miterlimit:10;stroke-dasharray:none;stroke-opacity:1"
           d="m 1469.3,3127 54.6,16.9 -49,27.9 -15.7,12.5 -11.8,35.9 -97.7,47.1 -29.5,16.4 -86.5,60.6 -30.6,19.1 -79.2,54.2 -106.9,72.4 -105.699,75.3 -37.903,25.6 -67,56 -78.398,66.4 -27,23.5 -64.398,61.4 -42,39.3 -28.903,30.8 -65,88 -6.898,11.5 -51.199,64" /><path
           inkscape:connector-curvature="0"
           id="path4457"
           style="fill:none;stroke:#0eff00;stroke-width:7.5;stroke-linecap:round;stroke-linejoin:round;stroke-miterlimit:10;stroke-dasharray:none;stroke-opacity:1"
           d="m 2789,4543 -3.8,-36.6 -28.7,-31.2 -29.4,-37.7 -42.5,56.7 -16.4,25.8 -32.8,40.8 -45.4,74.4 -30.9,49.9 -37.3,59.2 -71,102.9 -76.6,96.8 -80.6,93.3 -84.6,93.4 -15.2,17.5 -77.7,74.1 -33.2,32.9 -69.5,58.5 -24.7,20.1 -73.4,59.6 -14.9,18.6 -29.7,27.3 -82.2,48.6" /><path
           inkscape:connector-curvature="0"
           id="path4459"
           style="fill:none;stroke:#179a08;stroke-width:17.00787354;stroke-linecap:round;stroke-linejoin:round;stroke-miterlimit:10;stroke-dasharray:none;stroke-opacity:1"
           d="m 1453.8,3119.3 15.5,7.7" /><path
           inkscape:connector-curvature="0"
           id="path4461"
           style="fill:none;stroke:#179a08;stroke-width:17.00787354;stroke-linecap:round;stroke-linejoin:round;stroke-miterlimit:10;stroke-dasharray:none;stroke-opacity:1"
           d="m 1474.9,3171.8 49,-27.9 -54.6,-16.9" /><path
           inkscape:connector-curvature="0"
           id="path4463"
           style="fill:none;stroke:#179a08;stroke-width:17.00787354;stroke-linecap:round;stroke-linejoin:round;stroke-miterlimit:10;stroke-dasharray:none;stroke-opacity:1"
           d="m 1786.2,5520.7 2.3,-32.8 82.2,-48.6 29.7,-27.3 14.9,-18.6 73.4,-59.6 24.7,-20.1 69.5,-58.5 33.2,-32.9 77.7,-74.1 15.2,-17.5 84.6,-93.4 80.6,-93.3 76.6,-96.8 71,-102.9 37.3,-59.2 30.9,-49.9 45.4,-74.4 32.8,-40.8 16.4,-25.8 42.5,-56.7 29.4,37.7 28.7,31.2 3.8,36.6 8.4,65.2" /><path
           inkscape:connector-curvature="0"
           id="path4465"
           style="fill:none;stroke:#169908;stroke-width:17.00787354;stroke-linecap:round;stroke-linejoin:round;stroke-miterlimit:10;stroke-dasharray:none;stroke-opacity:0.84705882"
           d="m 493.801,3967.8 6.898,-11.5 65,-88 28.903,-30.8 42,-39.3 64.398,-61.4 27,-23.5 78.398,-66.4 67,-56 37.903,-25.6 105.699,-75.3 106.9,-72.4 79.2,-54.2 30.6,-19.1 86.5,-60.6 29.5,-16.4 97.7,-47.1 11.8,-35.9 15.7,-12.5" /><path
           inkscape:connector-curvature="0"
           id="path4467"
           style="fill:none;stroke:#0eff00;stroke-width:7.5;stroke-linecap:round;stroke-linejoin:round;stroke-miterlimit:10;stroke-dasharray:none;stroke-opacity:1"
           d="m 2042.6,5387.3 -65.4,57.3" /><path
           inkscape:connector-curvature="0"
           id="path4469"
           style="fill:none;stroke:#179a08;stroke-width:17.00787354;stroke-linecap:round;stroke-linejoin:round;stroke-miterlimit:10;stroke-dasharray:none;stroke-opacity:1"
           d="m 1261.4,3162.1 37.6,22.4 -58.6,53.1 -34.4,36.7 -28.5,24.1 -85.2,61.8 -110.402,81.5 -109.296,82.4 -83.5,54.9 -31.301,27.7 -95,81.3 -16.699,14 -67,62.2 -53.204,40.9 -5.597,5" /><path
           inkscape:connector-curvature="0"
           id="path4471"
           style="fill:none;stroke:#0eff00;stroke-width:7.5;stroke-linecap:round;stroke-linejoin:round;stroke-miterlimit:10;stroke-dasharray:none;stroke-opacity:1"
           d="m 2718.4,4751.1 -30.4,-12.8 -30.8,-13.7 -56.4,56.9 -11.2,11.4 -84.4,88.9 -37,46.1 -48,54.1 -87.1,97.3 -9.2,11 -83.2,84 -79.8,79.1 -17.2,19.2 -50.8,55.3 -49,57.9 -1.3,1.5" /><path
           inkscape:connector-curvature="0"
           id="path4473"
           style="fill:none;stroke:#179a08;stroke-width:17.00787354;stroke-linecap:round;stroke-linejoin:round;stroke-miterlimit:10;stroke-dasharray:none;stroke-opacity:1"
           d="m 1206,3274.3 34.4,-36.7 58.6,-53.1" /><path
           inkscape:connector-curvature="0"
           id="path4475"
           style="fill:none;stroke:#179a08;stroke-width:17.00787354;stroke-linecap:round;stroke-linejoin:round;stroke-miterlimit:10;stroke-dasharray:none;stroke-opacity:1"
           d="m 1978.6,5477.9 -1.4,-33.3 65.4,-57.3 1.3,-1.5 49,-57.9 50.8,-55.3 17.2,-19.2 79.8,-79.1 83.2,-84 9.2,-11 87.1,-97.3 48,-54.1 37,-46.1 84.4,-88.9 11.2,-11.4 56.4,-56.9 30.8,13.7 30.4,12.8 1.3,78.8" /><path
           inkscape:connector-curvature="0"
           id="path4477"
           style="fill:none;stroke:#179a08;stroke-width:17.00787354;stroke-linecap:round;stroke-linejoin:round;stroke-miterlimit:10;stroke-dasharray:none;stroke-opacity:1"
           d="m 525.898,3805.1 53.204,-40.9 67,-62.2 16.699,-14 95,-81.3 31.301,-27.7 83.5,-54.9 109.296,-82.4 110.402,-81.5 85.2,-61.8 28.5,-24.1" /><path
           inkscape:connector-curvature="0"
           id="path4479"
           style="fill:none;stroke:#0eff00;stroke-width:7.5;stroke-linecap:round;stroke-linejoin:round;stroke-miterlimit:10;stroke-dasharray:none;stroke-opacity:1"
           d="m 2169.8,5320 -11,12.6 -39.8,56.7" /><path
           inkscape:connector-curvature="0"
           id="path4481"
           style="fill:none;stroke:#179a08;stroke-width:17.00787354;stroke-linecap:round;stroke-linejoin:round;stroke-miterlimit:10;stroke-dasharray:none;stroke-opacity:1"
           d="m 1124.3,3213.9 2.6,34.1 -59.5,66.8 -0.1,0.1 -110.3,92.6 -113,86.1 -70.801,52.8 -49.398,32.2 -47.403,32.9 -78.597,59.8 -3.199,2.3" /><path
           inkscape:connector-curvature="0"
           id="path4483"
           style="fill:none;stroke:#0eff00;stroke-width:7.5;stroke-linecap:round;stroke-linejoin:round;stroke-miterlimit:10;stroke-dasharray:none;stroke-opacity:1"
           d="m 2641.4,4910.9 -23.3,-25.7 -57.1,29.7 -1.5,1.3 -102.3,96.4 -96.4,96.2 -90.7,106 -13.7,18.7 -86.6,86.5" /><path
           inkscape:connector-curvature="0"
           id="path4485"
           style="fill:none;stroke:#179a08;stroke-width:17.00787354;stroke-linecap:round;stroke-linejoin:round;stroke-miterlimit:10;stroke-dasharray:none;stroke-opacity:1"
           d="m 1067.4,3314.8 59.5,-66.8" /><path
           inkscape:connector-curvature="0"
           id="path4487"
           style="fill:none;stroke:#179a08;stroke-width:17.00787354;stroke-linecap:round;stroke-linejoin:round;stroke-miterlimit:10;stroke-dasharray:none;stroke-opacity:1"
           d="m 2115.7,5426.1 3.3,-36.8 39.8,-56.7 11,-12.6 86.6,-86.5 13.7,-18.7 90.7,-106 96.4,-96.2 102.3,-96.4 1.5,-1.3 57.1,-29.7 23.3,25.7 4,55.5" /><path
           inkscape:connector-curvature="0"
           id="path4489"
           style="fill:none;stroke:#179a08;stroke-width:17.00787354;stroke-linecap:round;stroke-linejoin:round;stroke-miterlimit:10;stroke-dasharray:none;stroke-opacity:1"
           d="m 597.801,3671.3 78.597,-59.8 47.403,-32.9 49.398,-32.2 70.801,-52.8 113,-86.1 110.3,-92.6 0.1,-0.1" /><path
           inkscape:connector-curvature="0"
           id="path4491"
           style="fill:none;stroke:#0eff00;stroke-width:7.5;stroke-linecap:round;stroke-linejoin:round;stroke-miterlimit:10;stroke-dasharray:none;stroke-opacity:1"
           d="m 2292.4,5245.5 -9,10.2 -14.7,50" /><path
           inkscape:connector-curvature="0"
           id="path4493"
           style="fill:none;stroke:#179a08;stroke-width:17.00787354;stroke-linecap:round;stroke-linejoin:round;stroke-miterlimit:10;stroke-dasharray:none;stroke-opacity:1"
           d="m 994.199,3281.9 -69.199,81.5 -117.898,90.9 -121,93.2 -0.403,0.2" /><path
           inkscape:connector-curvature="0"
           id="path4495"
           style="fill:none;stroke:#0eff00;stroke-width:7.5;stroke-linecap:round;stroke-linejoin:round;stroke-miterlimit:10;stroke-dasharray:none;stroke-opacity:1"
           d="m 2535.8,5064.1 -23.6,-23.2 -11.3,7.9 -109.1,93 -99.4,103.7" /><path
           inkscape:connector-curvature="0"
           id="path4497"
           style="fill:none;stroke:#179a08;stroke-width:17.00787354;stroke-linecap:round;stroke-linejoin:round;stroke-miterlimit:10;stroke-dasharray:none;stroke-opacity:1"
           d="m 2245.8,5358.1 22.9,-52.4 14.7,-50 9,-10.2 99.4,-103.7 109.1,-93 11.3,-7.9 23.6,23.2 18.5,28.2" /><path
           inkscape:connector-curvature="0"
           id="path4499"
           style="fill:none;stroke:#179a08;stroke-width:17.00787354;stroke-linecap:round;stroke-linejoin:round;stroke-miterlimit:10;stroke-dasharray:none;stroke-opacity:1"
           d="m 686.102,3547.5 121,-93.2 L 925,3363.4" /><path
           inkscape:connector-curvature="0"
           id="path4501"
           style="fill:none;stroke:#0000ff;stroke-width:7.5;stroke-linecap:round;stroke-linejoin:round;stroke-miterlimit:10;stroke-dasharray:none;stroke-opacity:1"
           d="m 2578.6,4008.5 50.8,46.6 39.9,14.3 35.3,-0.7 20.1,-57.4 3.1,-51.2 -4.9,-59.5 -22.6,-88.9 -60.5,-138.9" /><path
           inkscape:connector-curvature="0"
           id="path4503"
           style="fill:none;stroke:#0000ff;stroke-width:7.5;stroke-linecap:round;stroke-linejoin:round;stroke-miterlimit:10;stroke-dasharray:none;stroke-opacity:1"
           d="m 674.102,5078 12.5,14.2 11.199,14.5" /><path
           inkscape:connector-curvature="0"
           id="path4505"
           style="fill:none;stroke:#0000ff;stroke-width:7.5;stroke-linecap:round;stroke-linejoin:round;stroke-miterlimit:10;stroke-dasharray:none;stroke-opacity:1"
           d="m 2447.1,3439.3 -120,-92.6 -132.7,-71.5 -102,-36.5 -40.9,-8.6 -102.5,-8.9 -44.7,22.4 17.4,40.7 37.6,48.9 37,36.3 18.8,23.6 73.2,75.1 2.3,2.5 81.1,89.9 21.9,22.7 55.3,67 74.7,87.6 78.8,85.5 20.7,20.5 62.9,68.6 29.3,31.8 62.8,63.9 0.5,0.3" /><path
           inkscape:connector-curvature="0"
           id="path4507"
           style="fill:none;stroke:#0000ff;stroke-width:17.00787354;stroke-linecap:round;stroke-linejoin:round;stroke-miterlimit:10;stroke-dasharray:none;stroke-opacity:1"
           d="m 2727.8,3960.1 -3.1,51.2 -20.1,57.4 -35.3,0.7 -39.9,-14.3 -50.8,-46.6 -0.5,-0.3 -62.8,-63.9 -29.3,-31.8 -62.9,-68.6 -20.7,-20.5 -78.8,-85.5 -74.7,-87.6 -55.3,-67 -21.9,-22.7 -81.1,-89.9 -2.3,-2.5 -73.2,-75.1 -18.8,-23.6 -37,-36.3 -37.6,-48.9 -17.4,-40.7 44.7,-22.4 102.5,8.9 40.9,8.6 102,36.5 132.7,71.5 120,92.6 95.1,94" /><path
           inkscape:connector-curvature="0"
           id="path4509"
           style="fill:none;stroke:#0000ff;stroke-width:17.00787354;stroke-linecap:round;stroke-linejoin:round;stroke-miterlimit:10;stroke-dasharray:none;stroke-opacity:1"
           d="m 2565.9,3562 73.9,110.8 60.5,138.9 22.6,88.9 4.9,59.5" /><path
           inkscape:connector-curvature="0"
           id="path4511"
           style="fill:none;stroke:#0000ff;stroke-width:7.5;stroke-linecap:round;stroke-linejoin:round;stroke-miterlimit:10;stroke-dasharray:none;stroke-opacity:1"
           d="m 2567.6,3874.1 39.4,10.4 26.4,-25.5 v -15.9 l -23.5,-102.6 -16.1,-38.5 -75.3,-125.3 -103.7,-103.1 -120.2,-82.1 -3.9,-2 -115.8,-34.7 -32.9,15.8 -4.8,2.7 1.5,3.3 20.3,49.8 53.2,78.4 v 0.1 l 79.2,100.1 78.7,94.4 88.5,88.4 36.6,32.9 67.5,51.9 4.9,1.5" /><path
           inkscape:connector-curvature="0"
           id="path4513"
           style="fill:none;stroke:#0000ff;stroke-width:17.00787354;stroke-linecap:round;stroke-linejoin:round;stroke-miterlimit:10;stroke-dasharray:none;stroke-opacity:1"
           d="m 2633.4,3843.1 v 15.9 l -26.4,25.5 -39.4,-10.4 -4.9,-1.5 -67.5,-51.9 -36.6,-32.9 -88.5,-88.4 -78.7,-94.4 -79.2,-100.1 v -0.1 l -53.2,-78.4 -20.3,-49.8 -1.5,-3.3 4.8,-2.7 32.9,-15.8 115.8,34.7 3.9,2 120.2,82.1 103.7,103.1 75.3,125.3 16.1,38.5 23.5,102.6" /><path
           inkscape:connector-curvature="0"
           id="path4515"
           style="fill:none;stroke:#0000ff;stroke-width:7.5;stroke-linecap:round;stroke-linejoin:round;stroke-miterlimit:10;stroke-dasharray:none;stroke-opacity:1"
           d="m 2415.1,3662.3 38.6,30.1 62.1,26.5 -39.5,-107.3 -103.2,-93.5 -51.8,-17.8 12.5,58.5 0.4,0.6 80.9,102.9" /><path
           inkscape:connector-curvature="0"
           id="path4517"
           style="fill:none;stroke:#0000ff;stroke-width:17.00787354;stroke-linecap:round;stroke-linejoin:round;stroke-miterlimit:10;stroke-dasharray:none;stroke-opacity:1"
           d="m 2476.3,3611.6 39.5,107.3 -62.1,-26.5 -38.6,-30.1 -80.9,-102.9 -0.4,-0.6 -12.5,-58.5 51.8,17.8 103.2,93.5" /><path
           inkscape:connector-curvature="0"
           id="path4519"
           style="fill:#ff0000;fill-opacity:1;fill-rule:nonzero;stroke:none"
           d="m 1496.5,4427.6 c 0,18.56 -15.05,33.6 -33.6,33.6 -18.56,0 -33.6,-15.04 -33.6,-33.6 0,-18.55 15.04,-33.6 33.6,-33.6 18.55,0 33.6,15.05 33.6,33.6" /><path
           inkscape:connector-curvature="0"
           id="path4521"
           style="fill:none;stroke:#ff0000;stroke-width:17.00787354;stroke-linecap:round;stroke-linejoin:round;stroke-miterlimit:10;stroke-dasharray:none;stroke-opacity:1"
           d="m 1496.5,4427.6 c 0,18.56 -15.05,33.6 -33.6,33.6 -18.56,0 -33.6,-15.04 -33.6,-33.6 0,-18.55 15.04,-33.6 33.6,-33.6 18.55,0 33.6,15.05 33.6,33.6" /><path
           inkscape:connector-curvature="0"
           id="path4523"
           style="fill:#0eff00;fill-opacity:1;fill-rule:nonzero;stroke:none"
           d="m 2473.7,5182.4 c 0,18.55 -15.04,33.6 -33.6,33.6 -18.55,0 -33.6,-15.05 -33.6,-33.6 0,-18.56 15.05,-33.6 33.6,-33.6 18.56,0 33.6,15.04 33.6,33.6" /><path
           inkscape:connector-curvature="0"
           id="path4525"
           style="fill:#179a08;fill-opacity:1;stroke:#179a08;stroke-width:7.5;stroke-linecap:round;stroke-linejoin:round;stroke-miterlimit:10;stroke-dasharray:none;stroke-opacity:1"
           d="m 2473.7,5182.4 c 0,18.55 -15.04,33.6 -33.6,33.6 -18.55,0 -33.6,-15.05 -33.6,-33.6 0,-18.56 15.05,-33.6 33.6,-33.6 18.56,0 33.6,15.04 33.6,33.6" /><path
           inkscape:connector-curvature="0"
           id="path4527"
           style="fill:#0000ff;fill-opacity:1;fill-rule:nonzero;stroke:none;stroke-width:17.00787354;stroke-miterlimit:10;stroke-dasharray:none"
           d="m 2424.4,3575 c 0,18.55 -15.04,33.6 -33.6,33.6 -18.55,0 -33.6,-15.05 -33.6,-33.6 0,-18.55 15.05,-33.6 33.6,-33.6 18.56,0 33.6,15.05 33.6,33.6" /><path
           inkscape:connector-curvature="0"
           id="path4529"
           style="fill:none;stroke:#0000ff;stroke-width:7.5;stroke-linecap:round;stroke-linejoin:round;stroke-miterlimit:10;stroke-dasharray:none;stroke-opacity:1"
           d="m 2424.4,3575 c 0,18.55 -15.04,33.6 -33.6,33.6 -18.55,0 -33.6,-15.05 -33.6,-33.6 0,-18.55 15.05,-33.6 33.6,-33.6 18.56,0 33.6,15.05 33.6,33.6" /><path
           inkscape:connector-curvature="0"
           id="path4531"
           style="fill:#ffffff;fill-opacity:1;fill-rule:nonzero;stroke:none"
           d="m 1411,4434.2 c 0,18.55 -15.05,33.6 -33.6,33.6 -18.56,0 -33.6,-15.05 -33.6,-33.6 0,-18.56 15.04,-33.6 33.6,-33.6 18.55,0 33.6,15.04 33.6,33.6" /><path
           inkscape:connector-curvature="0"
           id="path4533"
           style="fill:none;stroke:#ff0000;stroke-width:7.5;stroke-linecap:round;stroke-linejoin:round;stroke-miterlimit:10;stroke-dasharray:none;stroke-opacity:1"
           d="m 1411,4434.2 c 0,18.55 -15.05,33.6 -33.6,33.6 -18.56,0 -33.6,-15.05 -33.6,-33.6 0,-18.56 15.04,-33.6 33.6,-33.6 18.55,0 33.6,15.04 33.6,33.6" /><path
           inkscape:connector-curvature="0"
           id="path4535"
           style="fill:#ffffff;fill-opacity:1;fill-rule:nonzero;stroke:none"
           d="m 2430.5,5171.7 c 0,18.55 -15.05,33.6 -33.6,33.6 -18.56,0 -33.6,-15.05 -33.6,-33.6 0,-18.56 15.04,-33.6 33.6,-33.6 18.55,0 33.6,15.04 33.6,33.6" /><path
           inkscape:connector-curvature="0"
           id="path4537"
           style="fill:none;stroke:#179a08;stroke-width:7.5;stroke-linecap:round;stroke-linejoin:round;stroke-miterlimit:10;stroke-dasharray:none;stroke-opacity:1"
           d="m 2430.5,5171.7 c 0,18.55 -15.05,33.6 -33.6,33.6 -18.56,0 -33.6,-15.05 -33.6,-33.6 0,-18.56 15.04,-33.6 33.6,-33.6 18.55,0 33.6,15.04 33.6,33.6" /><path
           inkscape:connector-curvature="0"
           id="path4539"
           style="fill:#ffffff;fill-opacity:1;fill-rule:nonzero;stroke:none"
           d="m 2385.5,3611.7 c 0,18.55 -15.05,33.6 -33.6,33.6 -18.56,0 -33.6,-15.05 -33.6,-33.6 0,-18.56 15.04,-33.6 33.6,-33.6 18.55,0 33.6,15.04 33.6,33.6" /><path
           inkscape:connector-curvature="0"
           id="path4541"
           style="fill:none;stroke:#0000ff;stroke-width:7.5;stroke-linecap:round;stroke-linejoin:round;stroke-miterlimit:10;stroke-dasharray:none;stroke-opacity:1"
           d="m 2385.5,3611.7 c 0,18.55 -15.05,33.6 -33.6,33.6 -18.56,0 -33.6,-15.05 -33.6,-33.6 0,-18.56 15.04,-33.6 33.6,-33.6 18.55,0 33.6,15.04 33.6,33.6" /><path
           inkscape:connector-curvature="0"
           id="path4543"
           style="fill:none;stroke:#000000;stroke-width:22.67716599;stroke-linecap:round;stroke-linejoin:round;stroke-miterlimit:10;stroke-dasharray:68.03149775, 113.38582963;stroke-dashoffset:0;stroke-opacity:1"
           d="m 1620,4320 901.2,810.6" /><path
           inkscape:connector-curvature="0"
           id="path4545"
           style="fill:none;stroke:#000000;stroke-width:22.67716599;stroke-linecap:round;stroke-linejoin:round;stroke-miterlimit:10;stroke-dasharray:68.03149775, 113.38582963;stroke-dashoffset:0;stroke-opacity:1"
           d="M 1620,4320 718.801,3509.4" /></g></g><g
       style="stroke-width:17.00787354;stroke-miterlimit:10;stroke-dasharray:none"
       id="g4547"
       transform="scale(0.1)"><g
         style="stroke-width:17.00787354;stroke-miterlimit:10;stroke-dasharray:none"
         clip-path="url(#clipPath4553)"
         id="g4549"><path
           inkscape:connector-curvature="0"
           id="path4555"
           style="fill:none;stroke:#000000;stroke-width:17.00787354;stroke-linecap:round;stroke-linejoin:round;stroke-miterlimit:10;stroke-dasharray:none;stroke-opacity:1"
           d="m 3813.7,3758.9 4.7,5.4 4.7,5.7 4.7,5.8 4.7,6 4.6,6.1 4.7,6.3 4.7,6.4 4.7,6.7 4.7,6.8 4.6,6.9 4.7,7.2 4.7,7.4 4.7,7.5 4.6,7.8 4.7,7.9 4.7,8.2 4.7,8.3 4.7,8.6 4.6,8.8 4.7,9 4.7,9.1 4.7,9.4 4.7,9.7 4.6,9.8 4.7,10.1 4.7,10.3 4.7,10.5 4.7,10.8 4.6,10.9 4.7,11.2 4.7,11.4 4.7,11.6 4.7,11.9 4.6,12 4.7,12.3 4.7,12.5 4.7,12.7 4.7,12.9 4.6,13.1 4.7,13.3 4.7,13.4 4.7,13.7 4.7,13.9 4.6,14 4.7,14.2 4.7,14.4 4.7,14.6 4.7,14.7 4.6,14.9 4.7,15 4.7,15.1 4.7,15.3 4.7,15.4 4.6,15.5 4.7,15.6 4.7,15.7 4.7,15.8 4.7,15.8 4.6,16 4.7,16 4.7,16 4.7,16.1 4.7,16.1 4.6,16.1 4.7,16.2 4.7,16.1 4.7,16.1 4.7,16 4.6,16.1 4.7,15.9 4.7,15.9 4.7,15.8 4.7,15.8 4.6,15.6 4.7,15.4 4.7,15.4 4.7,15.2 4.7,15 4.6,14.9 4.7,14.6 4.7,14.5 4.7,14.2 4.6,14 4.7,13.8 4.7,13.6 4.7,13.2 4.7,12.9 4.6,12.7 4.7,12.5 4.7,12 4.7,11.7 4.7,11.4 4.6,11.2 4.7,10.6 4.7,10.3 4.7,10 4.7,9.7 4.6,9.1 4.7,8.8 4.7,8.5 4.7,8.1 4.7,7.5 4.6,7.2 4.7,6.8 4.7,6.4 4.7,5.9 4.7,5.5 4.6,5.1 4.7,4.7 4.7,4.1 4.7,3.8 4.7,3.4 4.6,3 4.7,2.4 4.7,2 4.7,1.7 4.7,1.2 4.6,0.7 4.7,0.4 h 4.7 l 4.7,-0.5 4.7,-0.9 4.6,-1.3 4.7,-1.7 4.7,-2.1 4.7,-2.5 4.7,-2.9 4.6,-3.2 4.7,-3.6 4.7,-4.1 4.7,-4.4 4.7,-4.7 4.6,-5 4.7,-5.5 4.7,-5.7 4.7,-6.1 4.7,-6.3 4.6,-6.8 4.7,-7 4.7,-7.2 4.7,-7.6 4.7,-7.9 4.6,-8.1 4.7,-8.4 4.7,-8.6 4.7,-8.9 4.7,-9 4.6,-9.3 4.7,-9.5 4.7,-9.7 4.7,-9.9 4.6,-10.1 4.7,-10.2 4.7,-10.4 4.7,-10.6 4.7,-10.6 4.6,-10.8 4.7,-11 4.7,-11 4.7,-11.1 4.7,-11.3 4.6,-11.3 4.7,-11.4 4.7,-11.4 4.7,-11.5 4.7,-11.6 4.6,-11.6 4.7,-11.7 4.7,-11.6 4.7,-11.7 4.7,-11.7 4.6,-11.7 4.7,-11.8 4.7,-11.7 4.7,-11.7 4.7,-11.7 4.6,-11.7 4.7,-11.6 4.7,-11.6 4.7,-11.6 4.7,-11.6 4.6,-11.5 4.7,-11.5 4.7,-11.4 4.7,-11.4 4.7,-11.3 4.6,-11.3 4.7,-11.2 4.7,-11.1 4.7,-11.1 4.7,-11 4.6,-10.9 4.7,-10.9 4.7,-10.8 4.7,-10.7 4.7,-10.7 4.6,-10.5 4.7,-10.5 4.7,-10.4 4.7,-10.3 4.7,-10.2 4.6,-10.1 4.7,-10.1 4.7,-9.9 4.7,-9.9 4.7,-9.7 4.6,-9.7 4.7,-9.6 4.7,-9.4 4.7,-9.4 4.7,-9.2 4.6,-9.2 4.7,-9.1 4.7,-8.9 4.7,-8.9 4.7,-8.7 4.6,-8.6 4.7,-8.5 4.7,-8.5 4.7,-8.3 4.6,-8.2 4.7,-8.1 4.7,-8 4.7,-7.9 4.7,-7.7 4.6,-7.7 4.7,-7.5 4.7,-7.5 4.7,-7.3 4.7,-7.2 4.6,-7.2 4.7,-7 4.7,-6.9 4.7,-6.8 4.7,-6.8 4.6,-6.6 4.7,-6.5 4.7,-6.4 4.7,-6.3 4.7,-6.2 4.6,-6.2 4.7,-6 4.7,-6 4.7,-5.8 4.7,-5.8 4.6,-5.6 4.7,-5.6 4.7,-5.5 4.7,-5.4 4.7,-5.4 4.6,-5.2 4.7,-5.2 4.7,-5.1 4.7,-5 4.7,-5 4.6,-4.8 4.7,-4.8 4.7,-4.8 4.7,-4.6 4.7,-4.6 4.6,-4.5 4.7,-4.4 4.7,-4.4 4.7,-4.3 4.7,-4.2 4.6,-4.2 4.7,-4.1 4.7,-4 4.7,-4 4.7,-3.9 4.6,-3.8 4.7,-3.8 4.7,-3.7 4.7,-3.6 4.7,-3.6 4.6,-3.6 4.7,-3.4 4.7,-3.4 4.7,-3.4 4.7,-3.3 4.6,-3.2 4.7,-3.2 4.7,-3.2 4.7,-3 4.7,-3 4.6,-3 4.7,-2.9 4.7,-2.9 4.7,-2.8 4.7,-2.7 4.6,-2.7 4.7,-2.7 4.7,-2.6 4.7,-2.6 4.6,-2.5 4.7,-2.4 4.7,-2.5 4.7,-2.4 4.7,-2.3 4.6,-2.3 4.7,-2.2 4.7,-2.3 4.7,-2.1 4.7,-2.2 4.6,-2.1 4.7,-2 4.7,-2.1 4.7,-2 4.7,-1.9 4.6,-2 4.7,-1.9 4.7,-1.8 4.7,-1.9 4.7,-1.8 4.6,-1.7 4.7,-1.8 4.7,-1.7 4.7,-1.7 4.7,-1.6 4.6,-1.7 4.7,-1.6 4.7,-1.6 4.7,-1.5 4.7,-1.6 4.6,-1.5 4.7,-1.5 4.7,-1.5 4.7,-1.4 4.7,-1.5 4.6,-1.4 4.7,-1.4 4.7,-1.3 4.7,-1.4 4.7,-1.3 4.6,-1.4 4.7,-1.3 4.7,-1.3 4.7,-1.2 4.7,-1.3 4.6,-1.2 4.7,-1.3 4.7,-1.2 4.7,-1.2 4.7,-1.2 4.6,-1.2 4.7,-1.1 4.7,-1.2 4.7,-1.1 4.7,-1.2 4.6,-1.1 4.7,-1.1 4.7,-1.1 4.7,-1.1 4.7,-1.1 4.6,-1.1 4.7,-1.1 4.7,-1 4.7,-1.1 4.7,-1 4.6,-1.1 4.7,-1 4.7,-1 4.7,-1.1 4.6,-1 4.7,-1 4.7,-1 4.7,-1 4.7,-1 4.6,-0.9 4.7,-1 4.7,-1 4.7,-1 4.7,-0.9 4.6,-1 4.7,-0.9 4.7,-1 4.7,-0.9 4.7,-0.9 4.6,-1 4.7,-0.9 4.7,-0.9 4.7,-0.9 4.7,-0.9 4.6,-0.9 4.7,-0.9 4.7,-0.8 4.7,-0.9 4.7,-0.9 4.6,-0.8 4.7,-0.9 4.7,-0.8 4.7,-0.8 4.7,-0.9 4.6,-0.8 4.7,-0.8 4.7,-0.8 4.7,-0.8 4.7,-0.7 4.6,-0.8 4.7,-0.8 4.7,-0.7 4.7,-0.7 4.7,-0.8 4.6,-0.7 4.7,-0.7 4.7,-0.7 4.7,-0.6 4.7,-0.7 4.6,-0.7 4.7,-0.6 4.7,-0.6 4.7,-0.6 4.7,-0.6 4.6,-0.6 4.7,-0.6 4.7,-0.6 4.7,-0.5 4.7,-0.5 4.6,-0.5 4.7,-0.5 4.7,-0.5 4.7,-0.5 4.7,-0.4 4.6,-0.4 4.7,-0.4 4.7,-0.4 4.7,-0.4 4.7,-0.3 4.6,-0.4 4.7,-0.3 4.7,-0.2 4.7,-0.3 4.6,-0.2 4.7,-0.3 4.7,-0.1 4.7,-0.2 4.7,-0.2 4.6,-0.1 4.7,-0.1 h 4.7 l 4.7,-0.1 h 4.7 l 4.6,0.1 h 4.7 l 4.7,0.1 4.7,0.1 4.7,0.2 4.6,0.1 4.7,0.3 4.7,0.2 4.7,0.3 4.7,0.3 4.6,0.4 4.7,0.4 4.7,0.4 4.7,0.5 4.7,0.6 4.6,0.5 4.7,0.7 4.7,0.7 4.7,0.7 4.7,0.7 4.6,0.9 4.7,0.9 4.7,0.9 4.7,1 4.7,1 4.6,1.2 4.7,1.1 4.7,1.3 4.7,1.3 4.7,1.4 4.6,1.4 4.7,1.5 4.7,1.6 4.7,1.7 4.7,1.7 4.6,1.8 4.7,1.9 4.7,2 4.7,2 4.7,2.2 4.6,2.2 4.7,2.3 4.7,2.4 4.7,2.5 4.7,2.6 4.6,2.7 4.7,2.8 4.7,2.9 4.7,3 4.7,3 4.6,3.2 4.7,3.3 4.7,3.4 4.7,3.5 4.7,3.6 4.6,3.7 4.7,3.8 4.7,3.9 4.7,4.1 4.6,4.2 4.7,4.3 4.7,4.4 4.7,4.5 4.7,4.7 4.6,4.8 4.7,4.9 4.7,5 4.7,5.2 4.7,5.4" /></g></g><path
       inkscape:connector-curvature="0"
       id="path4557"
       style="fill:none;stroke:#000000;stroke-width:0.75;stroke-linecap:round;stroke-linejoin:round;stroke-miterlimit:10;stroke-dasharray:none;stroke-opacity:1"
       d="M 381.37,347.76 H 580.65" /><path
       inkscape:connector-curvature="0"
       id="path4559"
       style="fill:none;stroke:#000000;stroke-width:0.75;stroke-linecap:round;stroke-linejoin:round;stroke-miterlimit:10;stroke-dasharray:none;stroke-opacity:1"
       d="m 381.37,347.76 v -5.98" /><path
       inkscape:connector-curvature="0"
       id="path4561"
       style="fill:none;stroke:#000000;stroke-width:0.75;stroke-linecap:round;stroke-linejoin:round;stroke-miterlimit:10;stroke-dasharray:none;stroke-opacity:1"
       d="m 447.8,347.76 v -5.98" /><path
       inkscape:connector-curvature="0"
       id="path4563"
       style="fill:none;stroke:#000000;stroke-width:0.75;stroke-linecap:round;stroke-linejoin:round;stroke-miterlimit:10;stroke-dasharray:none;stroke-opacity:1"
       d="m 514.23,347.76 v -5.98" /><path
       inkscape:connector-curvature="0"
       id="path4565"
       style="fill:none;stroke:#000000;stroke-width:0.75;stroke-linecap:round;stroke-linejoin:round;stroke-miterlimit:10;stroke-dasharray:none;stroke-opacity:1"
       d="m 580.65,347.76 v -5.98" /><g
       id="g4567"><text
         id="text4571"
         style="font-variant:normal;font-weight:normal;font-size:10px;font-family:Helvetica;-inkscape-font-specification:Helvetica;writing-mode:lr-tb;fill:#000000;fill-opacity:1;fill-rule:nonzero;stroke:none"
         transform="matrix(1,0,0,-1,378.59,326.25)"><tspan
           id="tspan4569"
           sodipodi:role="line"
           y="0"
           x="0 63.650002 69.209999 127.3 132.86 138.42 193.72031 199.2803 204.8403">050100150</tspan></text>
</g><path
       inkscape:connector-curvature="0"
       id="path4573"
       style="fill:none;stroke:#000000;stroke-width:0.75;stroke-linecap:round;stroke-linejoin:round;stroke-miterlimit:10;stroke-dasharray:none;stroke-opacity:1"
       d="M 371.81,347.76 V 556.94" /><path
       inkscape:connector-curvature="0"
       id="path4575"
       style="fill:none;stroke:#000000;stroke-width:0.75;stroke-linecap:round;stroke-linejoin:round;stroke-miterlimit:10;stroke-dasharray:none;stroke-opacity:1"
       d="m 371.81,347.76 h -5.98" /><path
       inkscape:connector-curvature="0"
       id="path4577"
       style="fill:none;stroke:#000000;stroke-width:0.75;stroke-linecap:round;stroke-linejoin:round;stroke-miterlimit:10;stroke-dasharray:none;stroke-opacity:1"
       d="m 371.81,377.64 h -5.98" /><path
       inkscape:connector-curvature="0"
       id="path4579"
       style="fill:none;stroke:#000000;stroke-width:0.75;stroke-linecap:round;stroke-linejoin:round;stroke-miterlimit:10;stroke-dasharray:none;stroke-opacity:1"
       d="m 371.81,407.52 h -5.98" /><path
       inkscape:connector-curvature="0"
       id="path4581"
       style="fill:none;stroke:#000000;stroke-width:0.75;stroke-linecap:round;stroke-linejoin:round;stroke-miterlimit:10;stroke-dasharray:none;stroke-opacity:1"
       d="m 371.81,437.41 h -5.98" /><path
       inkscape:connector-curvature="0"
       id="path4583"
       style="fill:none;stroke:#000000;stroke-width:0.75;stroke-linecap:round;stroke-linejoin:round;stroke-miterlimit:10;stroke-dasharray:none;stroke-opacity:1"
       d="m 371.81,467.29 h -5.98" /><path
       inkscape:connector-curvature="0"
       id="path4585"
       style="fill:none;stroke:#000000;stroke-width:0.75;stroke-linecap:round;stroke-linejoin:round;stroke-miterlimit:10;stroke-dasharray:none;stroke-opacity:1"
       d="m 371.81,497.17 h -5.98" /><path
       inkscape:connector-curvature="0"
       id="path4587"
       style="fill:none;stroke:#000000;stroke-width:0.75;stroke-linecap:round;stroke-linejoin:round;stroke-miterlimit:10;stroke-dasharray:none;stroke-opacity:1"
       d="m 371.81,527.05 h -5.98" /><path
       inkscape:connector-curvature="0"
       id="path4589"
       style="fill:none;stroke:#000000;stroke-width:0.75;stroke-linecap:round;stroke-linejoin:round;stroke-miterlimit:10;stroke-dasharray:none;stroke-opacity:1"
       d="m 371.81,556.94 h -5.98" /><g
       id="g4591"><text
         id="text4595"
         style="font-variant:normal;font-weight:normal;font-size:10px;font-family:Helvetica;-inkscape-font-specification:Helvetica;writing-mode:lr-tb;fill:#000000;fill-opacity:1;fill-rule:nonzero;stroke:none"
         transform="matrix(0,1,1,0,357.47,340.811)"><tspan
           id="tspan4593"
           sodipodi:role="line"
           y="0"
           x="0 5.5599999 8.3400002 29.8797 35.439701 38.2197 59.7598 65.319801 68.0998 89.650002 95.209999 97.989998 119.5297 125.0897 127.8697 149.40981 154.9698 157.7498 179.2899 184.8499 187.6299 209.1797 214.7397 217.5197">0.00.51.01.52.02.53.03.5</tspan></text>
</g><path
       inkscape:connector-curvature="0"
       id="path4597"
       style="fill:none;stroke:#000000;stroke-width:0.75;stroke-linecap:round;stroke-linejoin:round;stroke-miterlimit:10;stroke-dasharray:none;stroke-opacity:1"
       d="M 371.81,347.76 H 630.07 V 558.07 H 371.81 V 347.76" /><text
       y="-303.84"
       x="467.87997"
       transform="scale(1,-1)"
       style="font-variant:normal;font-weight:normal;font-size:10px;font-family:Helvetica;-inkscape-font-specification:Helvetica;writing-mode:lr-tb;fill:#000000;fill-opacity:1;fill-rule:nonzero;stroke:none;stroke-width:1"
       id="text4611"><tspan
         sodipodi:role="line"
         id="tspan4609"
         x="467.87997"
         y="-303.84"
         style="font-size:18px;stroke-width:1">Azimuth</tspan></text>
<text
       transform="matrix(0,1,1,0,0,0)"
       style="font-variant:normal;font-weight:normal;font-size:10px;font-family:Helvetica;-inkscape-font-specification:Helvetica;writing-mode:lr-tb;fill:#000000;fill-opacity:1;fill-rule:nonzero;stroke:none;stroke-width:1"
       id="text4615"
       x="385.94885"
       y="338.05115"><tspan
         sodipodi:role="line"
         id="tspan4613"
         x="385.94885"
         y="338.05115"
         style="font-size:18px;stroke-width:1">Posterior density</tspan></text>
<g
       id="g4619"
       clip-path="url(#clipPath4623)"
       transform="scale(0.1)"><path
         d="m 3813.7,3772.4 46,-49.3 46,-39.6 46,-31.5 46,-25 46,-19.8 46,-15.5 45.9,-12 46,-9.4 46,-7.3 46,-5.5 46,-4.1 46,-3 46,-1.9 46,-0.9 45.9,-0.1 46,1 46,2 46,3.5 46,5.3 46,7.6 46,10.7 46,15.1 45.9,21.2 46,29.4 46,40.4 46,54.8 46,73.1 46,95.6 46,120.9 45.9,147.5 46,171.6 46,189.8 46,198.4 46,194.5 46,176.2 46,142.7 46,94.9 45.9,37.8 46,-21.1 46,-74.2 46,-116.4 46,-146.1 46,-163.3 46,-169.3 46,-165.9 45.9,-155.5 46,-140.8 46,-124 46,-106.7 46,-90.1 46,-74.7 46,-61"
         style="fill:none;stroke:#0000ff;stroke-width:17.00787354;stroke-linecap:round;stroke-linejoin:round;stroke-miterlimit:10;stroke-dasharray:none;stroke-opacity:1"
         id="path4625"
         inkscape:connector-curvature="0" /><path
         d="m 3813.7,3746.9 46,77.1 46,100.1 46,125.9 46,151.7 46,174.8 46,191.7 45.9,198.8 46,193 46,172.4 46,136.6 46,88.4 46,32.1 46,-25.7 46,-78.4 45.9,-121.5 46,-152 46,-170.5 46,-176.9 46,-172.7 46,-160.3 46,-142.7 46,-122.8 45.9,-103 46,-84.7 46,-68.6 46,-54.8 46,-43.6 46,-34.4 46,-27.4 45.9,-21.9 46,-17.4 46,-13.9 46,-11.1 46,-8.8 46,-7.1 46,-5.6 46,-4.4 45.9,-3.3 46,-2.4 46,-1.4 46,-0.5 46,0.4 46,1.7 46,3 46,4.9 45.9,7.3 46,10.6 46,15.3 46,21.6 46,30.5 46,42.2 46,57.6"
         style="fill:none;stroke:#179a08;stroke-width:17.00787354;stroke-linecap:round;stroke-linejoin:round;stroke-miterlimit:10;stroke-dasharray:none;stroke-opacity:1"
         id="path4627"
         inkscape:connector-curvature="0" /><path
         d="m 3813.7,3917.2 46,-28.9 46,-26.6 46,-24.8 46,-23.3 46,-21.6 46,-19.4 45.9,-16.6 46,-13.5 46,-10 46,-6 46,-1.8 46,3 46,8 46,13.3 45.9,18.9 46,24.5 46,30.2 46,36 46,41.4 46,46.5 46,50.9 46,54.3 45.9,56.8 46,57.8 46,57.4 46,55.3 46,51.2 46,45.6 46,38.8 45.9,31.1 46,22.8 46,13.9 46,5.2 46,-3.2 46,-10.8 46,-17.2 46,-22.6 45.9,-26.9 46,-30.3 46,-32.8 46,-34.6 46,-35.7 46,-36.5 46,-37 46,-37.1 45.9,-37 46,-36.6 46,-36.2 46,-35.7 46,-35.1 46,-33.6 46,-31.5"
         style="fill:none;stroke:#ff0000;stroke-width:17.00787354;stroke-linecap:round;stroke-linejoin:round;stroke-miterlimit:10;stroke-dasharray:none;stroke-opacity:1"
         id="path4629"
         inkscape:connector-curvature="0" /></g><path
       inkscape:connector-curvature="0"
       id="path4639"
       style="fill:none;stroke:#ff0000;stroke-width:2.83464575;stroke-linecap:round;stroke-linejoin:round;stroke-miterlimit:10;stroke-dasharray:none;stroke-opacity:1"
       d="m 156.9592,173.18167 h 17.9301" /><path
       inkscape:connector-curvature="0"
       id="path4641"
       style="fill:none;stroke:#0eff00;stroke-width:2.83464575;stroke-linecap:round;stroke-linejoin:round;stroke-miterlimit:10;stroke-dasharray:none;stroke-opacity:1"
       d="m 156.9592,149.57547 h 17.9301" /><path
       inkscape:connector-curvature="0"
       id="path4643"
       style="fill:none;stroke:#0000ff;stroke-width:2.83464575;stroke-linecap:round;stroke-linejoin:round;stroke-miterlimit:10;stroke-dasharray:none;stroke-opacity:1"
       d="m 156.9592,125.96928 h 17.9301" /><path
       inkscape:connector-curvature="0"
       id="path4645"
       style="fill:none;stroke:#000000;stroke-width:1.70078731;stroke-linecap:round;stroke-linejoin:round;stroke-miterlimit:10;stroke-dasharray:5.10236234, 8.50393722;stroke-dashoffset:0;stroke-opacity:1"
       d="m 156.3842,102.36308 h 17.9301" /><text
       transform="scale(1,-1)"
       style="font-style:normal;font-variant:normal;font-weight:normal;font-stretch:normal;font-size:10px;font-family:Symbol;-inkscape-font-specification:Symbol;writing-mode:lr-tb;fill:#000000;fill-opacity:1;fill-rule:nonzero;stroke:none;stroke-width:1"
       id="text4651"
       x="191.49597"
       y="-169.48154"><tspan
         x="191.49597"
         y="-169.48154"
         id="tspan4649"
         style="font-style:normal;font-variant:normal;font-weight:normal;font-stretch:normal;font-size:18px;font-family:Symbol;-inkscape-font-specification:Symbol;stroke-width:1">s<tspan
   style="font-size:11.69999886px;baseline-shift:sub;stroke-width:1"
   id="tspan4869">1</tspan></tspan></text>
<text
       transform="scale(1,-1)"
       style="font-variant:normal;font-weight:normal;font-size:7px;font-family:Helvetica;-inkscape-font-specification:Helvetica;writing-mode:lr-tb;fill:#000000;fill-opacity:1;fill-rule:nonzero;stroke:none;stroke-width:1"
       id="text4655"
       x="99.900017"
       y="-245.77994"><tspan
         sodipodi:role="line"
         id="tspan4653"
         style="stroke-width:1"
         x="99.900017"
         y="-239.80194" /></text>
<text
       transform="scale(1,-1)"
       style="font-variant:normal;font-weight:normal;font-size:10px;font-family:Helvetica;-inkscape-font-specification:Helvetica;writing-mode:lr-tb;fill:#000000;fill-opacity:1;fill-rule:nonzero;stroke:none;stroke-width:1"
       id="text4675"
       x="191.36397"
       y="-98.019554"><tspan
         x="191.36397"
         y="-98.019554"
         id="tspan4673"
         style="font-size:14px;stroke-width:1">S<tspan
   style="font-size:14px;baseline-shift:sub;stroke-width:1"
   id="tspan4906">Hmax</tspan></tspan></text>
<path
       inkscape:connector-curvature="0"
       id="path4681"
       style="fill:#000000;fill-opacity:1;fill-rule:nonzero;stroke:none;stroke-width:0.1"
       d="m 156.36371,476.93129 c 0,1.2371 -1.0031,2.2398 -2.2403,2.2398 -1.2371,0 -2.2398,-1.0027 -2.2398,-2.2398 0,-1.2371 1.0027,-2.2398 2.2398,-2.2398 1.2372,0 2.2403,1.0027 2.2403,2.2398" /><path
       inkscape:connector-curvature="0"
       id="path4683"
       style="fill:none;stroke:#000000;stroke-width:0.75;stroke-linecap:round;stroke-linejoin:round;stroke-miterlimit:10;stroke-dasharray:none;stroke-opacity:1"
       d="m 156.36371,476.93129 c 0,1.2371 -1.0031,2.2398 -2.2403,2.2398 -1.2371,0 -2.2398,-1.0027 -2.2398,-2.2398 0,-1.2371 1.0027,-2.2398 2.2398,-2.2398 1.2372,0 2.2403,1.0027 2.2403,2.2398" /><path
       inkscape:connector-curvature="0"
       id="path4685"
       style="fill:#ffffff;fill-opacity:1;fill-rule:nonzero;stroke:none;stroke-width:0.1"
       d="m 156.36371,464.98129 c 0,1.2371 -1.0031,2.2398 -2.2403,2.2398 -1.2371,0 -2.2398,-1.0027 -2.2398,-2.2398 0,-1.2371 1.0027,-2.2398 2.2398,-2.2398 1.2372,0 2.2403,1.0027 2.2403,2.2398" /><path
       inkscape:connector-curvature="0"
       id="path4687"
       style="fill:none;stroke:#000000;stroke-width:0.75;stroke-linecap:round;stroke-linejoin:round;stroke-miterlimit:10;stroke-dasharray:none;stroke-opacity:1"
       d="m 156.36371,464.98129 c 0,1.2371 -1.0031,2.2398 -2.2403,2.2398 -1.2371,0 -2.2398,-1.0027 -2.2398,-2.2398 0,-1.2371 1.0027,-2.2398 2.2398,-2.2398 1.2372,0 2.2403,1.0027 2.2403,2.2398" /><g
       transform="translate(87.783612,385.48129)"
       id="g4689"><text
         id="text4695"
         style="font-variant:normal;font-weight:normal;font-size:10px;font-family:Helvetica;-inkscape-font-specification:Helvetica;writing-mode:lr-tb;fill:#000000;fill-opacity:1;fill-rule:nonzero;stroke:none"
         transform="matrix(1,0,0,-1,75.3,87.8602)"><tspan
           id="tspan4691"
           sodipodi:role="line"
           y="0"
           x="0 6.1699209 11.729921 16.729921 19.50992 25.069921 28.549994 30.769995 36.329994 39.659992 42.439995 50.769993 56.329994 61.889996">Posterior mean</tspan><tspan
           id="tspan4693"
           sodipodi:role="line"
           y="11.95"
           x="0 6.1699209 11.729921 16.729921 19.50992 25.069921 28.549994 30.769995 36.329994 39.659992 42.439995 50.769993 56.329994 61.889996">Posterior mode</tspan></text>
</g><text
       style="font-style:normal;font-variant:normal;font-weight:normal;font-stretch:normal;font-size:10px;font-family:Symbol;-inkscape-font-specification:Symbol;writing-mode:lr-tb;fill:#000000;fill-opacity:1;fill-rule:nonzero;stroke:none;stroke-width:1"
       id="text4651-1"
       x="191.49597"
       y="-145.96954"
       transform="scale(1,-1)"><tspan
         x="191.49597"
         y="-145.96954"
         id="tspan4649-1"
         style="font-style:normal;font-variant:normal;font-weight:normal;font-stretch:normal;font-size:18px;font-family:Symbol;-inkscape-font-specification:Symbol;stroke-width:1">s<tspan
   style="font-size:11.69999886px;baseline-shift:sub;stroke-width:1"
   id="tspan4902">2</tspan></tspan></text>
<text
       style="font-style:normal;font-variant:normal;font-weight:normal;font-stretch:normal;font-size:10px;font-family:Symbol;-inkscape-font-specification:Symbol;writing-mode:lr-tb;fill:#000000;fill-opacity:1;fill-rule:nonzero;stroke:none;stroke-width:1"
       id="text4651-9"
       x="191.49597"
       y="-122.53359"
       transform="scale(1,-1)"><tspan
         x="191.49597"
         y="-122.53359"
         id="tspan4649-7"
         style="font-style:normal;font-variant:normal;font-weight:normal;font-stretch:normal;font-size:18px;font-family:Symbol;-inkscape-font-specification:Symbol;stroke-width:1">s<tspan
   style="font-size:11.69999886px;baseline-shift:sub;stroke-width:1"
   id="tspan4904">3</tspan></tspan></text>
<g
       id="g4697"
       transform="scale(0.1)"><path
         d="M 3813.7,607.699 4052.9,633 4292,709.602 4531.1,879.5 l 239.2,297.2 239.1,417.7 239.1,461.6 239.2,360 239.1,93.5 239.1,-251 239.2,-406.4"
         style="fill:none;stroke:#000000;stroke-width:17.00787354;stroke-linecap:round;stroke-linejoin:round;stroke-miterlimit:10;stroke-dasharray:none;stroke-opacity:1"
         id="path4705"
         inkscape:connector-curvature="0" /></g><path
       inkscape:connector-curvature="0"
       id="path4707"
       style="fill:none;stroke:#000000;stroke-width:0.75;stroke-linecap:round;stroke-linejoin:round;stroke-miterlimit:10;stroke-dasharray:none;stroke-opacity:1"
       d="M 381.37,59.7602 H 620.51" /><path
       inkscape:connector-curvature="0"
       id="path4709"
       style="fill:none;stroke:#000000;stroke-width:0.75;stroke-linecap:round;stroke-linejoin:round;stroke-miterlimit:10;stroke-dasharray:none;stroke-opacity:1"
       d="M 381.37,59.7602 V 53.7801" /><path
       inkscape:connector-curvature="0"
       id="path4711"
       style="fill:none;stroke:#000000;stroke-width:0.75;stroke-linecap:round;stroke-linejoin:round;stroke-miterlimit:10;stroke-dasharray:none;stroke-opacity:1"
       d="M 429.2,59.7602 V 53.7801" /><path
       inkscape:connector-curvature="0"
       id="path4713"
       style="fill:none;stroke:#000000;stroke-width:0.75;stroke-linecap:round;stroke-linejoin:round;stroke-miterlimit:10;stroke-dasharray:none;stroke-opacity:1"
       d="M 477.03,59.7602 V 53.7801" /><path
       inkscape:connector-curvature="0"
       id="path4715"
       style="fill:none;stroke:#000000;stroke-width:0.75;stroke-linecap:round;stroke-linejoin:round;stroke-miterlimit:10;stroke-dasharray:none;stroke-opacity:1"
       d="M 524.85,59.7602 V 53.7801" /><path
       inkscape:connector-curvature="0"
       id="path4717"
       style="fill:none;stroke:#000000;stroke-width:0.75;stroke-linecap:round;stroke-linejoin:round;stroke-miterlimit:10;stroke-dasharray:none;stroke-opacity:1"
       d="M 572.68,59.7602 V 53.7801" /><path
       inkscape:connector-curvature="0"
       id="path4719"
       style="fill:none;stroke:#000000;stroke-width:0.75;stroke-linecap:round;stroke-linejoin:round;stroke-miterlimit:10;stroke-dasharray:none;stroke-opacity:1"
       d="M 620.51,59.7602 V 53.7801" /><g
       id="g4721"><text
         id="text4725"
         style="font-variant:normal;font-weight:normal;font-size:10px;font-family:Helvetica;-inkscape-font-specification:Helvetica;writing-mode:lr-tb;fill:#000000;fill-opacity:1;fill-rule:nonzero;stroke:none"
         transform="matrix(1,0,0,-1,374.42,38.25)"><tspan
           id="tspan4723"
           sodipodi:role="line"
           y="0"
           x="0 5.5599999 8.3400002 47.830101 53.390099 56.170101 95.660202 101.2202 104.0002 143.4801 149.0401 151.8201 191.3102 196.87019 199.65021 239.1403 244.7003 247.4803">0.00.20.40.60.81.0</tspan></text>
</g><path
       inkscape:connector-curvature="0"
       id="path4727"
       style="fill:none;stroke:#000000;stroke-width:0.75;stroke-linecap:round;stroke-linejoin:round;stroke-miterlimit:10;stroke-dasharray:none;stroke-opacity:1"
       d="M 371.81,59.7602 V 223.89" /><path
       inkscape:connector-curvature="0"
       id="path4729"
       style="fill:none;stroke:#000000;stroke-width:0.75;stroke-linecap:round;stroke-linejoin:round;stroke-miterlimit:10;stroke-dasharray:none;stroke-opacity:1"
       d="m 371.81,59.7602 h -5.98" /><path
       inkscape:connector-curvature="0"
       id="path4731"
       style="fill:none;stroke:#000000;stroke-width:0.75;stroke-linecap:round;stroke-linejoin:round;stroke-miterlimit:10;stroke-dasharray:none;stroke-opacity:1"
       d="m 371.81,114.47 h -5.98" /><path
       inkscape:connector-curvature="0"
       id="path4733"
       style="fill:none;stroke:#000000;stroke-width:0.75;stroke-linecap:round;stroke-linejoin:round;stroke-miterlimit:10;stroke-dasharray:none;stroke-opacity:1"
       d="m 371.81,169.18 h -5.98" /><path
       inkscape:connector-curvature="0"
       id="path4735"
       style="fill:none;stroke:#000000;stroke-width:0.75;stroke-linecap:round;stroke-linejoin:round;stroke-miterlimit:10;stroke-dasharray:none;stroke-opacity:1"
       d="m 371.81,223.89 h -5.98" /><g
       id="g4737"><text
         id="text4741"
         style="font-variant:normal;font-weight:normal;font-size:10px;font-family:Helvetica;-inkscape-font-specification:Helvetica;writing-mode:lr-tb;fill:#000000;fill-opacity:1;fill-rule:nonzero;stroke:none"
         transform="matrix(0,1,1,0,357.47,50.0305)"><tspan
           id="tspan4739"
           sodipodi:role="line"
           y="0"
           x="0 5.5599999 8.3400002 13.9 54.710201 60.270199 63.050201 68.610199 109.42 114.98 117.76 123.32 164.1302 169.6902 172.4702 178.0302">0.000.050.100.15</tspan></text>
</g><path
       inkscape:connector-curvature="0"
       id="path4743"
       style="fill:none;stroke:#000000;stroke-width:0.75;stroke-linecap:round;stroke-linejoin:round;stroke-miterlimit:10;stroke-dasharray:none;stroke-opacity:1"
       d="M 371.81,59.7602 H 630.07 V 270.07 H 371.81 V 59.7602" /><text
       y="-14.5"
       x="493.29175"
       transform="scale(1,-1)"
       style="font-variant:normal;font-weight:normal;font-size:10px;font-family:Symbol;-inkscape-font-specification:Symbol;writing-mode:lr-tb;fill:#000000;fill-opacity:1;fill-rule:nonzero;stroke:none;stroke-width:1"
       id="text4757"><tspan
         x="493.29175"
         y="-14.5"
         id="tspan4755"
         style="font-size:24px;stroke-width:1"></tspan></text>
<g
       id="g4763"
       transform="scale(0.1)"><g
         clip-path="url(#clipPath4769)"
         id="g4765" /></g><text
       transform="matrix(0,1,1,0,0,0)"
       style="font-variant:normal;font-weight:normal;font-size:10px;font-family:Helvetica;-inkscape-font-specification:Helvetica;writing-mode:lr-tb;fill:#000000;fill-opacity:1;fill-rule:nonzero;stroke:none;stroke-width:1"
       id="text4615-3"
       x="96.097672"
       y="338.05115"><tspan
         sodipodi:role="line"
         id="tspan4613-6"
         x="96.097672"
         y="338.05115"
         style="font-size:18px;stroke-width:1">Posterior density</tspan></text>
<rect
       style="opacity:1;fill:none;fill-opacity:1;stroke:#000500;stroke-width:1.70100009;stroke-miterlimit:10;stroke-dasharray:none;stroke-dashoffset:0;stroke-opacity:1"
       id="rect5141"
       width="115.6574"
       height="111.4101"
       x="132.48413"
       y="-193.62506"
       transform="scale(1,-1)"
       ry="10.33335" /><flowRoot
       xml:space="preserve"
       id="flowRoot5143"
       style="font-style:normal;font-weight:normal;font-size:40px;line-height:1.25;font-family:sans-serif;letter-spacing:0px;word-spacing:0px;fill:#000000;fill-opacity:1;stroke:none"
       transform="matrix(0.75000002,0,0,-0.75000002,70.321423,558.23325)"><flowRegion
         id="flowRegion5145"><rect
           id="rect5147"
           width="51.838909"
           height="55.759502"
           x="8.7124224"
           y="95.505142" /></flowRegion><flowPara
         id="flowPara5149"
         style="font-weight:bold">a</flowPara></flowRoot><flowRoot
       xml:space="preserve"
       id="flowRoot5143-7"
       style="font-style:normal;font-weight:normal;font-size:40px;line-height:1.25;font-family:sans-serif;letter-spacing:0px;word-spacing:0px;fill:#000000;fill-opacity:1;stroke:none"
       transform="matrix(0.75000002,0,0,-0.75000002,329.60634,661.53439)"><flowRegion
         id="flowRegion5145-3"><rect
           id="rect5147-6"
           width="51.838909"
           height="55.759502"
           x="8.7124224"
           y="95.505142" /></flowRegion><flowPara
         id="flowPara5149-5"
         style="font-weight:bold">b</flowPara></flowRoot><flowRoot
       xml:space="preserve"
       id="flowRoot5143-6"
       style="font-style:normal;font-weight:normal;font-size:40px;line-height:1.25;font-family:sans-serif;letter-spacing:0px;word-spacing:0px;fill:#000000;fill-opacity:1;stroke:none"
       transform="matrix(0.75000002,0,0,-0.75000002,329.75438,368.60387)"><flowRegion
         id="flowRegion5145-39"><rect
           id="rect5147-4"
           width="51.838909"
           height="55.759502"
           x="8.7124224"
           y="95.505142" /></flowRegion><flowPara
         id="flowPara5149-8"
         style="font-weight:bold">c</flowPara></flowRoot></g></svg>